<svg width="58" height="65" viewBox="0 0 58 65" fill="none" xmlns="http://www.w3.org/2000/svg">
<g filter="url(#filter0_d)">
<path d="M28.8911 57C42.4305 57 53.4063 50.7648 53.4063 43.0734C53.4063 35.3819 42.4305 29.1468 28.8911 29.1468C15.3517 29.1468 4.37582 35.3819 4.37582 43.0734C4.37582 50.7648 15.3517 57 28.8911 57Z" fill="#F5F5F5"/>
</g>
<path d="M39.0928 51.8544L20.7931 41.2881C20.6322 41.1954 20.4985 41.0618 20.4055 40.901C20.3125 40.7401 20.2636 40.5576 20.2636 40.3718C20.2636 40.186 20.3125 40.0035 20.4055 39.8427C20.4985 39.6818 20.6322 39.5483 20.7931 39.4555L22.5984 38.3172C22.91 38.1377 23.2633 38.0432 23.6229 38.0432C23.9825 38.0432 24.3358 38.1377 24.6474 38.3172L42.9496 48.8847C43.1105 48.9774 43.2443 49.1109 43.3372 49.2718C43.4302 49.4327 43.4791 49.6152 43.4791 49.801C43.4791 49.9867 43.4302 50.1693 43.3372 50.3301C43.2443 50.491 43.1105 50.6245 42.9496 50.7172L41.1444 51.8544C40.8326 52.0348 40.4788 52.1298 40.1186 52.1298C39.7584 52.1298 39.4046 52.0348 39.0928 51.8544Z" fill="#E0E0E0"/>
<path d="M11.2682 42.2212C13.4614 42.2212 15.2394 41.2002 15.2394 39.9407C15.2394 38.6813 13.4614 37.6603 11.2682 37.6603C9.07497 37.6603 7.297 38.6813 7.297 39.9407C7.297 41.2002 9.07497 42.2212 11.2682 42.2212Z" fill="#E6E6E6"/>
<path d="M45.5821 42.7437L47.3239 43.7452C47.3239 43.7452 46.4343 40.9496 46.9083 38.1317C47.0875 37.0668 47.4719 36.538 47.6063 36.2531C47.7406 35.9682 48.782 34.2078 47.8551 33.4016C46.9282 32.5954 44.7722 34.2165 44.8891 38.5547C44.9423 39.9747 45.1752 41.3822 45.5821 42.7437Z" fill="#14279B"/>
<path opacity="0.5" d="M45.5821 42.7437L47.3239 43.7452C47.3239 43.7452 46.4343 40.9496 46.9083 38.1317C47.0875 37.0668 47.4719 36.538 47.6063 36.2531C47.7406 35.9682 48.782 34.2078 47.8551 33.4016C46.9282 32.5954 44.7722 34.2165 44.8891 38.5547C44.9423 39.9747 45.1752 41.3822 45.5821 42.7437Z" fill="black"/>
<path d="M46.392 43.2712C46.3794 43.2715 46.3669 43.2678 46.3564 43.2606C46.346 43.2535 46.338 43.2433 46.3336 43.2314C46.3273 43.2127 45.6617 41.3938 45.6829 38.4701C45.704 35.5465 47.2405 33.959 47.2555 33.9441C47.2612 33.9382 47.2681 33.9336 47.2757 33.9304C47.2833 33.9273 47.2914 33.9257 47.2996 33.9257C47.3078 33.9257 47.316 33.9273 47.3235 33.9304C47.3311 33.9336 47.338 33.9382 47.3438 33.9441C47.3496 33.9498 47.3542 33.9567 47.3574 33.9643C47.3606 33.9719 47.3622 33.98 47.3622 33.9882C47.3622 33.9964 47.3606 34.0046 47.3574 34.0121C47.3542 34.0197 47.3496 34.0266 47.3438 34.0324C47.3289 34.0473 45.8285 35.5875 45.8073 38.4714C45.7862 41.3552 46.4431 43.1717 46.4505 43.1891C46.4561 43.2046 46.4553 43.2217 46.4483 43.2366C46.4413 43.2515 46.4287 43.2631 46.4132 43.2687C46.4064 43.2708 46.3992 43.2717 46.392 43.2712Z" fill="white"/>
<path d="M46.3087 43.1717L48.6899 44.5402C48.938 44.6869 49.2323 44.7346 49.5141 44.674C49.7958 44.6134 50.0444 44.4487 50.2102 44.213C50.3678 43.9677 50.4343 43.6749 50.3981 43.3857C50.2836 42.149 49.7462 41.8641 50.4043 41.313C51.0624 40.7618 51.2341 40.7233 51.1968 40.1933C51.1595 39.6633 50.7974 39.4319 50.6257 39.2229C50.4541 39.0138 49.9788 38.5759 50.3023 37.929C50.6257 37.282 51.0674 36.6562 50.3981 36.3701C49.9987 36.1984 49.3331 36.4273 48.8952 36.9026C48.4573 37.3778 48.0965 37.72 47.6772 37.8344C47.2579 37.9489 46.3846 37.9675 46.4219 38.6904C46.4592 39.4132 46.6508 39.6608 46.4791 39.983C46.1556 40.5852 44.7486 40.9273 46.3087 43.1717Z" fill="#14279B"/>
<path d="M47.4856 43.9082C47.4701 43.9077 47.4553 43.9016 47.4439 43.8911C47.4325 43.8806 47.4252 43.8663 47.4234 43.8509C47.4234 43.8086 47.0576 39.5388 49.9938 36.6973C50.0059 36.6873 50.0213 36.6822 50.037 36.6832C50.0526 36.6841 50.0674 36.6909 50.0783 36.7022C50.0891 36.7135 50.0953 36.7286 50.0955 36.7443C50.0958 36.76 50.0901 36.7752 50.0796 36.7868C47.1858 39.5873 47.5441 43.7974 47.5478 43.8397C47.5492 43.856 47.5441 43.8722 47.5336 43.8848C47.5231 43.8974 47.5081 43.9053 47.4918 43.9069L47.4856 43.9082Z" fill="white"/>
<path d="M47.9571 40.233C47.9415 40.2331 47.9263 40.2272 47.9148 40.2166C47.9033 40.206 47.8962 40.1914 47.8949 40.1758C47.8689 39.8449 47.7757 39.5228 47.621 39.2291C47.4664 38.9354 47.2535 38.6763 46.9954 38.4676C46.9887 38.4629 46.983 38.4569 46.9786 38.45C46.9742 38.443 46.9712 38.4353 46.9698 38.4272C46.9684 38.4191 46.9687 38.4108 46.9705 38.4028C46.9723 38.3948 46.9757 38.3872 46.9805 38.3805C46.9851 38.3739 46.991 38.3682 46.9978 38.3638C47.0046 38.3594 47.0123 38.3564 47.0203 38.355C47.0283 38.3536 47.0365 38.3539 47.0444 38.3557C47.0523 38.3575 47.0598 38.3609 47.0663 38.3656C47.3414 38.5837 47.5681 38.8566 47.7321 39.1669C47.8962 39.4772 47.994 39.8182 48.0193 40.1683C48.0207 40.185 48.0155 40.2015 48.0048 40.2143C47.9941 40.2271 47.9787 40.2352 47.9621 40.2368L47.9571 40.233Z" fill="white"/>
<path d="M47.7543 40.9659C47.7393 40.966 47.7247 40.9607 47.7133 40.9509C47.7009 40.9399 47.6934 40.9245 47.6922 40.908C47.6911 40.8915 47.6964 40.8752 47.7071 40.8626C47.7369 40.8278 48.4722 40.0166 50.1953 40.2318C50.2116 40.234 50.2264 40.2426 50.2364 40.2556C50.2465 40.2687 50.2509 40.2852 50.2488 40.3015C50.2466 40.3179 50.2381 40.3328 50.2251 40.3431C50.2121 40.3533 50.1956 40.358 50.1791 40.3563C48.5244 40.1485 47.8066 40.9372 47.7991 40.9447C47.7935 40.9511 47.7866 40.9562 47.7789 40.9598C47.7712 40.9635 47.7628 40.9655 47.7543 40.9659Z" fill="white"/>
<path d="M38.5355 50.5916L22.4416 41.2993C21.3057 40.6436 20.3851 38.8845 20.3851 37.3704V2.90843C20.3851 1.39434 21.3057 0.698882 22.4416 1.35453L38.5355 10.6468C39.6713 11.3025 40.592 13.0616 40.592 14.5757V49.0377C40.592 50.5505 39.6713 51.2472 38.5355 50.5916Z" fill="#455A64"/>
<path d="M40.3892 9.56317L24.2941 0.270888C23.8089 -0.00903743 23.3635 -0.0413845 23.0114 0.130303C22.9683 0.151889 22.9267 0.176415 22.887 0.203706L21.083 1.25249C21.4463 1.03477 21.9216 1.05095 22.4429 1.35202L38.5367 10.6443C39.6726 11.3 40.5932 13.0591 40.5932 14.5732V49.0352C40.5932 49.8364 40.3357 50.4037 39.9251 50.6724L41.7055 49.6361C42.1596 49.3947 42.4519 48.8038 42.4519 47.9565V13.4946C42.4519 11.978 41.5251 10.2188 40.3892 9.56317Z" fill="#37474F"/>
<path d="M40.592 14.5732V49.0352C40.592 49.8364 40.3344 50.4037 39.9239 50.6724L41.7055 49.6361C42.1596 49.3947 42.4519 48.8038 42.4519 47.9566V13.4946L40.5982 14.5708L40.592 14.5732Z" fill="#263238"/>
<path d="M42.4457 16.1682L40.592 17.2381V18.0742L42.4457 17.003V16.1682Z" fill="#37474F"/>
<path d="M41.6333 21.7281C41.4678 21.8239 41.3335 21.7219 41.3335 21.5017V19.7039C41.3351 19.5916 41.3631 19.4811 41.4152 19.3815C41.4673 19.2819 41.542 19.1959 41.6333 19.1304C41.7988 19.0346 41.9331 19.1304 41.9331 19.3568V21.1546C41.9314 21.267 41.9034 21.3774 41.8514 21.477C41.7993 21.5766 41.7246 21.6626 41.6333 21.7281Z" fill="#37474F"/>
<path d="M41.3322 21.5067V19.704C41.3339 19.5916 41.3619 19.4812 41.414 19.3816C41.466 19.282 41.5407 19.196 41.6321 19.1304C41.6594 19.1113 41.6911 19.0997 41.7243 19.0967C41.7575 19.0936 41.7909 19.0992 41.8212 19.113L41.596 18.9973C41.5652 18.9825 41.531 18.9761 41.4969 18.9787C41.4629 18.9813 41.4301 18.9929 41.4019 19.0122C41.3105 19.0778 41.2357 19.1638 41.1834 19.2633C41.1311 19.3629 41.1028 19.4733 41.1008 19.5858V21.3823C41.0962 21.4277 41.1031 21.4735 41.1209 21.5155C41.1387 21.5575 41.1669 21.5943 41.2028 21.6224L41.438 21.7468C41.4006 21.7198 41.371 21.6834 41.3524 21.6411C41.3338 21.5989 41.3269 21.5525 41.3322 21.5067Z" fill="#455A64"/>
<path d="M41.6333 26.0788C41.4678 26.1746 41.3335 26.0788 41.3335 25.8524V24.0546C41.3352 23.9423 41.3633 23.8319 41.4153 23.7323C41.4674 23.6327 41.542 23.5467 41.6333 23.4811C41.7988 23.3853 41.9331 23.4811 41.9331 23.7088V25.5053C41.9316 25.6177 41.9037 25.7282 41.8516 25.8278C41.7996 25.9275 41.7248 26.0134 41.6333 26.0788Z" fill="#37474F"/>
<path d="M41.3322 25.8524V24.0547C41.334 23.9423 41.3621 23.8319 41.4141 23.7323C41.4662 23.6327 41.5408 23.5467 41.6321 23.4811C41.6595 23.4624 41.6913 23.4509 41.7244 23.4479C41.7575 23.4448 41.7908 23.4503 41.8212 23.4637L41.596 23.3468C41.5654 23.3313 41.5311 23.3245 41.4969 23.3271C41.4626 23.3298 41.4298 23.3417 41.4019 23.3617C41.3103 23.427 41.2353 23.5129 41.183 23.6126C41.1307 23.7122 41.1026 23.8227 41.1008 23.9352V25.7367C41.096 25.7821 41.1029 25.828 41.1207 25.87C41.1386 25.912 41.1668 25.9487 41.2028 25.9768L41.438 26.1012C41.399 26.0736 41.3685 26.0357 41.3498 25.9918C41.3312 25.9479 41.3251 25.8996 41.3322 25.8524Z" fill="#455A64"/>
<path d="M37.9731 11.6135L22.1579 2.47922C22.0919 2.44124 22.0172 2.42119 21.941 2.42105C21.8649 2.42091 21.79 2.44068 21.7238 2.47841C21.6577 2.51614 21.6026 2.5705 21.5639 2.63612C21.5253 2.70173 21.5045 2.77631 21.5035 2.85245V37.3704C21.5035 38.5224 22.3209 39.937 23.3187 40.513L38.7457 49.4246C38.8189 49.4667 38.9018 49.4888 38.9862 49.4888C39.0706 49.4887 39.1535 49.4664 39.2266 49.4242C39.2997 49.382 39.3604 49.3213 39.4027 49.2482C39.4449 49.1751 39.4672 49.0922 39.4673 49.0078V14.205C39.4735 13.2545 38.7992 12.0888 37.9731 11.6135Z" fill="#14279B"/>
<path opacity="0.9" d="M37.9731 11.6135L22.1579 2.47922C22.0919 2.44124 22.0172 2.42119 21.941 2.42105C21.8649 2.42091 21.79 2.44068 21.7238 2.47841C21.6577 2.51614 21.6026 2.5705 21.5639 2.63612C21.5253 2.70173 21.5045 2.77631 21.5035 2.85245V37.3704C21.5035 38.5224 22.3209 39.937 23.3187 40.513L38.7457 49.4246C38.8189 49.4667 38.9018 49.4888 38.9862 49.4888C39.0706 49.4887 39.1535 49.4664 39.2266 49.4242C39.2997 49.382 39.3604 49.3213 39.4027 49.2482C39.4449 49.1751 39.4672 49.0922 39.4673 49.0078V14.205C39.4735 13.2545 38.7992 12.0888 37.9731 11.6135Z" fill="white"/>
<path d="M26.8881 4.86417L27.1332 5.89554L32.3758 8.91873L33.2816 8.43602L26.8881 4.86417Z" fill="#455A64"/>
<path d="M28.4295 5.8607C28.4295 6.03239 28.3051 6.10081 28.1608 6.01621C28.0833 5.96478 28.019 5.89589 27.973 5.81508C27.9269 5.73427 27.9005 5.64379 27.8958 5.55092C27.8958 5.38047 28.0202 5.3108 28.1645 5.39665C28.242 5.44782 28.3063 5.51647 28.3523 5.59708C28.3984 5.67769 28.4248 5.76799 28.4295 5.8607Z" fill="#263238"/>
<path d="M31.9616 8.04412C31.9329 8.04389 31.9047 8.03663 31.8794 8.02297L29.2021 6.53004C29.1643 6.50784 29.1367 6.47173 29.1251 6.42944C29.1136 6.38715 29.119 6.34203 29.1403 6.3037C29.1616 6.26537 29.197 6.23688 29.239 6.22431C29.281 6.21174 29.3263 6.21609 29.3651 6.23642L32.0437 7.72936C32.0762 7.74746 32.1019 7.77587 32.1165 7.81012C32.1312 7.84437 32.134 7.88252 32.1246 7.91856C32.1152 7.95461 32.0941 7.98651 32.0646 8.00924C32.035 8.03197 31.9988 8.04424 31.9616 8.04412Z" fill="#263238"/>
<path d="M24.8203 9.66272C24.6574 9.56817 24.5392 9.65028 24.5392 9.85805C24.5392 9.96194 24.5648 10.0642 24.6139 10.1558C24.6629 10.2474 24.7339 10.3255 24.8203 10.3831C24.8667 10.4112 24.9198 10.426 24.974 10.426C25.0282 10.426 25.0813 10.4112 25.1276 10.3831L25.3877 10.8533C25.2962 10.9038 25.1925 10.9279 25.0881 10.9228C24.9838 10.9178 24.8829 10.8838 24.7967 10.8247C24.5855 10.6955 24.4093 10.5162 24.2839 10.3026C24.1585 10.0891 24.0876 9.84795 24.0776 9.60051C24.0776 9.13895 24.3874 8.97846 24.8141 9.22728C25.0551 9.38246 25.2525 9.59657 25.3877 9.84934L25.1276 10.0559C25.0635 9.89892 24.9571 9.76284 24.8203 9.66272Z" fill="#14279B"/>
<path d="M26.8843 11.2216C26.8843 11.6869 26.5696 11.8437 26.1379 11.5949C25.9206 11.465 25.7388 11.2835 25.6085 11.0665C25.4783 10.8494 25.4037 10.6036 25.3914 10.3507C25.3914 9.88544 25.7062 9.72868 26.1379 9.9775C26.3557 10.1068 26.5379 10.2881 26.6682 10.5053C26.7985 10.7225 26.8728 10.9686 26.8843 11.2216ZM25.853 10.6282C25.8552 10.735 25.8827 10.8398 25.9333 10.9339C25.9839 11.028 26.0562 11.1087 26.1441 11.1694C26.2984 11.2589 26.4228 11.1694 26.4228 10.9579C26.4224 10.8535 26.3968 10.7507 26.3483 10.6582C26.2998 10.5658 26.2298 10.4863 26.1441 10.4266C25.9873 10.3358 25.853 10.4129 25.853 10.6282Z" fill="#14279B"/>
<path d="M27.3857 10.7277L27.9232 11.8474V11.0412L28.33 11.2763V12.8452L27.9568 12.6287L27.4218 11.5189V12.3201L27.0125 12.0838V10.5112L27.3857 10.7277Z" fill="#14279B"/>
<path d="M29.66 12.0402V12.4508L29.2718 12.2268V13.3864L28.8227 13.1263V11.9668L28.437 11.7441V11.3348L29.66 12.0402Z" fill="#14279B"/>
<path d="M30.5358 13.894L30.0257 13.5991L29.956 13.7807L29.4957 13.5145L30.0693 12.2766L30.5308 12.5429L31.0832 14.4314L30.6042 14.1552L30.5358 13.894ZM30.4251 13.4585L30.2857 12.9223L30.1427 13.2955L30.4251 13.4585Z" fill="#14279B"/>
<path d="M31.7961 13.6899C31.6331 13.5966 31.5149 13.6775 31.5149 13.8865C31.5151 13.9903 31.5409 14.0925 31.5899 14.1841C31.639 14.2757 31.7098 14.3538 31.7961 14.4115C31.8427 14.4393 31.896 14.454 31.9504 14.454C32.0047 14.454 32.058 14.4393 32.1046 14.4115L32.3647 14.8818C32.2728 14.9317 32.169 14.9554 32.0646 14.9503C31.9601 14.9453 31.8591 14.9117 31.7725 14.8532C31.561 14.7238 31.3848 14.5443 31.2594 14.3305C31.1339 14.1168 31.0632 13.8754 31.0534 13.6277C31.0534 13.1661 31.3644 13.0056 31.7899 13.2545C32.0305 13.4104 32.2282 13.6243 32.3647 13.8765L32.1046 14.0818C32.0391 13.9257 31.9325 13.7903 31.7961 13.6899Z" fill="#14279B"/>
<path d="M33.5914 14.3107V14.72L33.2032 14.4961V15.6593L32.7541 15.3993V14.2398L32.3684 14.0171V13.6078L33.5914 14.3107Z" fill="#14279B"/>
<path d="M34.9188 16.2366C35.0296 16.3 35.1142 16.2503 35.1142 16.0948V15.1903L35.5645 15.4491V16.3535C35.5645 16.7703 35.3157 16.8947 34.9176 16.6671C34.7258 16.5605 34.5645 16.4066 34.4493 16.2199C34.3341 16.0332 34.2687 15.82 34.2594 15.6009V14.6964L34.7098 14.9564V15.8609C34.7116 15.9358 34.7315 16.0091 34.7679 16.0746C34.8043 16.14 34.8561 16.1956 34.9188 16.2366Z" fill="#14279B"/>
<path d="M36.2898 16.2416C36.2388 16.213 36.2065 16.2117 36.2065 16.259C36.2065 16.4556 36.9094 16.7392 36.9094 17.3078C36.9094 17.6562 36.6444 17.6574 36.3383 17.4807C36.0693 17.3159 35.8376 17.0968 35.6578 16.8375L35.8245 16.5439C35.9613 16.7557 36.1369 16.9398 36.3421 17.0863C36.408 17.1249 36.4503 17.1249 36.4503 17.0689C36.4503 16.8649 35.7462 16.5937 35.7462 16.0425C35.7462 15.729 35.9751 15.6693 36.3284 15.8684C36.556 16.006 36.7563 16.1844 36.9194 16.3946L36.7564 16.6957C36.6218 16.5242 36.4649 16.3715 36.2898 16.2416Z" fill="#14279B"/>
<path d="M22.5573 17.3936C23.0621 16.7736 23.3162 15.987 23.2695 15.1888C23.2228 14.3907 22.8786 13.6391 22.3049 13.0822C21.7312 12.5254 20.9697 12.2038 20.1705 12.1808C19.3713 12.1579 18.5926 12.4353 17.9879 12.9583C17.3832 13.4814 16.9965 14.212 16.9041 15.0062C16.8117 15.8003 17.0203 16.6003 17.4887 17.2482C17.9571 17.8961 18.6513 18.3449 19.4344 18.5061C20.2175 18.6673 21.0325 18.5292 21.7188 18.1189L23.2764 18.7957L22.5573 17.3936Z" fill="#14279B"/>
<path opacity="0.4" d="M22.5573 17.3936C23.0621 16.7736 23.3162 15.987 23.2695 15.1888C23.2228 14.3907 22.8786 13.6391 22.3049 13.0822C21.7312 12.5254 20.9697 12.2038 20.1705 12.1808C19.3713 12.1579 18.5926 12.4353 17.9879 12.9583C17.3832 13.4814 16.9965 14.212 16.9041 15.0062C16.8117 15.8003 17.0203 16.6003 17.4887 17.2482C17.9571 17.8961 18.6513 18.3449 19.4344 18.5061C20.2175 18.6673 21.0325 18.5292 21.7188 18.1189L23.2764 18.7957L22.5573 17.3936Z" fill="black"/>
<path d="M18.8946 15.204C18.8946 15.1555 18.8598 15.1281 18.7964 15.1281C18.6492 15.1474 18.5117 15.2122 18.4032 15.3135L18.2265 14.9701C18.4125 14.8302 18.6371 14.7511 18.8698 14.7437C19.1683 14.7437 19.3948 14.9004 19.3948 15.1343C19.3948 15.301 19.2704 15.4615 19.1111 15.622L18.8884 15.8422H19.4147V16.208H18.2838V15.9081L18.7876 15.3869C18.8419 15.3389 18.8794 15.2748 18.8946 15.204Z" fill="white"/>
<path d="M20.3353 14.7647L19.9919 15.5883H20.1325V15.3109H20.5655V15.5883H20.7297V15.928H20.5655V16.2079H20.1325V15.928H19.5167V15.6194L19.8899 14.7647H20.3353Z" fill="white"/>
<path d="M22.0659 15.4901V16.2079H21.6031V15.6232C21.6058 15.6042 21.6043 15.5848 21.5988 15.5663C21.5934 15.5479 21.584 15.5309 21.5714 15.5163C21.5588 15.5018 21.5432 15.4902 21.5257 15.4822C21.5082 15.4743 21.4892 15.4702 21.47 15.4702C21.3791 15.4702 21.3219 15.5411 21.3219 15.6506V16.2079H20.8591V14.6826H21.3219V15.2437C21.3581 15.1865 21.4086 15.1397 21.4683 15.1078C21.5281 15.076 21.5951 15.0602 21.6628 15.0621C21.7183 15.0607 21.7734 15.071 21.8246 15.0923C21.8759 15.1137 21.922 15.1456 21.96 15.186C21.9981 15.2263 22.0272 15.2743 22.0454 15.3267C22.0637 15.3791 22.0706 15.4348 22.0659 15.4901Z" fill="white"/>
<path d="M37.157 27.0505V42.5086C37.1572 42.6835 37.1114 42.8553 37.0242 43.0068C36.9369 43.1583 36.8113 43.2842 36.66 43.3717C36.5086 43.4592 36.3369 43.5053 36.1621 43.5054C35.9872 43.5055 35.8155 43.4595 35.664 43.372L27.3384 38.5648L25.8629 37.7138C25.3548 37.42 24.9328 36.998 24.6389 36.49C24.345 35.9819 24.1897 35.4057 24.1883 34.8188V19.3594C24.1881 19.1846 24.2339 19.0127 24.3211 18.8612C24.4084 18.7097 24.534 18.5839 24.6853 18.4964C24.8367 18.4088 25.0084 18.3627 25.1833 18.3626C25.3581 18.3626 25.5299 18.4086 25.6813 18.496L35.4849 24.1555C35.9932 24.4488 36.4153 24.8708 36.7088 25.3789C37.0024 25.8871 37.1569 26.4636 37.157 27.0505Z" fill="#14279B"/>
<path opacity="0.5" d="M37.157 27.0505V42.5086C37.1572 42.6835 37.1114 42.8553 37.0242 43.0068C36.9369 43.1583 36.8113 43.2842 36.66 43.3717C36.5086 43.4592 36.3369 43.5053 36.1621 43.5054C35.9872 43.5055 35.8155 43.4595 35.664 43.372L27.3384 38.5648L25.8629 37.7138C25.3548 37.42 24.9328 36.998 24.6389 36.49C24.345 35.9819 24.1897 35.4057 24.1883 34.8188V19.3594C24.1881 19.1846 24.2339 19.0127 24.3211 18.8612C24.4084 18.7097 24.534 18.5839 24.6853 18.4964C24.8367 18.4088 25.0084 18.3627 25.1833 18.3626C25.3581 18.3626 25.5299 18.4086 25.6813 18.496L35.4849 24.1555C35.9932 24.4488 36.4153 24.8708 36.7088 25.3789C37.0024 25.8871 37.1569 26.4636 37.157 27.0505Z" fill="white"/>
<path d="M32.3609 36.1972C32.3609 36.1972 33.9198 38.7825 32.7939 41.6974L27.3347 38.5648L32.3609 36.1972Z" fill="#263238"/>
<path d="M34.847 24.5818C34.965 23.6237 34.2839 22.7513 33.3257 22.6333C32.3676 22.5154 31.4952 23.1964 31.3772 24.1546C31.2593 25.1127 31.9403 25.9851 32.8985 26.1031C33.8566 26.2211 34.729 25.54 34.847 24.5818Z" fill="#263238"/>
<path d="M33.1211 19.4651C33.1211 19.4651 33.6573 18.5942 33.8215 18.6577C33.9858 18.7211 33.7145 19.551 33.7145 19.551C33.7145 19.551 34.5257 19.7202 34.3752 19.9242C34.2246 20.1282 33.2331 20.0797 33.2331 20.0797L33.1211 19.4651Z" fill="#263238"/>
<path d="M33.4943 21.7095C33.1211 24.5137 30.7573 24.5137 30.7573 24.5137L25.8057 22.3341C25.8057 22.3341 25.4325 22.0069 25.318 21.2554C25.2741 20.9476 25.2741 20.6351 25.318 20.3273C25.318 20.3273 25.318 20.3211 25.318 20.3186C25.476 19.1392 26.3581 17.8714 28.279 17.482C28.6999 17.397 29.1285 17.3553 29.5579 17.3576C29.7657 17.3569 29.9733 17.3673 30.18 17.3887C31.6729 17.5355 32.7192 18.2322 33.2181 19.3158C33.3303 19.5604 33.4138 19.8172 33.4669 20.081C33.5682 20.6184 33.5775 21.169 33.4943 21.7095Z" fill="#263238"/>
<path d="M21.6068 27.1338C21.6068 27.1338 19.8489 27.0729 19.1721 28.786C19.1721 28.786 19.9185 29.2899 20.8977 28.786C21.8768 28.2821 21.6068 27.1338 21.6068 27.1338Z" fill="#14279B"/>
<path opacity="0.5" d="M21.6068 27.1338C21.6068 27.1338 19.8489 27.0729 19.1721 28.786C19.1721 28.786 19.9185 29.2899 20.8977 28.786C21.8768 28.2821 21.6068 27.1338 21.6068 27.1338Z" fill="black"/>
<path d="M21.557 27.9587C21.557 27.9587 21.0594 25.7964 20.7969 25.7703C20.5344 25.7441 20.4834 26.4296 20.5045 26.8166L19.8825 25.4779C19.8627 25.4363 19.8347 25.3992 19.8001 25.3688C19.7654 25.3385 19.725 25.3156 19.6811 25.3015C19.6373 25.2874 19.5911 25.2824 19.5452 25.2868C19.4994 25.2913 19.455 25.3051 19.4147 25.3274C18.7926 25.6695 17.7015 26.7096 20.0019 29.2812L21.557 27.9587Z" fill="#945959"/>
<path d="M27.9269 26.4632L27.5537 26.4147C27.1775 26.3649 26.7949 26.416 26.4451 26.5629C26.0952 26.7099 25.7908 26.9473 25.5631 27.2508L23.3424 30.2068L21.6006 27.1338C21.6006 27.1338 21.3916 29.2239 19.1659 28.786L21.5558 32.8082C21.7071 33.0629 21.9176 33.2772 22.1695 33.433C22.4213 33.5888 22.7071 33.6814 23.0025 33.7031C23.2979 33.7247 23.5941 33.6746 23.866 33.5572C24.1379 33.4397 24.3774 33.2583 24.5641 33.0284L26.6094 30.5141L27.9269 26.4632Z" fill="#14279B"/>
<path d="M32.667 33.3619C32.1693 34.6234 32.1146 34.8697 32.4182 35.5005C32.6296 35.9664 32.7962 36.4512 32.9158 36.9486C32.9158 36.9486 30.6092 39.5339 27.326 38.566L25.8505 37.715C25.5436 37.5381 25.2672 37.3129 25.0319 37.0482L25.481 33.699C25.5036 33.5227 25.4857 33.3436 25.4287 33.1752L24.9572 31.793C24.7271 31.1179 24.6929 30.3915 24.8584 29.6977C25.024 29.004 25.3826 28.3713 25.8928 27.8728L27.4778 26.3239L31.6406 26.8564L32.2626 27.0343C32.6699 27.1521 33.0209 27.4129 33.2513 27.7687C33.4817 28.1246 33.5759 28.5516 33.5167 28.9714C33.3127 30.4394 32.9793 32.5694 32.667 33.3619Z" fill="#14279B"/>
<path opacity="0.5" d="M32.667 33.3619C32.1693 34.6234 32.1146 34.8697 32.4182 35.5005C32.6296 35.9664 32.7962 36.4512 32.9158 36.9486C32.9158 36.9486 30.6092 39.5339 27.326 38.566L25.8505 37.715C25.5436 37.5381 25.2672 37.3129 25.0319 37.0482L25.481 33.699C25.5036 33.5227 25.4857 33.3436 25.4287 33.1752L24.9572 31.793C24.7271 31.1179 24.6929 30.3915 24.8584 29.6977C25.024 29.004 25.3826 28.3713 25.8928 27.8728L27.4778 26.3239L31.6406 26.8564L32.2626 27.0343C32.6699 27.1521 33.0209 27.4129 33.2513 27.7687C33.4817 28.1246 33.5759 28.5516 33.5167 28.9714C33.3127 30.4394 32.9793 32.5694 32.667 33.3619Z" fill="black"/>
<path d="M30.1564 29.5934L29.3228 28.8831C29.2345 28.8075 29.1281 28.7563 29.014 28.7345C28.8999 28.7127 28.7821 28.721 28.6721 28.7586L27.6644 29.1057L27.5288 28.5409C27.5076 28.453 27.4689 28.3704 27.4149 28.2979C27.3609 28.2254 27.2928 28.1646 27.2147 28.1191C27.1366 28.0737 27.05 28.0445 26.9603 28.0334C26.8706 28.0223 26.7796 28.0294 26.6928 28.0545L26.2561 28.1789L26.9951 26.7631C27.2364 26.302 27.608 25.9221 28.0638 25.6708L28.3536 25.5115L30.7486 25.6359C30.7486 25.6359 31.6406 26.0092 31.6406 26.8489L30.1564 29.586" fill="#14279B"/>
<path d="M30.7585 26.6972L28.3574 28.5683V22.6103H30.7585V26.6972Z" fill="#945959"/>
<path d="M28.3947 26.2057L27.6644 29.1107L30.7486 26.6971L28.3947 26.2057Z" fill="#945959"/>
<path d="M28.3574 25.774C28.8913 25.5758 29.3794 25.2711 29.7919 24.8784C30.2045 24.4858 30.5329 24.0133 30.7573 23.4898V22.6103H28.3561L28.3574 25.774Z" fill="#703838"/>
<path d="M28.8749 18.1949C27.9642 18.1949 26.0284 18.7025 25.8045 21.0862C25.5805 23.4699 25.797 25.3162 27.0262 25.4953C28.2554 25.6745 31.1118 24.7825 31.495 21.6971C31.8782 18.6117 29.762 18.1949 28.8749 18.1949Z" fill="#945959"/>
<path d="M27.4417 22.0952V23.4998L26.6181 23.2472L27.4417 22.0952Z" fill="#703838"/>
<path d="M28.3574 22.6239C28.5154 22.6239 28.6435 22.4958 28.6435 22.3377C28.6435 22.1797 28.5154 22.0516 28.3574 22.0516C28.1993 22.0516 28.0712 22.1797 28.0712 22.3377C28.0712 22.4958 28.1993 22.6239 28.3574 22.6239Z" fill="#263238"/>
<path d="M26.7599 22.1387C26.7597 22.1953 26.7427 22.2505 26.7111 22.2974C26.6795 22.3443 26.6347 22.3807 26.5824 22.4022C26.5301 22.4237 26.4726 22.4292 26.4172 22.418C26.3618 22.4068 26.3109 22.3795 26.271 22.3394C26.2311 22.2993 26.204 22.2483 26.193 22.1929C26.1821 22.1374 26.1878 22.0799 26.2095 22.0277C26.2312 21.9755 26.2679 21.9309 26.3149 21.8995C26.362 21.8681 26.4172 21.8513 26.4738 21.8513C26.5115 21.8513 26.5488 21.8588 26.5836 21.8732C26.6184 21.8877 26.65 21.9089 26.6766 21.9356C26.7031 21.9623 26.7242 21.994 26.7385 22.0289C26.7528 22.0637 26.7601 22.1011 26.7599 22.1387Z" fill="#263238"/>
<path d="M26.1242 21.5416L26.684 21.2094C26.684 21.2094 26.47 20.9867 26.2561 21.1198C26.0421 21.2529 26.1242 21.5416 26.1242 21.5416Z" fill="#263238"/>
<path d="M27.0548 24.0696C27.3274 24.0895 27.5988 24.0167 27.8249 23.863C27.8249 23.863 27.8784 24.2699 27.5375 24.347C27.1966 24.4241 27.0548 24.0696 27.0548 24.0696Z" fill="#703838"/>
<path d="M26.5658 19.006C26.5658 19.006 26.908 22.2967 31.3831 22.4C31.3831 22.4 32.7354 19.1292 30.063 18.0667C27.3907 17.0043 26.5658 19.006 26.5658 19.006Z" fill="#263238"/>
<path d="M32.7006 21.9073L32.1507 21.5888C31.9417 21.4644 31.653 21.4818 31.3333 21.6659C30.6988 22.0317 30.1837 22.9237 30.1837 23.6565C30.1837 24.0235 30.3081 24.2786 30.5221 24.403L31.0621 24.714L31.0932 24.7314L31.1118 24.7426C31.3159 24.8422 31.5883 24.8185 31.8882 24.6456C32.5227 24.2724 33.0377 23.3878 33.0377 22.655C33.034 22.2843 32.9058 22.028 32.7006 21.9073Z" fill="#14279B"/>
<path d="M32.6962 23.7812C33.1449 23.0041 33.1449 22.1641 32.6962 21.905C32.2476 21.646 31.5201 22.066 31.0715 22.8431C30.6228 23.6203 30.6228 24.4603 31.0714 24.7193C31.5201 24.9783 32.2475 24.5583 32.6962 23.7812Z" fill="#14279B"/>
<path opacity="0.5" d="M32.6962 23.7812C33.1449 23.0041 33.1449 22.1641 32.6962 21.905C32.2476 21.646 31.5201 22.066 31.0715 22.8431C30.6228 23.6203 30.6228 24.4603 31.0714 24.7193C31.5201 24.9783 32.2475 24.5583 32.6962 23.7812Z" fill="black"/>
<path d="M32.9208 22.5978L32.5475 22.3801C32.4057 22.2955 32.2079 22.3067 31.9889 22.4323C31.7602 22.5818 31.5698 22.783 31.4333 23.0196C31.2967 23.2563 31.2177 23.5218 31.2027 23.7946C31.2027 24.0434 31.291 24.2213 31.4341 24.3035L31.8073 24.5162C31.8139 24.521 31.821 24.5252 31.8284 24.5286L31.8409 24.5361C31.9284 24.5693 32.0227 24.5805 32.1155 24.5688C32.2083 24.5571 32.2969 24.5228 32.3734 24.4689C32.6019 24.3196 32.7922 24.1186 32.9288 23.8821C33.0654 23.6457 33.1444 23.3805 33.1596 23.1079C33.1497 22.8553 33.0626 22.6799 32.9208 22.5978Z" fill="#14279B"/>
<path d="M33.1497 23.1054C33.1345 23.378 33.0554 23.6433 32.9188 23.8797C32.7822 24.1161 32.592 24.3171 32.3634 24.4665C31.928 24.7153 31.5759 24.5138 31.5759 24.0124C31.5907 23.7395 31.6697 23.474 31.8065 23.2375C31.9434 23.0009 32.1342 22.8001 32.3634 22.6513C32.7976 22.4 33.1497 22.6028 33.1497 23.1054Z" fill="#14279B"/>
<path opacity="0.3" d="M33.1497 23.1054C33.1345 23.378 33.0554 23.6433 32.9188 23.8797C32.7822 24.1161 32.592 24.3171 32.3634 24.4665C31.928 24.7153 31.5759 24.5138 31.5759 24.0124C31.5907 23.7395 31.6697 23.474 31.8065 23.2375C31.9434 23.0009 32.1342 22.8001 32.3634 22.6513C32.7976 22.4 33.1497 22.6028 33.1497 23.1054Z" fill="black"/>
<path d="M30.9924 17.5529C30.6358 17.2774 30.1989 17.1259 29.7483 17.1212H29.6376C29.1812 17.1163 28.7256 17.158 28.2778 17.2456C28.3599 17.2456 28.442 17.2456 28.5266 17.2456H28.2778V17.477H28.5092C29.3067 17.5042 30.0624 17.8403 30.6166 18.4145C31.1708 18.9886 31.48 19.7557 31.4789 20.5537V21.5328C31.4788 21.5715 31.4869 21.6098 31.5026 21.6452C31.5183 21.6806 31.5413 21.7122 31.5701 21.7382C31.5988 21.7641 31.6327 21.7837 31.6695 21.7957C31.7063 21.8077 31.7452 21.8118 31.7837 21.8078H31.8123L32.0611 21.7307C32.0445 21.7359 32.0274 21.7392 32.0101 21.7406C32.0843 21.7305 32.1522 21.6935 32.2008 21.6366C32.2494 21.5797 32.2754 21.5069 32.2738 21.4321V20.5239C32.2714 18.8804 31.561 17.9971 30.9924 17.5529Z" fill="#14279B"/>
<path d="M29.4261 25.4269C29.3235 25.427 29.222 25.4049 29.1287 25.3623L28.3511 25.0027C28.339 24.9984 28.3279 24.9915 28.3185 24.9827C28.3091 24.9738 28.3016 24.9631 28.2966 24.9512C28.2916 24.9393 28.2891 24.9265 28.2893 24.9135C28.2894 24.9006 28.2923 24.8879 28.2977 24.8761C28.303 24.8644 28.3108 24.8539 28.3204 24.8453C28.33 24.8367 28.3413 24.8301 28.3536 24.8261C28.3659 24.8221 28.3789 24.8207 28.3917 24.822C28.4046 24.8232 28.417 24.8272 28.4283 24.8335L29.2059 25.1931C29.305 25.2392 29.4161 25.2532 29.5236 25.2331C29.6311 25.213 29.7297 25.1599 29.8055 25.0811L30.552 24.3097C30.5695 24.2923 30.5932 24.2824 30.6179 24.2824C30.6426 24.2824 30.6664 24.2923 30.6839 24.3097C30.701 24.3274 30.7106 24.351 30.7106 24.3757C30.7106 24.4003 30.701 24.424 30.6839 24.4416L29.9374 25.213C29.8709 25.2812 29.7914 25.3353 29.7035 25.3721C29.6157 25.4088 29.5213 25.4275 29.4261 25.4269Z" fill="#14279B"/>
<path opacity="0.5" d="M29.4261 25.4269C29.3235 25.427 29.222 25.4049 29.1287 25.3623L28.3511 25.0027C28.339 24.9984 28.3279 24.9915 28.3185 24.9827C28.3091 24.9738 28.3016 24.9631 28.2966 24.9512C28.2916 24.9393 28.2891 24.9265 28.2893 24.9135C28.2894 24.9006 28.2923 24.8879 28.2977 24.8761C28.303 24.8644 28.3108 24.8539 28.3204 24.8453C28.33 24.8367 28.3413 24.8301 28.3536 24.8261C28.3659 24.8221 28.3789 24.8207 28.3917 24.822C28.4046 24.8232 28.417 24.8272 28.4283 24.8335L29.2059 25.1931C29.305 25.2392 29.4161 25.2532 29.5236 25.2331C29.6311 25.213 29.7297 25.1599 29.8055 25.0811L30.552 24.3097C30.5695 24.2923 30.5932 24.2824 30.6179 24.2824C30.6426 24.2824 30.6664 24.2923 30.6839 24.3097C30.701 24.3274 30.7106 24.351 30.7106 24.3757C30.7106 24.4003 30.701 24.424 30.6839 24.4416L29.9374 25.213C29.8709 25.2812 29.7914 25.3353 29.7035 25.3721C29.6157 25.4088 29.5213 25.4275 29.4261 25.4269Z" fill="black"/>
<path d="M28.5552 24.7414C28.5552 24.8132 28.5339 24.8835 28.494 24.9432C28.454 25.0029 28.3973 25.0495 28.3309 25.077C28.2646 25.1045 28.1915 25.1117 28.121 25.0977C28.0506 25.0836 27.9858 25.049 27.935 24.9982C27.8842 24.9474 27.8496 24.8827 27.8356 24.8122C27.8216 24.7418 27.8288 24.6687 27.8563 24.6023C27.8838 24.536 27.9303 24.4792 27.9901 24.4393C28.0498 24.3994 28.1201 24.3781 28.1919 24.3781C28.2883 24.3781 28.3807 24.4164 28.4488 24.4845C28.5169 24.5526 28.5552 24.645 28.5552 24.7414Z" fill="#14279B"/>
<path opacity="0.5" d="M28.5552 24.7414C28.5552 24.8132 28.5339 24.8835 28.494 24.9432C28.454 25.0029 28.3973 25.0495 28.3309 25.077C28.2646 25.1045 28.1915 25.1117 28.121 25.0977C28.0506 25.0836 27.9858 25.049 27.935 24.9982C27.8842 24.9474 27.8496 24.8827 27.8356 24.8122C27.8216 24.7418 27.8288 24.6687 27.8563 24.6023C27.8838 24.536 27.9303 24.4792 27.9901 24.4393C28.0498 24.3994 28.1201 24.3781 28.1919 24.3781C28.2883 24.3781 28.3807 24.4164 28.4488 24.4845C28.5169 24.5526 28.5552 24.645 28.5552 24.7414Z" fill="black"/>
<path d="M32.2714 20.5239V21.4321C32.273 21.5069 32.2469 21.5797 32.1983 21.6366C32.1497 21.6935 32.0818 21.7305 32.0076 21.7406C31.9666 21.745 31.9252 21.7407 31.886 21.7279C31.8468 21.7152 31.8107 21.6944 31.78 21.6668C31.7494 21.6393 31.7249 21.6055 31.7082 21.5679C31.6915 21.5302 31.6828 21.4895 31.6829 21.4482V20.5239C31.6836 20.0827 31.595 19.6459 31.4225 19.2399C31.2501 18.8338 30.9972 18.4669 30.6792 18.1611C30.3612 17.8553 29.9847 17.617 29.5722 17.4605C29.1597 17.304 28.7198 17.2326 28.279 17.2506C28.7268 17.163 29.1825 17.1213 29.6388 17.1262H29.747C30.1977 17.1308 30.6345 17.2824 30.9912 17.5579C31.561 17.9971 32.2714 18.8804 32.2714 20.5239Z" fill="#14279B"/>
<path opacity="0.5" d="M32.2714 20.5239V21.4321C32.273 21.5069 32.2469 21.5797 32.1983 21.6366C32.1497 21.6935 32.0818 21.7305 32.0076 21.7406C31.9666 21.745 31.9252 21.7407 31.886 21.7279C31.8468 21.7152 31.8107 21.6944 31.78 21.6668C31.7494 21.6393 31.7249 21.6055 31.7082 21.5679C31.6915 21.5302 31.6828 21.4895 31.6829 21.4482V20.5239C31.6836 20.0827 31.595 19.6459 31.4225 19.2399C31.2501 18.8338 30.9972 18.4669 30.6792 18.1611C30.3612 17.8553 29.9847 17.617 29.5722 17.4605C29.1597 17.304 28.7198 17.2326 28.279 17.2506C28.7268 17.163 29.1825 17.1213 29.6388 17.1262H29.747C30.1977 17.1308 30.6345 17.2824 30.9912 17.5579C31.561 17.9971 32.2714 18.8804 32.2714 20.5239Z" fill="black"/>
<path d="M30.873 37.6391C30.873 37.6391 30.2708 39.2975 32.4231 40.044C32.4231 40.044 33.1261 39.0114 32.4231 38.1666C31.7202 37.3219 30.873 37.6391 30.873 37.6391Z" fill="#14279B"/>
<path opacity="0.7" d="M30.873 37.6391C30.873 37.6391 30.2708 39.2975 32.4231 40.044C32.4231 40.044 33.1261 39.0114 32.4231 38.1666C31.7202 37.3219 30.873 37.6391 30.873 37.6391Z" fill="black"/>
<path d="M31.6281 37.715C31.6281 37.715 29.5256 38.4851 29.5368 38.7837C29.548 39.0823 30.4301 38.8783 30.4301 38.8783L30.1078 39.0898C29.7685 39.3112 29.5057 39.6318 29.3552 40.0079C29.3223 40.0909 29.3212 40.183 29.3519 40.2668C29.3827 40.3505 29.4432 40.42 29.5219 40.462L30.3206 40.885C30.3657 40.909 30.4151 40.9236 30.466 40.9281C30.5169 40.9326 30.5681 40.9268 30.6167 40.9112C30.6653 40.8955 30.7103 40.8703 30.7489 40.8369C30.7876 40.8036 30.8192 40.7628 30.8419 40.7171C30.8864 40.6291 30.9479 40.5508 31.0229 40.4868C31.0978 40.4227 31.1847 40.3741 31.2786 40.3438C31.7127 40.1995 32.5227 39.784 32.8474 38.6469L31.6281 37.715Z" fill="#945959"/>
<path d="M32.2589 27.0318C32.2589 27.0318 31.1392 27.6539 31.7339 29.5424C32.3286 31.431 33.4446 34.3609 33.4446 34.3609L30.873 37.6391C31.1477 37.6723 31.4124 37.763 31.6497 37.9053C31.887 38.0476 32.0916 38.2384 32.2502 38.4652C32.4021 38.6958 32.497 38.9592 32.5271 39.2337C32.5572 39.5082 32.5215 39.786 32.4231 40.044L35.6155 35.9384C35.9108 35.559 36.1068 35.112 36.1858 34.6378C36.2649 34.1636 36.2245 33.6772 36.0684 33.2225L34.6999 29.2264C34.5326 28.7383 34.2546 28.2955 33.8877 27.9327C33.5208 27.5698 33.0749 27.2969 32.5849 27.1351L32.2589 27.0318Z" fill="#14279B"/>
<path d="M13.3583 15.8758L8.41048 13.0144C8.35354 12.9749 8.28766 12.9502 8.2188 12.9426C8.14994 12.935 8.08027 12.9447 8.01609 12.9708C8.00257 12.9771 7.98965 12.9846 7.97752 12.9932L6.90137 13.624H6.90883C6.77322 13.7011 6.68738 13.8803 6.68738 14.1365V19.6405C6.68738 20.1058 6.96979 20.647 7.31939 20.8485L12.2672 23.71C12.33 23.7554 12.4047 23.7814 12.4821 23.7847C12.5596 23.788 12.6362 23.7685 12.7027 23.7287C12.6993 23.73 12.6963 23.7321 12.694 23.7349L13.7627 23.1128C13.902 23.0382 13.9903 22.8565 13.9903 22.5965V17.0839C13.9903 16.6186 13.7129 16.0774 13.3583 15.8758Z" fill="#14279B"/>
<path d="M13.8137 16.3971C13.7136 16.1842 13.5558 16.0036 13.3583 15.8758L8.41048 13.0144C8.35354 12.9749 8.28766 12.9502 8.2188 12.9426C8.14994 12.935 8.08027 12.9447 8.01609 12.9708C8.00257 12.9771 7.98966 12.9846 7.97753 12.9932L6.90137 13.624C6.9672 13.5903 7.04101 13.5754 7.11474 13.5809C7.18847 13.5864 7.25926 13.6121 7.31939 13.6551L12.2672 16.5165C12.4715 16.6501 12.6333 16.8391 12.7338 17.0615L13.8137 16.3971Z" fill="#14279B"/>
<path d="M12.8992 23.2261C12.8992 23.4749 12.8196 23.6478 12.694 23.7237L13.7626 23.1017C13.902 23.027 13.9903 22.8454 13.9903 22.5853V17.0839C13.9851 16.8444 13.9246 16.6094 13.8137 16.3971L12.7338 17.0615C12.8374 17.2675 12.894 17.494 12.8992 17.7246V23.2261Z" fill="#14279B"/>
<path opacity="0.3" d="M13.8137 16.3971C13.7136 16.1842 13.5558 16.0036 13.3583 15.8758L8.41048 13.0144C8.35354 12.9749 8.28766 12.9502 8.2188 12.9426C8.14994 12.935 8.08027 12.9447 8.01609 12.9708C8.00257 12.9771 7.98966 12.9846 7.97753 12.9932L6.90137 13.624C6.9672 13.5903 7.04101 13.5754 7.11474 13.5809C7.18847 13.5864 7.25926 13.6121 7.31939 13.6551L12.2672 16.5165C12.4715 16.6501 12.6333 16.8391 12.7338 17.0615L13.8137 16.3971Z" fill="black"/>
<path opacity="0.6" d="M12.8992 23.2261C12.8992 23.4749 12.8196 23.6478 12.694 23.7237L13.7626 23.1017C13.902 23.027 13.9903 22.8454 13.9903 22.5853V17.0839C13.9851 16.8444 13.9246 16.6094 13.8137 16.3971L12.7338 17.0615C12.8374 17.2675 12.894 17.494 12.8992 17.7246V23.2261Z" fill="black"/>
<path d="M11.4486 19.3009C11.4486 20.0137 11.1662 20.2563 10.7432 20.0113C10.6265 19.9448 10.5245 19.8555 10.4432 19.7486C10.362 19.6417 10.3032 19.5194 10.2704 19.3892C10.146 19.5422 9.95318 19.5522 9.68196 19.3954C9.23657 19.1379 8.88573 18.5245 8.88573 17.9286C8.88573 17.3327 9.23284 17.1274 9.68196 17.3862C9.90986 17.5205 10.094 17.718 10.212 17.9547V17.7196L10.681 17.9908V19.2797C10.674 19.3475 10.6857 19.416 10.7149 19.4776C10.7441 19.5393 10.7896 19.5917 10.8465 19.6293C11.0045 19.7214 11.1015 19.5659 11.1015 19.1043C11.1015 18.2969 10.5839 17.4409 9.81881 16.9993C9.05368 16.5576 8.53738 16.8649 8.53738 17.696C8.5474 18.137 8.66892 18.5682 8.89059 18.9496C9.11227 19.3309 9.42689 19.6499 9.80513 19.8769C10.0105 20.0034 10.2437 20.0777 10.4844 20.0934L10.5951 20.5226C10.3149 20.5 10.044 20.4108 9.80513 20.2626C8.80984 19.6865 8.1517 18.527 8.1517 17.477C8.1517 16.427 8.81606 16.0463 9.81881 16.626C10.788 17.1846 11.4486 18.3031 11.4486 19.3009ZM10.2194 18.7025C10.2218 18.5447 10.1833 18.389 10.1077 18.2505C10.032 18.1121 9.92179 17.9956 9.78771 17.9124C9.53889 17.7669 9.36098 17.8689 9.36098 18.2073C9.35778 18.3653 9.39537 18.5215 9.47012 18.6607C9.54487 18.8 9.65425 18.9176 9.78771 19.0023C10.0365 19.1429 10.2194 19.052 10.2194 18.7025Z" fill="#14279B"/>
<g opacity="0.9">
<path opacity="0.9" d="M11.4486 19.3009C11.4486 20.0137 11.1662 20.2563 10.7432 20.0113C10.6265 19.9448 10.5245 19.8555 10.4432 19.7486C10.362 19.6417 10.3032 19.5194 10.2704 19.3892C10.146 19.5422 9.95318 19.5522 9.68196 19.3954C9.23657 19.1379 8.88573 18.5245 8.88573 17.9286C8.88573 17.3327 9.23284 17.1274 9.68196 17.3862C9.90986 17.5205 10.094 17.718 10.212 17.9547V17.7196L10.681 17.9908V19.2797C10.674 19.3475 10.6857 19.416 10.7149 19.4776C10.7441 19.5393 10.7896 19.5917 10.8465 19.6293C11.0045 19.7214 11.1015 19.5659 11.1015 19.1043C11.1015 18.2969 10.5839 17.4409 9.81881 16.9993C9.05368 16.5576 8.53738 16.8649 8.53738 17.696C8.5474 18.137 8.66892 18.5682 8.89059 18.9496C9.11227 19.3309 9.42689 19.6499 9.80513 19.8769C10.0105 20.0034 10.2437 20.0777 10.4844 20.0934L10.5951 20.5226C10.3149 20.5 10.044 20.4108 9.80513 20.2626C8.80984 19.6865 8.1517 18.527 8.1517 17.477C8.1517 16.427 8.81606 16.0463 9.81881 16.626C10.788 17.1846 11.4486 18.3031 11.4486 19.3009ZM10.2194 18.7025C10.2218 18.5447 10.1833 18.389 10.1077 18.2505C10.032 18.1121 9.92179 17.9956 9.78771 17.9124C9.53889 17.7669 9.36098 17.8689 9.36098 18.2073C9.35778 18.3653 9.39537 18.5215 9.47012 18.6607C9.54487 18.8 9.65425 18.9176 9.78771 19.0023C10.0365 19.1429 10.2194 19.052 10.2194 18.7025Z" fill="white"/>
</g>
<path d="M13.3583 25.677L8.41048 22.8155C8.35362 22.7758 8.28766 22.7511 8.21871 22.7437C8.14977 22.7363 8.08007 22.7465 8.01609 22.7732C8.00257 22.7794 7.98965 22.7869 7.97752 22.7956L6.90137 23.4264H6.90883C6.77322 23.5035 6.68738 23.6827 6.68738 23.9377V29.4392C6.68738 29.9057 6.96979 30.4457 7.31939 30.6472L12.2672 33.5087C12.3299 33.5544 12.4046 33.5805 12.4821 33.5839C12.5596 33.5872 12.6363 33.5675 12.7027 33.5273L12.694 33.5348L13.7627 32.9065C13.902 32.8331 13.9903 32.6577 13.9903 32.3902V26.8838C13.9903 26.4185 13.7129 25.8785 13.3583 25.677Z" fill="#14279B"/>
<path d="M13.8137 26.1983C13.7139 25.9851 13.5561 25.8045 13.3583 25.677L8.41048 22.8155C8.35362 22.7758 8.28766 22.7511 8.21871 22.7437C8.14977 22.7363 8.08008 22.7465 8.01609 22.7732C8.00257 22.7794 7.98966 22.7869 7.97753 22.7956L6.90137 23.4264C6.96705 23.3924 7.04082 23.3772 7.11458 23.3825C7.18833 23.3878 7.2592 23.4133 7.31939 23.4562L12.2672 26.3177C12.4718 26.4514 12.6337 26.6409 12.7338 26.8639L13.8137 26.1983Z" fill="#14279B"/>
<path d="M12.8992 33.0259C12.8992 33.2747 12.8196 33.4477 12.694 33.5298L13.7626 32.9015C13.902 32.8281 13.9903 32.6527 13.9903 32.3852V26.8837C13.985 26.6447 13.9246 26.41 13.8137 26.1982L12.7338 26.8626C12.8374 27.0682 12.894 27.2943 12.8992 27.5244V33.0259Z" fill="#14279B"/>
<path opacity="0.3" d="M13.8137 26.1983C13.7139 25.9851 13.5561 25.8045 13.3583 25.677L8.41048 22.8155C8.35362 22.7758 8.28766 22.7511 8.21871 22.7437C8.14977 22.7363 8.08008 22.7465 8.01609 22.7732C8.00257 22.7794 7.98966 22.7869 7.97753 22.7956L6.90137 23.4264C6.96705 23.3924 7.04082 23.3772 7.11458 23.3825C7.18833 23.3878 7.2592 23.4133 7.31939 23.4562L12.2672 26.3177C12.4718 26.4514 12.6337 26.6409 12.7338 26.8639L13.8137 26.1983Z" fill="black"/>
<path opacity="0.6" d="M12.8992 33.0259C12.8992 33.2747 12.8196 33.4477 12.694 33.5298L13.7626 32.9015C13.902 32.8281 13.9903 32.6527 13.9903 32.3852V26.8837C13.985 26.6447 13.9246 26.41 13.8137 26.1982L12.7338 26.8626C12.8374 27.0682 12.894 27.2943 12.8992 27.5244V33.0259Z" fill="black"/>
<path d="M9.2403 28.1365L8.0472 26.1982V28.8245L9.2403 28.1365Z" fill="#14279B"/>
<path d="M10.3488 28.6952L11.5394 30.7567V28.1341L10.3488 28.6952Z" fill="#14279B"/>
<path d="M8.2276 26.1099L9.45305 28.1005C9.45824 28.1048 9.46284 28.1099 9.46674 28.1154C9.46782 28.1203 9.46782 28.1254 9.46674 28.1303L9.83126 28.7225L10.1398 28.577C10.1446 28.5718 10.15 28.5672 10.156 28.5633C10.1681 28.5562 10.1817 28.5519 10.1958 28.5508L11.4399 27.9674L8.2276 26.1099Z" fill="#14279B"/>
<path d="M10.1684 28.7798L9.83499 28.9366C9.82214 28.9425 9.8081 28.9455 9.79393 28.9453C9.77676 28.9455 9.75983 28.9412 9.74479 28.9329C9.72975 28.9246 9.71711 28.9126 9.70809 28.898L9.34357 28.3058L8.14673 28.9975L11.3677 30.8562L10.1684 28.7798Z" fill="#14279B"/>
<g opacity="0.9">
<path opacity="0.9" d="M9.2403 28.1365L8.0472 26.1982V28.8245L9.2403 28.1365Z" fill="white"/>
<path opacity="0.9" d="M10.3488 28.6952L11.5394 30.7567V28.1341L10.3488 28.6952Z" fill="white"/>
<path opacity="0.9" d="M8.22758 26.1099L9.45304 28.1005C9.45823 28.1048 9.46283 28.1099 9.46672 28.1154C9.4678 28.1203 9.4678 28.1254 9.46672 28.1303L9.83125 28.7225L10.1398 28.577C10.1446 28.5718 10.15 28.5672 10.156 28.5633C10.1681 28.5562 10.1817 28.5519 10.1958 28.5508L11.4399 27.9674L8.22758 26.1099Z" fill="white"/>
<path opacity="0.9" d="M10.1684 28.7798L9.83499 28.9366C9.82214 28.9425 9.8081 28.9455 9.79393 28.9453C9.77676 28.9455 9.75983 28.9412 9.74479 28.9329C9.72975 28.9246 9.71711 28.9126 9.70809 28.898L9.34357 28.3058L8.14673 28.9975L11.3677 30.8562L10.1684 28.7798Z" fill="white"/>
</g>
<path d="M13.3583 6.07965L8.41048 3.21818C8.35362 3.1785 8.28766 3.15382 8.21871 3.14642C8.14977 3.13903 8.08007 3.14916 8.01609 3.17588C8.00257 3.18213 7.98965 3.18963 7.97752 3.19828L6.90137 3.82904H6.90883C6.77322 3.90493 6.68738 4.08533 6.68738 4.34037V9.84185C6.68738 10.3071 6.96979 10.8483 7.31939 11.0499L12.2672 13.9113C12.3299 13.9571 12.4046 13.9832 12.4821 13.9865C12.5596 13.9899 12.6363 13.9702 12.7027 13.93L12.694 13.9362L13.7627 13.3142C13.902 13.2408 13.9903 13.0653 13.9903 12.7979V7.2827C13.9903 6.8174 13.7129 6.27622 13.3583 6.07965Z" fill="#14279B"/>
<path d="M13.8137 6.5972C13.7139 6.38374 13.5561 6.20266 13.3583 6.07467L8.41048 3.21818C8.35362 3.1785 8.28766 3.15382 8.21871 3.14642C8.14977 3.13903 8.08008 3.14916 8.01609 3.17588C8.00257 3.18213 7.98966 3.18963 7.97753 3.19828L6.90137 3.82904C6.96705 3.79508 7.04082 3.7799 7.11458 3.78516C7.18833 3.79043 7.2592 3.81595 7.31939 3.8589L12.2672 6.72036C12.4718 6.85406 12.6337 7.04361 12.7338 7.26653L13.8137 6.5972Z" fill="#14279B"/>
<path d="M12.8992 13.4199C12.8992 13.6688 12.8196 13.8417 12.694 13.9176L13.7626 13.2955C13.902 13.2221 13.9903 13.0467 13.9903 12.7792V7.28274C13.985 7.04367 13.9246 6.80906 13.8137 6.59723L12.7338 7.26159C12.8374 7.46717 12.894 7.69328 12.8992 7.92345V13.4199Z" fill="#14279B"/>
<path opacity="0.3" d="M13.8137 6.5972C13.7139 6.38374 13.5561 6.20266 13.3583 6.07467L8.41048 3.21818C8.35362 3.1785 8.28766 3.15382 8.21871 3.14642C8.14977 3.13903 8.08008 3.14916 8.01609 3.17588C8.00257 3.18213 7.98966 3.18963 7.97753 3.19828L6.90137 3.82904C6.96705 3.79508 7.04082 3.7799 7.11458 3.78516C7.18833 3.79043 7.2592 3.81595 7.31939 3.8589L12.2672 6.72036C12.4718 6.85406 12.6337 7.04361 12.7338 7.26653L13.8137 6.5972Z" fill="black"/>
<path opacity="0.6" d="M12.8992 13.4199C12.8992 13.6688 12.8196 13.8417 12.694 13.9176L13.7626 13.2955C13.902 13.2221 13.9903 13.0467 13.9903 12.7792V7.28274C13.985 7.04367 13.9246 6.80906 13.8137 6.59723L12.7338 7.26159C12.8374 7.46717 12.894 7.69328 12.8992 7.92345V13.4199Z" fill="black"/>
<path d="M11.2807 11.0561C11.0903 10.7426 10.8987 10.4341 10.7084 10.1181C10.6782 10.0582 10.636 10.0052 10.5844 9.96242C10.5328 9.91961 10.4729 9.88789 10.4085 9.86925C10.3165 9.85059 10.2244 9.82944 10.1298 9.80207C10.0962 9.78803 10.0678 9.76362 10.049 9.7324C9.7375 9.19931 9.48988 8.6314 9.31122 8.0404C9.30742 8.02777 9.30634 8.01447 9.30806 8.00139C9.30977 7.98831 9.31424 7.97574 9.32117 7.96451C9.37965 7.90604 9.44559 7.85254 9.5053 7.80029C9.56502 7.74804 9.59612 7.62736 9.55258 7.4706C9.46051 7.13842 9.37218 6.80624 9.28012 6.47531C9.2623 6.38128 9.22004 6.2936 9.15758 6.22109C9.09511 6.14858 9.01466 6.0938 8.9243 6.06226C8.72367 6.00648 8.51068 6.01431 8.31469 6.08466C8.23879 6.11327 8.19898 6.1817 8.19774 6.29989C8.23009 6.52756 8.25124 6.75274 8.29478 6.98415C8.60166 8.65292 9.33984 10.1873 10.5093 11.5874C10.5398 11.6338 10.5809 11.6724 10.629 11.7001C10.6772 11.7277 10.7313 11.7437 10.7867 11.7466C10.9804 11.742 11.1664 11.6703 11.313 11.5438C11.4237 11.4443 11.4125 11.2676 11.2807 11.0561Z" fill="#14279B"/>
<path d="M11.2657 9.36037C11.2397 9.00252 11.1411 8.65371 10.9758 8.33522C10.8525 8.08642 10.6955 7.85575 10.5093 7.64972C10.4608 7.59497 10.4197 7.57756 10.3948 7.61861C10.37 7.65967 10.3948 7.71814 10.4421 7.77164L10.4906 7.82762C10.8345 8.22456 11.0512 8.71564 11.1127 9.2372C11.1121 9.27525 11.1158 9.31323 11.1239 9.35042C11.1395 9.39321 11.1646 9.43191 11.1973 9.46363C11.2234 9.48229 11.2533 9.46363 11.2744 9.46363C11.267 9.41262 11.2682 9.3865 11.2657 9.36037Z" fill="#14279B"/>
<path d="M10.1386 8.33898C10.2948 8.51082 10.3897 8.72955 10.4085 8.96104C10.4167 8.99623 10.4297 9.03014 10.4471 9.06181C10.523 9.12401 10.5603 9.10286 10.5603 9.02448C10.5337 8.72769 10.411 8.44768 10.2107 8.22701C10.1634 8.17849 10.1249 8.16356 10.1025 8.20461C10.0944 8.22806 10.0935 8.25337 10.1 8.27731C10.1064 8.30125 10.1198 8.32272 10.1386 8.33898Z" fill="#14279B"/>
<g opacity="0.9">
<path opacity="0.9" d="M11.2807 11.0561C11.0903 10.7426 10.8987 10.4341 10.7084 10.1181C10.6782 10.0582 10.636 10.0052 10.5844 9.96242C10.5328 9.91961 10.4729 9.88789 10.4085 9.86925C10.3165 9.85059 10.2244 9.82944 10.1298 9.80207C10.0962 9.78803 10.0678 9.76362 10.049 9.7324C9.7375 9.19931 9.48988 8.6314 9.31122 8.0404C9.30742 8.02777 9.30634 8.01447 9.30806 8.00139C9.30977 7.98831 9.31424 7.97574 9.32117 7.96451C9.37965 7.90604 9.44559 7.85254 9.5053 7.80029C9.56502 7.74804 9.59612 7.62736 9.55258 7.4706C9.46051 7.13842 9.37218 6.80624 9.28012 6.47531C9.2623 6.38128 9.22004 6.2936 9.15758 6.22109C9.09511 6.14858 9.01466 6.0938 8.9243 6.06226C8.72367 6.00648 8.51068 6.01431 8.31469 6.08466C8.23879 6.11327 8.19898 6.1817 8.19774 6.29989C8.23009 6.52756 8.25124 6.75274 8.29478 6.98415C8.60166 8.65292 9.33984 10.1873 10.5093 11.5874C10.5398 11.6338 10.5809 11.6724 10.629 11.7001C10.6772 11.7277 10.7313 11.7437 10.7867 11.7466C10.9804 11.742 11.1664 11.6703 11.313 11.5438C11.4237 11.4443 11.4125 11.2676 11.2807 11.0561Z" fill="white"/>
<path opacity="0.9" d="M11.2657 9.36037C11.2397 9.00252 11.1411 8.65371 10.9759 8.33522C10.8525 8.08642 10.6955 7.85575 10.5093 7.64972C10.4608 7.59497 10.4197 7.57756 10.3949 7.61861C10.37 7.65967 10.3948 7.71814 10.4421 7.77164L10.4906 7.82762C10.8345 8.22456 11.0512 8.71564 11.1127 9.2372C11.1121 9.27525 11.1159 9.31323 11.1239 9.35042C11.1395 9.39321 11.1646 9.43191 11.1973 9.46363C11.2234 9.48229 11.2533 9.46363 11.2744 9.46363C11.267 9.41262 11.2682 9.3865 11.2657 9.36037Z" fill="white"/>
<path opacity="0.9" d="M10.1386 8.33895C10.2948 8.51079 10.3897 8.72952 10.4085 8.961C10.4167 8.9962 10.4297 9.03011 10.4471 9.06178C10.523 9.12398 10.5603 9.10283 10.5603 9.02445C10.5337 8.72766 10.411 8.44765 10.2107 8.22698C10.1634 8.17846 10.1249 8.16353 10.1025 8.20458C10.0944 8.22803 10.0935 8.25334 10.1 8.27728C10.1064 8.30122 10.1198 8.32269 10.1386 8.33895Z" fill="white"/>
</g>
<path d="M38.7445 2.78025L39.9102 3.44336V3.03032C39.9102 3.0017 39.9102 2.97185 39.9102 2.94323C39.9102 2.91462 39.9102 2.88725 39.9102 2.85987V2.84495C39.9525 2.29878 40.3668 2.08852 40.8719 2.38089C41.1006 2.52154 41.2966 2.70946 41.4467 2.93203C41.5599 2.18557 42.1658 1.92181 42.8986 2.34357C43.7122 2.81384 44.3716 3.96092 44.3716 4.89649V5.77981C44.3704 5.85047 44.3879 5.92019 44.4221 5.98199C44.4564 6.04378 44.5064 6.09548 44.5669 6.13189L45.2537 6.53374C45.4019 6.62162 45.5247 6.74646 45.6102 6.89607C45.6957 7.04567 45.7409 7.2149 45.7414 7.38721C45.7414 7.45869 45.7226 7.52892 45.6868 7.59082C45.6511 7.65272 45.5996 7.7041 45.5377 7.7398C45.4758 7.7755 45.4055 7.79424 45.334 7.79415C45.2625 7.79406 45.1923 7.77514 45.1305 7.73929L38.7619 4.05796C38.5929 3.95984 38.4526 3.81922 38.3548 3.65007C38.257 3.48093 38.2052 3.28914 38.2045 3.09377C38.2045 3.03053 38.221 2.96838 38.2525 2.91356C38.2841 2.85874 38.3295 2.81317 38.3841 2.78141C38.4388 2.74966 38.5009 2.73284 38.5641 2.73263C38.6274 2.73243 38.6896 2.74885 38.7445 2.78025Z" fill="#E6E6E6"/>
<path d="M47.6312 2.60733L48.4784 3.09378V2.79022C48.4784 2.76907 48.4784 2.74792 48.4784 2.72677C48.4784 2.70562 48.4784 2.68571 48.4784 2.66581V2.65834C48.5095 2.26147 48.8106 2.10844 49.1776 2.32119C49.3438 2.42302 49.4863 2.55918 49.5956 2.72055C49.679 2.1806 50.1194 1.98528 50.6519 2.29257C51.2441 2.6347 51.7231 3.46577 51.7231 4.14879V4.792C51.7235 4.84242 51.737 4.89186 51.7623 4.93548C51.7876 4.97909 51.8238 5.01539 51.8674 5.04082L52.365 5.33319C52.4733 5.39687 52.563 5.48781 52.6252 5.59695C52.6874 5.70609 52.72 5.82962 52.7196 5.95524C52.7195 6.00669 52.706 6.05724 52.6805 6.10189C52.6549 6.14654 52.6181 6.18376 52.5738 6.20989C52.5295 6.23601 52.4791 6.25012 52.4277 6.25085C52.3762 6.25157 52.3255 6.23888 52.2804 6.21402L47.6436 3.53668C47.5207 3.4656 47.4187 3.36348 47.3478 3.24055C47.2768 3.11762 47.2394 2.97819 47.2393 2.83625C47.2392 2.79031 47.2512 2.74515 47.274 2.70528C47.2968 2.66542 47.3297 2.63224 47.3694 2.60907C47.409 2.5859 47.4541 2.57354 47.5 2.57324C47.546 2.57293 47.5912 2.58469 47.6312 2.60733Z" fill="#E6E6E6"/>
<defs>
<filter id="filter0_d" x="0.375824" y="29.1468" width="57.0305" height="35.8532" filterUnits="userSpaceOnUse" color-interpolation-filters="sRGB">
<feFlood flood-opacity="0" result="BackgroundImageFix"/>
<feColorMatrix in="SourceAlpha" type="matrix" values="0 0 0 0 0 0 0 0 0 0 0 0 0 0 0 0 0 0 127 0" result="hardAlpha"/>
<feOffset dy="4"/>
<feGaussianBlur stdDeviation="2"/>
<feComposite in2="hardAlpha" operator="out"/>
<feColorMatrix type="matrix" values="0 0 0 0 0 0 0 0 0 0 0 0 0 0 0 0 0 0 0.25 0"/>
<feBlend mode="normal" in2="BackgroundImageFix" result="effect1_dropShadow"/>
<feBlend mode="normal" in="SourceGraphic" in2="effect1_dropShadow" result="shape"/>
</filter>
</defs>
</svg>
