<svg width="73" height="75" viewBox="0 0 73 75" fill="none" xmlns="http://www.w3.org/2000/svg">
<path d="M57.7653 12.6961L68.7077 12.6794C68.7077 12.6794 68.1633 11.986 67.5632 11.8995C67.5632 11.8995 66.3908 8.49452 64.4374 8.47328C62.6217 8.45356 61.8979 10.5718 61.8979 10.5718C61.8979 10.5718 61.0488 9.62345 60.2399 10.0559C59.431 10.4883 58.9825 11.7356 58.9825 11.7356C58.9825 11.7356 58.0855 12.2181 57.7653 12.6961Z" fill="#EBEBEB"/>
<path d="M18.5986 15.7308L4.76092 15.7505C4.76092 15.7505 4.76092 14.8841 6.66481 14.7111C6.66481 14.7111 8.40013 10.9177 11.0588 11.423C12.7137 11.7371 13.5628 13.9646 13.5628 13.9646C13.5628 13.9646 14.8109 12.209 15.8116 12.5474C16.8122 12.8857 17.4092 14.7597 17.4092 14.7597C17.4092 14.7597 18.4408 15.2407 18.5986 15.7308Z" fill="#EBEBEB"/>
<path d="M20.8783 28.7195L11.4686 28.7332C11.4686 28.7332 12.3548 27.9214 12.7508 27.9214C13.1467 27.9214 14.2974 25.1901 15.7636 25.31C17.2298 25.4299 18.017 27.4434 18.017 27.4434C18.017 27.4434 19.808 26.8987 20.8783 28.7195Z" fill="#EBEBEB"/>
<path d="M22.2795 5.2716L14.2371 5.28374C14.2371 5.28374 14.6361 4.77087 15.0769 4.70714C15.0769 4.70714 15.9306 2.20045 17.3675 2.18073C18.7022 2.161 19.2404 3.71782 19.2404 3.71782C19.2404 3.71782 19.8591 3.01831 20.4483 3.33696C21.0376 3.65561 21.3763 4.56906 21.3763 4.56906C21.3763 4.56906 22.0383 4.91957 22.2795 5.2716Z" fill="#EBEBEB"/>
<path d="M63.3625 24.3768L55.3201 24.389C55.3201 24.389 55.7191 23.8776 56.1615 23.8124C56.1615 23.8124 57.0152 21.3057 58.4505 21.286C59.7868 21.2677 60.3234 22.8246 60.3234 22.8246C60.3234 22.8246 60.9421 22.1251 61.5329 22.4437C62.1237 22.7624 62.4609 23.6758 62.4609 23.6758C62.4609 23.6758 63.1213 24.0263 63.3625 24.3768Z" fill="#EBEBEB"/>
<path d="M67.9467 25.2553V54.2385H5.51569V37.4231H10.932V43.8765H12.327V40.2242H19.2126V46.0084H20.1251V23.1765H26.1105V36.1576H29.179V40.7947H30.1086V37.8798H35.5496V46.5789H37.1411V39.508H42.1181V34.1334H45.5006V31.0744H49.4151V44.6458H50.7328V29.724H57.1807V37.8313H58.0715V31.214H64.6107V25.2553H67.9467Z" fill="#EBEBEB"/>
<path d="M7.09633 39.4685H6.18073V38.2349H7.09633V39.4685Z" fill="white"/>
<path d="M8.68471 39.4685H7.7691V38.2349H8.68471V39.4685Z" fill="white"/>
<path d="M10.2716 39.4685H9.35596V38.2349H10.2716V39.4685Z" fill="white"/>
<path d="M7.09633 41.3257H6.18073V40.0921H7.09633V41.3257Z" fill="white"/>
<path d="M8.68471 41.3257H7.7691V40.0921H8.68471V41.3257Z" fill="white"/>
<path d="M10.2716 41.3257H9.35596V40.0921H10.2716V41.3257Z" fill="white"/>
<path d="M7.09633 43.1815H6.18073V41.9479H7.09633V43.1815Z" fill="white"/>
<path d="M8.68471 43.1815H7.7691V41.9479H8.68471V43.1815Z" fill="white"/>
<path d="M10.2716 43.1815H9.35596V41.9479H10.2716V43.1815Z" fill="white"/>
<path d="M7.09633 45.0372H6.18073V43.8036H7.09633V45.0372Z" fill="white"/>
<path d="M8.68471 45.0372H7.7691V43.8036H8.68471V45.0372Z" fill="white"/>
<path d="M10.2716 45.0372H9.35596V43.8036H10.2716V45.0372Z" fill="white"/>
<path d="M38.8207 41.4183H37.9051V40.3896H38.8207V41.4183Z" fill="white"/>
<path d="M40.4091 41.4183H39.4935V40.3896H40.4091V41.4183Z" fill="white"/>
<path d="M41.9974 41.4183H41.0818V40.3896H41.9974V41.4183Z" fill="white"/>
<path d="M38.8207 42.966H37.9051V41.9372H38.8207V42.966Z" fill="white"/>
<path d="M40.4091 42.966H39.4935V41.9372H40.4091V42.966Z" fill="white"/>
<path d="M41.9974 42.966H41.0818V41.9372H41.9974V42.966Z" fill="white"/>
<path d="M38.8207 44.5153H37.9051V43.4865H38.8207V44.5153Z" fill="white"/>
<path d="M40.4091 44.5153H39.4935V43.4865H40.4091V44.5153Z" fill="white"/>
<path d="M41.9974 44.5153H41.0818V43.4865H41.9974V44.5153Z" fill="white"/>
<path d="M38.8207 46.063H37.9051V45.0342H38.8207V46.063Z" fill="white"/>
<path d="M40.4091 46.063H39.4935V45.0342H40.4091V46.063Z" fill="white"/>
<path d="M41.9974 46.063H41.0818V45.0342H41.9974V46.063Z" fill="white"/>
<path d="M38.8207 47.6501H37.9051V46.6213H38.8207V47.6501Z" fill="white"/>
<path d="M40.4091 47.6501H39.4935V46.6213H40.4091V47.6501Z" fill="white"/>
<path d="M41.9974 47.6501H41.0818V46.6213H41.9974V47.6501Z" fill="white"/>
<path d="M38.8207 49.2373H37.9051V48.2085H38.8207V49.2373Z" fill="white"/>
<path d="M40.4091 49.2373H39.4935V48.2085H40.4091V49.2373Z" fill="white"/>
<path d="M41.9974 49.2373H41.0818V48.2085H41.9974V49.2373Z" fill="white"/>
<path d="M38.8207 50.8244H37.9051V49.7957H38.8207V50.8244Z" fill="white"/>
<path d="M40.4091 50.8244H39.4935V49.7957H40.4091V50.8244Z" fill="white"/>
<path d="M41.9974 50.8244H41.0818V49.7957H41.9974V50.8244Z" fill="white"/>
<path d="M38.8207 52.4116H37.9051V51.3828H38.8207V52.4116Z" fill="white"/>
<path d="M40.4091 52.4116H39.4935V51.3828H40.4091V52.4116Z" fill="white"/>
<path d="M41.9974 52.4116H41.0818V51.3828H41.9974V52.4116Z" fill="white"/>
<path d="M18.3836 41.7855H13.108V41.0132H18.3836V41.7855Z" fill="white"/>
<path d="M18.3836 43.2831H13.108V42.5108H18.3836V43.2831Z" fill="white"/>
<path d="M18.3836 44.7808H13.108V44.0085H18.3836V44.7808Z" fill="white"/>
<path d="M18.3836 46.2769H13.108V45.5046H18.3836V46.2769Z" fill="white"/>
<path d="M18.3836 47.7746H13.108V47.0037H18.3836V47.7746Z" fill="white"/>
<path d="M18.3836 49.2722H13.108V48.4998H18.3836V49.2722Z" fill="white"/>
<path d="M18.3836 50.7683H13.108V49.996H18.3836V50.7683Z" fill="white"/>
<path d="M18.3836 52.266H13.108V51.4936H18.3836V52.266Z" fill="white"/>
<path d="M56.3625 31.2155H51.5123V30.4432H56.3625V31.2155Z" fill="white"/>
<path d="M56.3625 32.7131H51.5123V31.9408H56.3625V32.7131Z" fill="white"/>
<path d="M56.3625 34.2108H51.5123V33.44H56.3625V34.2108Z" fill="white"/>
<path d="M56.3625 35.707H51.5123V34.9362H56.3625V35.707Z" fill="white"/>
<path d="M51.5123 36.4337H56.3625V37.2061H51.5123V36.4337Z" fill="white"/>
<path d="M56.3625 38.7022H51.5123V37.9299H56.3625V38.7022Z" fill="white"/>
<path d="M56.3625 40.1984H51.5123V39.426H56.3625V40.1984Z" fill="white"/>
<path d="M56.3625 41.696H51.5123V40.9236H56.3625V41.696Z" fill="white"/>
<path d="M56.3625 43.1193H51.5123V42.347H56.3625V43.1193Z" fill="white"/>
<path d="M56.3625 44.5411H51.5123V43.7688H56.3625V44.5411Z" fill="white"/>
<path d="M56.3625 45.9644H51.5123V45.192H56.3625V45.9644Z" fill="white"/>
<path d="M56.3625 47.3861H51.5123V46.6153H56.3625V47.3861Z" fill="white"/>
<path d="M64.2055 33.0242H59.0815V32.2534H64.2055V33.0242Z" fill="white"/>
<path d="M64.2055 34.5219H59.0815V33.7495H64.2055V34.5219Z" fill="white"/>
<path d="M64.2055 36.0196H59.0815V35.2487H64.2055V36.0196Z" fill="white"/>
<path d="M64.2055 37.5157H59.0815V36.7433H64.2055V37.5157Z" fill="white"/>
<path d="M64.2055 39.0133H59.0815V38.2409H64.2055V39.0133Z" fill="white"/>
<path d="M64.2055 40.5109H59.0815V39.7401H64.2055V40.5109Z" fill="white"/>
<path d="M64.2055 42.0071H59.0815V41.2363H64.2055V42.0071Z" fill="white"/>
<path d="M64.2055 43.5047H59.0815V42.7324H64.2055V43.5047Z" fill="white"/>
<path d="M64.2055 44.8445H59.0815V44.0722H64.2055V44.8445Z" fill="white"/>
<path d="M64.2055 46.1859H59.0815V45.4135H64.2055V46.1859Z" fill="white"/>
<path d="M64.2055 47.5242H59.0815V46.7518H64.2055V47.5242Z" fill="white"/>
<path d="M33.3287 39.3228H31.7001V38.5778H33.3287V39.3228Z" fill="white"/>
<path d="M33.3287 40.7689H31.7001V40.0239H33.3287V40.7689Z" fill="white"/>
<path d="M33.3287 42.2134H31.7001V41.4684H33.3287V42.2134Z" fill="white"/>
<path d="M33.3287 43.6595H31.7001V42.9144H33.3287V43.6595Z" fill="white"/>
<path d="M33.3287 45.1071H31.7001V44.362H33.3287V45.1071Z" fill="white"/>
<path d="M33.3287 46.5516H31.7001V45.8065H33.3287V46.5516Z" fill="white"/>
<path d="M33.3287 47.9976H31.7001V47.2526H33.3287V47.9976Z" fill="white"/>
<path d="M33.3287 49.4436H31.7001V48.6986H33.3287V49.4436Z" fill="white"/>
<path d="M35.5449 39.3228H33.9163V38.5778H35.5449V39.3228Z" fill="white"/>
<path d="M35.5449 40.7689H33.9163V40.0239H35.5449V40.7689Z" fill="white"/>
<path d="M35.5449 42.2134H33.9163V41.4684H35.5449V42.2134Z" fill="white"/>
<path d="M35.5449 43.6595H33.9163V42.9144H35.5449V43.6595Z" fill="white"/>
<path d="M35.5449 45.1071H33.9163V44.362H35.5449V45.1071Z" fill="white"/>
<path d="M35.5449 46.5516H33.9163V45.8065H35.5449V46.5516Z" fill="white"/>
<path d="M35.5449 47.9976H33.9163V47.2526H35.5449V47.9976Z" fill="white"/>
<path d="M35.5449 49.4436H33.9163V48.6986H35.5449V49.4436Z" fill="white"/>
<path d="M22.7296 25.1324H21.033V23.958H22.7296V25.1324Z" fill="white"/>
<path d="M25.2599 25.1324H23.5633V23.958H25.2599V25.1324Z" fill="white"/>
<path d="M22.7296 26.8576H21.033V25.6832H22.7296V26.8576Z" fill="white"/>
<path d="M25.2599 26.8576H23.5633V25.6832H25.2599V26.8576Z" fill="white"/>
<path d="M22.7296 28.5844H21.033V27.41H22.7296V28.5844Z" fill="white"/>
<path d="M25.2599 28.5844H23.5633V27.41H25.2599V28.5844Z" fill="white"/>
<path d="M22.7296 30.3112H21.033V29.1367H22.7296V30.3112Z" fill="white"/>
<path d="M25.2599 30.3112H23.5633V29.1367H25.2599V30.3112Z" fill="white"/>
<path d="M22.7296 32.0364H21.033V30.862H22.7296V32.0364Z" fill="white"/>
<path d="M25.2599 32.0364H23.5633V30.862H25.2599V32.0364Z" fill="white"/>
<path d="M22.7296 33.7633H21.033V32.5888H22.7296V33.7633Z" fill="white"/>
<path d="M25.2599 33.7633H23.5633V32.5888H25.2599V33.7633Z" fill="white"/>
<path d="M22.7296 35.49H21.033V34.3155H22.7296V35.49Z" fill="white"/>
<path d="M25.2599 35.49H23.5633V34.3155H25.2599V35.49Z" fill="white"/>
<path d="M22.7296 37.2152H21.033V36.0407H22.7296V37.2152Z" fill="white"/>
<path d="M25.2599 37.2152H23.5633V36.0407H25.2599V37.2152Z" fill="white"/>
<path d="M28.3949 37.8419H26.6982V36.6674H28.3949V37.8419Z" fill="white"/>
<path d="M28.3949 39.5671H26.6982V38.3927H28.3949V39.5671Z" fill="white"/>
<path d="M28.3949 41.2938H26.6982V40.1194H28.3949V41.2938Z" fill="white"/>
<path d="M28.3949 43.0207H26.6982V41.8463H28.3949V43.0207Z" fill="white"/>
<path d="M28.3949 44.7458H26.6982V43.5714H28.3949V44.7458Z" fill="white"/>
<path d="M28.3949 46.4726H26.6982V45.2982H28.3949V46.4726Z" fill="white"/>
<path d="M22.7296 38.9207H21.033V37.7463H22.7296V38.9207Z" fill="white"/>
<path d="M25.2599 38.9207H23.5633V37.7463H25.2599V38.9207Z" fill="white"/>
<path d="M28.3949 48.1767H26.6982V47.0023H28.3949V48.1767Z" fill="white"/>
<path d="M22.7296 40.6263H21.033V39.4518H22.7296V40.6263Z" fill="white"/>
<path d="M25.2599 40.6263H23.5633V39.4518H25.2599V40.6263Z" fill="white"/>
<path d="M28.3949 49.8837H26.6982V48.7093H28.3949V49.8837Z" fill="white"/>
<path d="M22.7296 42.3318H21.033V41.1573H22.7296V42.3318Z" fill="white"/>
<path d="M25.2599 42.3318H23.5633V41.1573H25.2599V42.3318Z" fill="white"/>
<path d="M28.3949 51.5892H26.6982V50.4148H28.3949V51.5892Z" fill="white"/>
<path d="M22.7296 44.0373H21.033V42.8628H22.7296V44.0373Z" fill="white"/>
<path d="M25.2599 44.0373H23.5633V42.8628H25.2599V44.0373Z" fill="white"/>
<path d="M22.7296 45.7428H21.033V44.5684H22.7296V45.7428Z" fill="white"/>
<path d="M25.2599 45.7428H23.5633V44.5684H25.2599V45.7428Z" fill="white"/>
<path d="M43.725 35.9209H42.8094V34.8921H43.725V35.9209Z" fill="white"/>
<path d="M45.3134 35.9209H44.3978V34.8921H45.3134V35.9209Z" fill="white"/>
<path d="M43.725 37.4686H42.8094V36.4398H43.725V37.4686Z" fill="white"/>
<path d="M45.3134 37.4686H44.3978V36.4398H45.3134V37.4686Z" fill="white"/>
<path d="M43.725 39.0179H42.8094V37.9891H43.725V39.0179Z" fill="white"/>
<path d="M45.3134 39.0179H44.3978V37.9891H45.3134V39.0179Z" fill="white"/>
<path d="M43.725 40.567H42.8094V39.5383H43.725V40.567Z" fill="white"/>
<path d="M45.3134 40.567H44.3978V39.5383H45.3134V40.567Z" fill="white"/>
<path d="M43.725 42.1543H42.8094V41.1255H43.725V42.1543Z" fill="white"/>
<path d="M45.3134 42.1543H44.3978V41.1255H45.3134V42.1543Z" fill="white"/>
<path d="M43.725 43.7399H42.8094V42.7111H43.725V43.7399Z" fill="white"/>
<path d="M45.3134 43.7399H44.3978V42.7111H45.3134V43.7399Z" fill="white"/>
<path d="M43.725 45.327H42.8094V44.2982H43.725V45.327Z" fill="white"/>
<path d="M45.3134 45.327H44.3978V44.2982H45.3134V45.327Z" fill="white"/>
<path d="M43.725 46.9142H42.8094V45.8854H43.725V46.9142Z" fill="white"/>
<path d="M45.3134 46.9142H44.3978V45.8854H45.3134V46.9142Z" fill="white"/>
<path d="M43.725 48.5181H42.8094V47.4893H43.725V48.5181Z" fill="white"/>
<path d="M45.3134 48.5181H44.3978V47.4893H45.3134V48.5181Z" fill="white"/>
<path d="M43.725 50.1219H42.8094V49.0931H43.725V50.1219Z" fill="white"/>
<path d="M45.3134 50.1219H44.3978V49.0931H45.3134V50.1219Z" fill="white"/>
<path d="M43.725 51.7258H42.8094V50.6971H43.725V51.7258Z" fill="white"/>
<path d="M45.3134 51.7258H44.3978V50.6971H45.3134V51.7258Z" fill="white"/>
<path d="M66.1016 27.014H65.186V25.8016H66.1016V27.014Z" fill="white"/>
<path d="M67.6915 27.014H66.7744V25.8016H67.6915V27.014Z" fill="white"/>
<path d="M66.1016 28.8394H65.186V27.627H66.1016V28.8394Z" fill="white"/>
<path d="M67.6915 28.8394H66.7744V27.627H67.6915V28.8394Z" fill="white"/>
<path d="M66.1016 30.6632H65.186V29.4508H66.1016V30.6632Z" fill="white"/>
<path d="M67.6915 30.6632H66.7744V29.4508H67.6915V30.6632Z" fill="white"/>
<path d="M66.1016 32.4871H65.186V31.2747H66.1016V32.4871Z" fill="white"/>
<path d="M67.6915 32.4871H66.7744V31.2747H67.6915V32.4871Z" fill="white"/>
<path d="M66.1016 34.358H65.186V33.1457H66.1016V34.358Z" fill="white"/>
<path d="M67.6915 34.358H66.7744V33.1457H67.6915V34.358Z" fill="white"/>
<path d="M66.1016 36.2259H65.186V35.0135H66.1016V36.2259Z" fill="white"/>
<path d="M67.6915 36.2259H66.7744V35.0135H67.6915V36.2259Z" fill="white"/>
<path d="M66.1016 38.0969H65.186V36.8845H66.1016V38.0969Z" fill="white"/>
<path d="M67.6915 38.0969H66.7744V36.8845H67.6915V38.0969Z" fill="white"/>
<path d="M66.1016 39.9662H65.186V38.7538H66.1016V39.9662Z" fill="white"/>
<path d="M67.6915 39.9662H66.7744V38.7538H67.6915V39.9662Z" fill="white"/>
<path d="M66.1016 41.8553H65.186V40.6429H66.1016V41.8553Z" fill="white"/>
<path d="M67.6915 41.8553H66.7744V40.6429H67.6915V41.8553Z" fill="white"/>
<path d="M66.1016 43.746H65.186V42.5336H66.1016V43.746Z" fill="white"/>
<path d="M67.6915 43.746H66.7744V42.5336H67.6915V43.746Z" fill="white"/>
<path d="M66.1016 45.6351H65.186V44.4227H66.1016V45.6351Z" fill="white"/>
<path d="M67.6915 45.6351H66.7744V44.4227H67.6915V45.6351Z" fill="white"/>
<path d="M66.1016 47.5242H65.186V46.3118H66.1016V47.5242Z" fill="white"/>
<path d="M67.6915 47.5242H66.7744V46.3118H67.6915V47.5242Z" fill="white"/>
<path d="M47.1214 35.9209H46.2058V34.8921H47.1214V35.9209Z" fill="white"/>
<path d="M48.7098 35.9209H47.7942V34.8921H48.7098V35.9209Z" fill="white"/>
<path d="M47.1214 34.3322H46.2058V33.3035H47.1214V34.3322Z" fill="white"/>
<path d="M48.7098 34.3322H47.7942V33.3035H48.7098V34.3322Z" fill="white"/>
<path d="M47.1214 32.745H46.2058V31.7163H47.1214V32.745Z" fill="white"/>
<path d="M48.7098 32.745H47.7942V31.7163H48.7098V32.745Z" fill="white"/>
<path d="M47.1214 37.4686H46.2058V36.4398H47.1214V37.4686Z" fill="white"/>
<path d="M48.7098 37.4686H47.7942V36.4398H48.7098V37.4686Z" fill="white"/>
<path d="M47.1214 39.0179H46.2058V37.9891H47.1214V39.0179Z" fill="white"/>
<path d="M48.7098 39.0179H47.7942V37.9891H48.7098V39.0179Z" fill="white"/>
<path d="M47.1214 40.567H46.2058V39.5383H47.1214V40.567Z" fill="white"/>
<path d="M48.7098 40.567H47.7942V39.5383H48.7098V40.567Z" fill="white"/>
<path d="M47.1214 42.1543H46.2058V41.1255H47.1214V42.1543Z" fill="white"/>
<path d="M48.7098 42.1543H47.7942V41.1255H48.7098V42.1543Z" fill="white"/>
<path d="M47.1214 43.7399H46.2058V42.7111H47.1214V43.7399Z" fill="white"/>
<path d="M48.7098 43.7399H47.7942V42.7111H48.7098V43.7399Z" fill="white"/>
<path d="M47.1214 45.327H46.2058V44.2982H47.1214V45.327Z" fill="white"/>
<path d="M48.7098 45.327H47.7942V44.2982H48.7098V45.327Z" fill="white"/>
<path d="M47.1214 46.9142H46.2058V45.8854H47.1214V46.9142Z" fill="white"/>
<path d="M48.7098 46.9142H47.7942V45.8854H48.7098V46.9142Z" fill="white"/>
<path d="M47.1214 48.5181H46.2058V47.4893H47.1214V48.5181Z" fill="white"/>
<path d="M48.7098 48.5181H47.7942V47.4893H48.7098V48.5181Z" fill="white"/>
<path d="M47.1214 50.1219H46.2058V49.0931H47.1214V50.1219Z" fill="white"/>
<path d="M48.7098 50.1219H47.7942V49.0931H48.7098V50.1219Z" fill="white"/>
<path d="M47.1214 51.7258H46.2058V50.6971H47.1214V51.7258Z" fill="white"/>
<path d="M48.7098 51.7258H47.7942V50.6971H48.7098V51.7258Z" fill="white"/>
<g filter="url(#filter0_d)">
<path d="M36.7312 66.2318C18.9379 66.2318 4.5135 64.7345 4.5135 62.8875C4.5135 61.0406 18.9379 59.5433 36.7312 59.5433C54.5246 59.5433 68.949 61.0406 68.949 62.8875C68.949 64.7345 54.5246 66.2318 36.7312 66.2318Z" fill="#EBEBEB"/>
</g>
<path d="M4.46398 53.1354H69V54.2386H4.46398V53.1354Z" fill="#C7C7C7"/>
<path d="M64.4746 53.1354C64.3736 53.4965 64.3736 53.8775 64.4746 54.2386C64.5291 54.0594 64.5552 53.8732 64.5519 53.6862C64.5544 53.4999 64.5283 53.3142 64.4746 53.1354V53.1354Z" fill="#263238"/>
<path d="M59.4311 53.1354C59.3774 53.3142 59.3513 53.4999 59.3537 53.6862C59.3505 53.8732 59.3765 54.0594 59.4311 54.2386C59.5321 53.8775 59.5321 53.4965 59.4311 53.1354V53.1354Z" fill="#263238"/>
<path d="M54.3859 53.1354C54.2849 53.4965 54.2849 53.8775 54.3859 54.2386C54.4404 54.0594 54.4665 53.8732 54.4633 53.6862C54.4657 53.4999 54.4396 53.3142 54.3859 53.1354V53.1354Z" fill="#263238"/>
<path d="M49.3424 53.1354C49.2887 53.3142 49.2626 53.4999 49.2651 53.6862C49.2618 53.8732 49.2879 54.0594 49.3424 54.2386C49.4434 53.8775 49.4434 53.4965 49.3424 53.1354V53.1354Z" fill="#263238"/>
<path d="M44.2973 53.1354C44.1963 53.4965 44.1963 53.8775 44.2973 54.2386C44.3519 54.0594 44.3779 53.8732 44.3747 53.6862C44.3771 53.4999 44.351 53.3142 44.2973 53.1354V53.1354Z" fill="#263238"/>
<path d="M39.2538 53.1354C39.2 53.3142 39.174 53.4999 39.1764 53.6862C39.1732 53.8732 39.1992 54.0594 39.2538 54.2386C39.3548 53.8775 39.3548 53.4965 39.2538 53.1354V53.1354Z" fill="#263238"/>
<path d="M34.2087 53.1354C34.1077 53.4965 34.1077 53.8775 34.2087 54.2386C34.2632 54.0594 34.2893 53.8732 34.286 53.6862C34.2885 53.4999 34.2624 53.3142 34.2087 53.1354V53.1354Z" fill="#263238"/>
<path d="M29.1651 53.1354C29.1114 53.3142 29.0854 53.4999 29.0878 53.6862C29.0845 53.8732 29.1106 54.0594 29.1651 54.2386C29.2662 53.8775 29.2662 53.4965 29.1651 53.1354V53.1354Z" fill="#263238"/>
<path d="M24.1201 53.1354C24.0191 53.4965 24.0191 53.8775 24.1201 54.2386C24.1746 54.0594 24.2007 53.8732 24.1974 53.6862C24.1999 53.4999 24.1738 53.3142 24.1201 53.1354V53.1354Z" fill="#263238"/>
<path d="M19.0765 53.1354C19.0228 53.3142 18.9967 53.4999 18.9992 53.6862C18.9959 53.8732 19.022 54.0594 19.0765 54.2386C19.1775 53.8775 19.1775 53.4965 19.0765 53.1354V53.1354Z" fill="#263238"/>
<path d="M14.0314 53.1354C13.9304 53.4965 13.9304 53.8775 14.0314 54.2386C14.0859 54.0594 14.112 53.8732 14.1087 53.6862C14.1112 53.4999 14.0851 53.3142 14.0314 53.1354V53.1354Z" fill="#263238"/>
<path d="M8.98789 53.1354C8.93418 53.3142 8.90811 53.4999 8.91056 53.6862C8.90728 53.8732 8.93336 54.0594 8.98789 54.2386C9.08892 53.8775 9.08892 53.4965 8.98789 53.1354V53.1354Z" fill="#263238"/>
<path d="M69 54.2386L60.9328 54.2021L52.8656 54.1885L36.7312 54.1627L20.5968 54.1885L12.5296 54.2006L4.46243 54.2386L12.5296 54.275L20.5968 54.2886L36.7312 54.3144L52.8656 54.2886L60.9328 54.275L69 54.2386Z" fill="#263238"/>
<path d="M10.3334 43.2073C9.48434 41.4957 7.99803 40.6156 6.32458 41.1012C4.65113 41.5867 4.3913 43.878 5.64098 44.4561C6.89065 45.0342 8.14032 43.3454 8.80073 42.9994C9.46114 42.6535 10.3334 43.2073 10.3334 43.2073Z" fill="#14279B"/>
<path d="M11.1547 47.764C11.1547 47.5576 11.1423 47.3512 11.1346 47.1449C11.1191 46.7322 11.1052 46.3209 11.0897 45.9082C11.0619 45.1495 10.9784 44.4151 10.6598 43.7202C10.3782 43.0924 9.90899 42.5633 9.3142 42.2028C9.09346 42.0701 8.85508 41.968 8.60585 41.8993C8.38024 41.6755 8.09339 41.5206 7.77995 41.4532C7.39236 41.3761 6.99399 41.3664 6.60297 41.4244C6.58905 41.4244 6.58905 41.4472 6.60297 41.4456C6.97583 41.3996 7.35429 41.4264 7.71654 41.5246C7.87241 41.5657 8.02331 41.6231 8.16661 41.696C8.25671 41.7432 8.34305 41.7969 8.42489 41.8569C7.96355 41.7564 7.48176 41.7999 7.04685 41.9813C6.95548 41.9617 6.86187 41.954 6.76846 41.9585C6.64632 41.9622 6.52496 41.979 6.40655 42.0086C6.16394 42.0759 5.93186 42.1755 5.71675 42.3045C5.70438 42.3045 5.71675 42.3288 5.72912 42.3227C5.94013 42.2098 6.16601 42.1261 6.40036 42.0738C6.51443 42.0488 6.63022 42.032 6.7468 42.0238C6.81022 42.0238 6.87517 42.0238 6.93858 42.0238C6.4611 42.2412 6.07754 42.6175 5.85595 43.0859C5.85595 43.0981 5.86987 43.1087 5.87605 43.0965C6.00767 42.8253 6.20015 42.5868 6.43907 42.3989C6.67799 42.211 6.95716 42.0786 7.25565 42.0116C7.29276 42.0025 7.32988 41.9965 7.367 41.9904C7.35835 42.0452 7.35267 42.1004 7.34999 42.1558C7.33761 42.2392 7.3237 42.3212 7.30668 42.4046C7.27132 42.574 7.22587 42.7412 7.17058 42.9054C7.11401 43.0714 7.04633 43.2336 6.96797 43.3909C6.89278 43.5576 6.79778 43.715 6.68494 43.8598C6.68369 43.8608 6.6827 43.8621 6.68203 43.8636C6.68137 43.8651 6.68106 43.8667 6.68112 43.8683C6.68118 43.8699 6.68161 43.8715 6.68238 43.8729C6.68315 43.8743 6.68424 43.8755 6.68557 43.8765C6.68689 43.8774 6.68842 43.8781 6.69004 43.8783C6.69165 43.8786 6.69331 43.8785 6.69489 43.8781C6.69647 43.8777 6.69792 43.8769 6.69915 43.8758C6.70037 43.8747 6.70133 43.8734 6.70195 43.8719C6.80248 43.7202 6.92003 43.5684 7.01128 43.4167C7.1001 43.2637 7.17614 43.1038 7.23863 42.9387C7.30402 42.7721 7.35574 42.6006 7.39329 42.4259C7.41031 42.3333 7.42577 42.2407 7.4366 42.1467C7.44794 42.0908 7.45158 42.0336 7.44743 41.9767C7.64405 41.9477 7.84365 41.9437 8.04133 41.9646C7.96709 42.3728 7.88667 42.7991 7.65467 43.1542C7.64694 43.1648 7.66705 43.177 7.67323 43.1648C7.78271 42.9768 7.87883 42.7816 7.96091 42.5806C8.03772 42.386 8.08614 42.1816 8.10474 41.9737C8.45055 42.0193 8.78436 42.1289 9.08839 42.2969C9.65982 42.6241 10.1162 43.1142 10.3968 43.702C10.6899 44.3352 10.8528 45.0189 10.8763 45.714C10.932 46.5895 10.9443 47.4696 11.031 48.3421C11.031 48.3982 11.1299 48.4179 11.1408 48.3542C11.165 48.1584 11.1697 47.9607 11.1547 47.764V47.764Z" fill="#263238"/>
<path d="M9.192 42.0617C9.13618 41.9951 9.07171 41.9359 9.00022 41.8857C8.93062 41.8295 8.85947 41.7749 8.78369 41.7248C8.63699 41.626 8.47439 41.5522 8.30269 41.5063C8.28877 41.5063 8.28259 41.5246 8.30269 41.5276C8.47615 41.5702 8.63848 41.6483 8.77905 41.7567C8.8502 41.8083 8.91825 41.8629 8.98475 41.9191C9.04309 41.9804 9.10848 42.0349 9.17963 42.0814C9.18199 42.0814 9.18431 42.0808 9.18637 42.0797C9.18842 42.0785 9.19015 42.0769 9.19139 42.0749C9.19263 42.073 9.19333 42.0707 9.19344 42.0684C9.19354 42.0661 9.19305 42.0638 9.192 42.0617V42.0617Z" fill="#263238"/>
<path d="M6.48387 42.6793C6.34383 42.8399 6.21369 43.0087 6.09412 43.1845C5.9788 43.3628 5.88191 43.5519 5.8049 43.749C5.8049 43.749 5.8049 43.7581 5.81418 43.749C6.00891 43.3751 6.23826 43.0195 6.49934 42.6868C6.50862 42.6793 6.49315 42.6702 6.48387 42.6793Z" fill="#263238"/>
<path d="M11.0356 43.2498C11.0356 43.2498 12.2373 41.7673 14.5573 42.2923C16.7628 42.7915 17.7804 46.7579 15.5518 47.2329C13.3231 47.7078 13.7175 44.0449 12.9055 43.4136C12.3085 42.9569 11.4532 43.0555 11.0356 43.2498Z" fill="#14279B"/>
<path d="M16.3498 44.4591C16.1988 44.329 16.0391 44.2089 15.8719 44.0995C15.7142 43.9937 15.5424 43.9094 15.3615 43.8491C15.2711 43.7147 15.1703 43.5874 15.0599 43.4683C14.8551 43.2522 14.6184 43.0676 14.3577 42.9205H14.4273C14.5505 42.9144 14.6739 42.9144 14.797 42.9205C15.0441 42.9362 15.2862 42.9959 15.5115 43.0965C15.5254 43.0965 15.5347 43.0813 15.5224 43.0768C15.2926 42.9796 15.0524 42.9083 14.8063 42.8644C14.6868 42.8436 14.5657 42.8334 14.4444 42.834C14.3794 42.834 14.3144 42.834 14.2495 42.8462H14.2124C13.9996 42.7414 13.7754 42.6605 13.5442 42.6049L13.6076 42.5882C13.7214 42.5632 13.8366 42.545 13.9525 42.5336C14.1835 42.5075 14.4169 42.5111 14.647 42.5442C14.6493 42.5433 14.6514 42.5418 14.6528 42.5398C14.6543 42.5377 14.655 42.5353 14.655 42.5328C14.655 42.5303 14.6543 42.5279 14.6528 42.5259C14.6514 42.5239 14.6493 42.5223 14.647 42.5214C14.4145 42.4942 14.1803 42.485 13.9463 42.4941C13.7495 42.5001 13.5536 42.525 13.3617 42.5685C13.2222 42.5437 13.0811 42.5279 12.9395 42.5214C12.1306 42.4881 11.249 42.7839 10.751 43.4319C10.253 44.0798 10.1556 44.9492 10.0674 45.7428C9.92977 46.8406 9.89869 47.9487 9.97461 49.0522C9.97461 49.1174 10.0736 49.1053 10.0751 49.0522C10.1061 48.116 10.1401 47.1813 10.2298 46.2481C10.2716 45.8172 10.318 45.3847 10.3922 44.9568C10.4453 44.5895 10.5526 44.2317 10.7108 43.8947C10.8841 43.5501 11.1568 43.263 11.4949 43.0692C11.8347 42.8781 12.2135 42.7636 12.6039 42.7339C12.9539 42.7062 13.3061 42.7385 13.6448 42.8295C13.6339 42.8963 13.6339 42.9644 13.6448 43.0313C13.6516 43.1159 13.6687 43.1995 13.6958 43.2801C13.721 43.3566 13.7531 43.4308 13.7917 43.5017C13.835 43.579 13.8891 43.6534 13.9371 43.7232C13.9448 43.7353 13.9634 43.7232 13.9556 43.7111C13.8592 43.5756 13.7971 43.4196 13.7747 43.2558C13.7606 43.1791 13.7513 43.1015 13.7468 43.0237C13.7468 42.966 13.7468 42.9068 13.7468 42.8477C14.1149 42.9593 14.4585 43.1373 14.7599 43.3727C14.8155 43.4167 14.8712 43.4637 14.9238 43.5123C14.8473 43.5817 14.7812 43.6614 14.7274 43.749C14.6476 43.8631 14.5782 43.984 14.5201 44.1101C14.4128 44.3635 14.341 44.6299 14.3067 44.9022C14.3067 44.9158 14.3268 44.9189 14.3284 44.9022C14.3706 44.6392 14.4596 44.3855 14.5913 44.1526C14.6526 44.0372 14.7213 43.9257 14.797 43.8188C14.8372 43.7642 14.8774 43.7095 14.9192 43.6579C14.9424 43.6291 14.9671 43.6003 14.9888 43.5699C15.2614 43.8326 15.484 44.1409 15.6461 44.4804V44.4804C15.5361 44.5932 15.4448 44.7222 15.3754 44.8627C15.2922 45.0094 15.2193 45.1615 15.1574 45.3179C15.0452 45.6214 14.9527 45.9316 14.8805 46.2466C14.8805 46.248 14.8808 46.2493 14.8813 46.2506C14.8819 46.2519 14.8827 46.2531 14.8837 46.2541C14.8847 46.2551 14.8859 46.2559 14.8872 46.2564C14.8885 46.2569 14.8899 46.2572 14.8913 46.2572C14.8928 46.2572 14.8942 46.2569 14.8955 46.2564C14.8968 46.2559 14.898 46.2551 14.899 46.2541C14.9 46.2531 14.9008 46.2519 14.9013 46.2506C14.9019 46.2493 14.9022 46.248 14.9022 46.2466C14.9733 45.9309 15.0839 45.6251 15.2316 45.3362C15.3012 45.1935 15.3739 45.0539 15.4512 44.9143C15.5315 44.7859 15.6043 44.6532 15.6693 44.5168C15.8239 44.849 15.9136 45.2067 15.9338 45.5713C15.9338 45.5742 15.9349 45.5769 15.9369 45.5789C15.939 45.5808 15.9417 45.582 15.9446 45.582C15.9475 45.582 15.9502 45.5808 15.9522 45.5789C15.9543 45.5769 15.9554 45.5742 15.9554 45.5713C15.9121 45 15.7343 44.4463 15.4357 43.9538C15.5765 44.013 15.7188 44.0707 15.8564 44.1435C16.031 44.2337 16.1932 44.3454 16.339 44.4758C16.3452 44.4849 16.3606 44.4682 16.3498 44.4591Z" fill="#263238"/>
<path d="M14.6485 44.5426C14.5789 44.7672 14.4938 44.9857 14.4289 45.2133C14.3642 45.4308 14.3294 45.6559 14.3253 45.8824C14.3253 45.8824 14.3361 45.8824 14.3361 45.8824C14.3985 45.4276 14.51 44.9805 14.6686 44.5487C14.6694 44.5473 14.67 44.5458 14.6701 44.5441C14.6702 44.5425 14.67 44.5409 14.6694 44.5394C14.6688 44.5379 14.6679 44.5366 14.6667 44.5355C14.6655 44.5344 14.6641 44.5336 14.6625 44.5331C14.6609 44.5326 14.6593 44.5325 14.6576 44.5327C14.656 44.533 14.6545 44.5336 14.6531 44.5345C14.6518 44.5354 14.6507 44.5366 14.6499 44.538C14.6491 44.5394 14.6486 44.541 14.6485 44.5426Z" fill="#263238"/>
<path d="M16.1178 43.9857C16.0262 43.8991 15.922 43.8264 15.8084 43.7702C15.6937 43.7189 15.5747 43.6772 15.4527 43.6458C15.4403 43.6458 15.4357 43.6655 15.4527 43.6685C15.5727 43.6986 15.6878 43.7451 15.7945 43.8066C15.9021 43.8625 16.0055 43.9259 16.1038 43.9963L16.1178 43.9857Z" fill="#263238"/>
<path d="M12.1786 41.2696C12.1786 41.2696 12.3998 38.6067 14.4181 37.7448C16.1024 37.0241 17.0675 38.8813 15.8766 40.0209C14.913 40.9373 13.3679 40.5231 12.1786 41.2696Z" fill="#14279B"/>
<path d="M15.5023 38.2607C15.1953 38.382 14.8957 38.5208 14.6053 38.6765C14.3642 38.8144 14.1318 38.9664 13.9093 39.1317C13.9417 39.0649 13.9711 38.9936 14.0052 38.9283C14.0577 38.8272 14.115 38.726 14.1768 38.6249C14.3009 38.4234 14.45 38.2379 14.6207 38.0725C14.6315 38.0634 14.6207 38.0483 14.6053 38.0574C14.4367 38.2233 14.2816 38.4019 14.1413 38.5915C14.0722 38.6891 14.0087 38.7904 13.951 38.895C13.8913 38.9893 13.8454 39.0915 13.8149 39.1984L13.7917 39.2136C13.44 39.4899 13.1172 39.8 12.8282 40.1392C12.8282 40.1134 12.8406 40.0861 12.8467 40.0633C12.8854 39.9328 12.9256 39.8039 12.9689 39.6764C13.0552 39.4028 13.1779 39.1416 13.3339 38.8995C13.3417 38.8874 13.3216 38.8767 13.3138 38.8889C13.1562 39.1324 13.0151 39.3858 12.8916 39.6476C12.836 39.7753 12.7895 39.9066 12.7524 40.0406C12.7228 40.1281 12.7011 40.2179 12.6874 40.3091C12.5993 40.4184 12.5127 40.5276 12.4307 40.6414C11.5646 41.8553 11.13 43.315 11.0264 44.7793C10.9962 45.2156 10.9885 45.6532 11.0032 46.0903C11.0064 46.5313 11.0462 46.9712 11.1223 47.4059C11.1223 47.4347 11.1717 47.4256 11.1702 47.3983C11.1609 47.0144 11.1192 46.6305 11.113 46.2466C11.1068 45.8627 11.113 45.4743 11.1501 45.0904C11.2127 44.3241 11.3589 43.5667 11.5862 42.831C11.8207 42.0777 12.1662 41.362 12.6116 40.7067C12.6967 40.69 12.7802 40.6672 12.8638 40.6475L13.1731 40.5686C13.3666 40.5198 13.5546 40.4522 13.7345 40.3668C13.7372 40.3654 13.7392 40.363 13.74 40.3602C13.7409 40.3573 13.7406 40.3542 13.7391 40.3516C13.7377 40.349 13.7353 40.3471 13.7324 40.3462C13.7295 40.3454 13.7263 40.3457 13.7237 40.3471C13.5457 40.4424 13.3529 40.5081 13.153 40.5413C12.9983 40.5716 12.8313 40.5914 12.672 40.6278C12.8161 40.4179 12.9709 40.2153 13.136 40.0208C13.5206 40.0547 13.9082 40.0265 14.2836 39.9374C14.4833 39.8901 14.6797 39.8298 14.8713 39.7568C15.0723 39.681 15.2641 39.5823 15.4636 39.5019C15.4791 39.4943 15.4636 39.4731 15.4543 39.4822C15.0931 39.6751 14.6989 39.8016 14.2913 39.8555C13.9331 39.9109 13.5712 39.9404 13.2086 39.9435C13.3525 39.7826 13.501 39.6248 13.6587 39.4776C14.185 38.9575 14.8175 38.5526 15.5147 38.2895C15.5224 38.2789 15.5162 38.2546 15.5023 38.2607Z" fill="#263238"/>
<path d="M13.8613 38.2683C13.7702 38.3807 13.6875 38.4993 13.6138 38.6233C13.5382 38.7536 13.4785 38.8921 13.436 39.0361C13.436 39.0361 13.436 39.0437 13.4437 39.0361C13.5117 38.9056 13.5674 38.7705 13.6355 38.64C13.7022 38.5119 13.7831 38.3913 13.8767 38.2804C13.886 38.2789 13.8706 38.2577 13.8613 38.2683Z" fill="#263238"/>
<path d="M15.7374 39.1545C15.6057 39.2254 15.4668 39.2823 15.3229 39.3244C15.1848 39.3689 15.0444 39.4059 14.9022 39.4352C14.9022 39.4352 14.9022 39.4473 14.9022 39.4473C15.0506 39.4313 15.1968 39.3998 15.3383 39.3532C15.4781 39.3015 15.6145 39.2412 15.7466 39.1727C15.7606 39.1666 15.7497 39.1469 15.7374 39.1545Z" fill="#263238"/>
<path d="M10.6103 40.7901C10.5979 40.9055 10.301 39.8236 8.59967 38.8631C7.05304 37.9921 5.1971 35.7237 6.71898 34.2913C7.94545 33.1335 11.1763 35.6554 10.6103 40.7901Z" fill="#14279B"/>
<path d="M11.7842 46.9916C11.7597 45.8656 11.6694 44.7419 11.5135 43.6261C11.3791 42.6005 11.1376 41.5912 10.7928 40.6141C10.666 40.2621 10.5206 39.9161 10.3628 39.5762C10.3745 39.4435 10.3745 39.31 10.3628 39.1772C10.3551 39.0072 10.3381 38.8373 10.3226 38.6673C10.3072 38.4974 10.2886 38.3274 10.2685 38.1575C10.2484 37.9876 10.2113 37.8191 10.2035 37.6507C10.2035 37.6493 10.2033 37.6479 10.2027 37.6466C10.2022 37.6453 10.2014 37.6442 10.2004 37.6432C10.1994 37.6422 10.1982 37.6414 10.1969 37.6409C10.1955 37.6404 10.1941 37.6401 10.1927 37.6401C10.1913 37.6401 10.1899 37.6404 10.1886 37.6409C10.1873 37.6414 10.1861 37.6422 10.1851 37.6432C10.1841 37.6442 10.1833 37.6453 10.1827 37.6466C10.1822 37.6479 10.1819 37.6493 10.1819 37.6507C10.2165 37.8284 10.2372 38.0085 10.2437 38.1894C10.2561 38.3532 10.267 38.5171 10.2716 38.6825C10.2762 38.8479 10.2716 39.0118 10.2716 39.1757C10.2716 39.2363 10.2716 39.2986 10.2716 39.3623C10.1169 39.03 9.93907 38.7022 9.75347 38.3836C9.86947 37.6902 9.71944 36.9648 9.57406 36.2851C9.57406 36.2714 9.55086 36.2851 9.55395 36.2927C9.62422 36.6467 9.6615 37.0063 9.66531 37.367C9.66531 37.6522 9.66531 37.9375 9.65758 38.2227L9.53385 38.0179C9.31268 37.6644 9.06986 37.3169 8.8255 36.98C8.84538 36.8152 8.83964 36.6485 8.80848 36.4854C8.78046 36.3026 8.73912 36.1221 8.68475 35.9452C8.63112 35.7676 8.56814 35.5929 8.49606 35.4217C8.42183 35.2457 8.32439 35.0803 8.25324 34.9028C8.25324 34.8891 8.22386 34.9027 8.23314 34.9119C8.32302 35.079 8.39457 35.2549 8.44657 35.4369C8.50291 35.6076 8.54938 35.7814 8.58577 35.9573C8.62134 36.1333 8.65072 36.3109 8.67702 36.4884C8.69248 36.6068 8.70331 36.7281 8.72497 36.8465C8.35941 36.3645 7.95992 35.9082 7.52942 35.4809C7.52014 35.4702 7.50468 35.4809 7.5155 35.496C8.16317 36.2177 8.741 36.997 9.24154 37.8237L9.29567 37.9162C9.20287 37.8586 9.09461 37.8131 9.00645 37.7645C8.84096 37.6735 8.67547 37.5839 8.50843 37.4959C8.3414 37.4079 8.18519 37.3245 8.02589 37.2365C7.94237 37.1925 7.8604 37.1454 7.77688 37.1029C7.67646 37.0601 7.57974 37.0093 7.48767 36.9512C7.47529 36.9421 7.46137 36.9618 7.47529 36.9694C7.63923 37.0574 7.78462 37.1894 7.93928 37.2881C8.09394 37.3867 8.26097 37.4838 8.42646 37.5748C8.73579 37.7402 9.05903 37.8601 9.35444 38.03C9.56169 38.3866 9.75192 38.7508 9.92824 39.1225C9.74728 39.0087 9.56169 38.901 9.37455 38.7978C9.25391 38.7311 9.13173 38.6658 9.00954 38.6021C8.8879 38.5468 8.77277 38.4786 8.66619 38.3988C8.65537 38.3897 8.6399 38.3988 8.65073 38.4139C8.84986 38.5889 9.07009 38.7392 9.30649 38.8616C9.52611 38.9875 9.74728 39.1089 9.97464 39.2181C10.1571 39.6096 10.3226 40.0102 10.468 40.4153C11.1872 42.4107 11.4501 44.5274 11.5769 46.6365C11.6141 47.2632 11.6326 47.8899 11.6419 48.5181C11.6512 49.1463 11.6156 49.7714 11.6172 50.3981C11.6172 50.4163 11.6481 50.4209 11.6512 50.3981C11.727 49.8412 11.7409 49.2768 11.7656 48.7169C11.7904 48.1569 11.7966 47.5621 11.7842 46.9916Z" fill="#263238"/>
<path d="M8.68477 37.9617C8.37324 37.8288 8.07053 37.6767 7.77845 37.5065C7.48213 37.3434 7.19507 37.1646 6.91853 36.9709C6.91853 36.9709 6.9077 36.9709 6.91853 36.9709C7.17981 37.179 7.4558 37.3686 7.74442 37.5384C8.04425 37.7036 8.35416 37.8506 8.6724 37.9784C8.68786 37.986 8.69869 37.9754 8.68477 37.9617Z" fill="#263238"/>
<path d="M9.17968 35.7069C9.15338 35.6098 9.12245 35.5142 9.08997 35.4186V35.408C9.06832 35.3549 9.04667 35.3003 9.02347 35.2472C9.02347 35.2472 9.02347 35.2335 9.01574 35.2275C9.008 35.2214 9.008 35.2077 9.00336 35.1971C8.99872 35.1865 8.99563 35.1971 9.00336 35.1971C9.0111 35.1971 9.01419 35.235 9.02037 35.2532C9.02276 35.2636 9.02586 35.2737 9.02966 35.2836C9.14218 35.6558 9.22644 36.0357 9.28175 36.4201C9.28175 36.4322 9.30341 36.4322 9.30186 36.4201C9.28448 36.1791 9.24356 35.9403 9.17968 35.7069V35.7069Z" fill="#263238"/>
<path d="M13.586 47.3967L13.4654 48.8124L13.0927 53.1293H9.10082L8.72808 48.8124L8.6059 47.3967H13.586Z" fill="#455A64"/>
<path d="M13.586 47.3967L13.4654 48.8124H8.72808L8.6059 47.3967H13.586Z" fill="#263238"/>
<path d="M13.9788 48.1873H8.21457V46.8293H13.9788V48.1873Z" fill="#455A64"/>
<path d="M19.3472 4.08655H54.089C54.9611 4.08655 55.6681 4.78016 55.6681 5.63578V58.1427C55.6681 58.9983 54.9611 59.692 54.089 59.692H19.3472C18.475 59.692 17.7681 58.9983 17.7681 58.1427V5.63578C17.7681 4.78016 18.475 4.08655 19.3472 4.08655Z" fill="#455A64"/>
<path d="M19.3688 8.01349H54.0488V55.8743H19.3688V8.01349Z" fill="white"/>
<path d="M32.6049 6.47792V6.27915C32.6049 6.1744 32.6914 6.08948 32.7982 6.08948L40.6643 6.08948C40.7711 6.08948 40.8576 6.1744 40.8576 6.27915V6.47792C40.8576 6.58268 40.7711 6.66759 40.6643 6.66759H32.7982C32.6914 6.66759 32.6049 6.58268 32.6049 6.47792Z" fill="#37474F"/>
<path d="M36.7312 59.0182C36.9426 59.0185 37.1494 58.9573 37.3254 58.8422C37.5013 58.7272 37.6385 58.5636 37.7197 58.372C37.8008 58.1804 37.8222 57.9696 37.7811 57.7661C37.74 57.5626 37.6384 57.3756 37.489 57.2288C37.3396 57.0821 37.1492 56.982 36.9418 56.9415C36.7344 56.9009 36.5195 56.9216 36.3241 57.0009C36.1287 57.0802 35.9617 57.2146 35.8442 57.387C35.7267 57.5595 35.664 57.7623 35.664 57.9697C35.664 58.2475 35.7764 58.514 35.9765 58.7106C36.1766 58.9072 36.448 59.0178 36.7312 59.0182V59.0182Z" fill="#37474F"/>
<path opacity="0.6" d="M48.716 50.5939C48.716 50.7688 48.7689 50.9399 48.868 51.0853C48.9671 51.2308 49.1079 51.3442 49.2727 51.4111C49.4374 51.4781 49.6187 51.4956 49.7936 51.4615C49.9685 51.4274 50.1292 51.3431 50.2553 51.2194C50.3814 51.0957 50.4673 50.938 50.5021 50.7664C50.5369 50.5948 50.519 50.417 50.4508 50.2553C50.3825 50.0937 50.267 49.9555 50.1187 49.8583C49.9704 49.7611 49.7961 49.7092 49.6177 49.7092C49.3786 49.7092 49.1492 49.8024 48.9801 49.9683C48.811 50.1342 48.716 50.3592 48.716 50.5939V50.5939Z" fill="#14279B"/>
<path opacity="0.6" d="M47.621 48.9005C47.621 48.9857 47.6468 49.069 47.6951 49.1399C47.7433 49.2108 47.8119 49.266 47.8922 49.2986C47.9724 49.3312 48.0608 49.3398 48.146 49.3231C48.2312 49.3065 48.3094 49.2655 48.3709 49.2052C48.4323 49.1449 48.4741 49.0681 48.4911 48.9845C48.508 48.901 48.4993 48.8143 48.4661 48.7356C48.4328 48.6568 48.3765 48.5895 48.3043 48.5422C48.2321 48.4948 48.1471 48.4695 48.0603 48.4695C47.9438 48.4695 47.8321 48.5149 47.7497 48.5958C47.6673 48.6766 47.621 48.7862 47.621 48.9005V48.9005Z" fill="#14279B"/>
<path opacity="0.6" d="M28.3361 50.1659C28.3361 50.2512 28.3619 50.3345 28.4102 50.4054C28.4584 50.4762 28.527 50.5315 28.6073 50.5641C28.6876 50.5967 28.7759 50.6052 28.8611 50.5886C28.9463 50.572 29.0245 50.5309 29.086 50.4707C29.1474 50.4104 29.1892 50.3336 29.2062 50.25C29.2231 50.1664 29.2144 50.0798 29.1812 50.001C29.1479 49.9223 29.0917 49.855 29.0194 49.8076C28.9472 49.7603 28.8623 49.735 28.7754 49.735C28.6589 49.735 28.5472 49.7804 28.4648 49.8612C28.3824 49.942 28.3361 50.0517 28.3361 50.1659V50.1659Z" fill="#14279B"/>
<path opacity="0.6" d="M19.5405 54.1005C19.5405 54.1857 19.5663 54.269 19.6145 54.3399C19.6628 54.4108 19.7314 54.466 19.8117 54.4986C19.8919 54.5312 19.9803 54.5398 20.0655 54.5231C20.1507 54.5065 20.2289 54.4655 20.2904 54.4052C20.3518 54.3449 20.3936 54.2682 20.4106 54.1846C20.4275 54.101 20.4188 54.0143 20.3856 53.9356C20.3523 53.8568 20.296 53.7895 20.2238 53.7422C20.1516 53.6948 20.0666 53.6696 19.9798 53.6696C19.8633 53.6696 19.7515 53.715 19.6692 53.7958C19.5868 53.8766 19.5405 53.9862 19.5405 54.1005V54.1005Z" fill="#14279B"/>
<path opacity="0.6" d="M20.2133 55.3599C20.2133 55.4963 20.2685 55.6272 20.3669 55.7236C20.4652 55.8201 20.5986 55.8743 20.7376 55.8743H53.3961C53.4673 55.8781 53.5385 55.8676 53.6054 55.8435C53.6722 55.8194 53.7334 55.7822 53.7851 55.7341C53.8369 55.6861 53.8781 55.6281 53.9062 55.5639C53.9344 55.4997 53.9489 55.4306 53.9489 55.3606C53.9489 55.2907 53.9344 55.2216 53.9062 55.1574C53.8781 55.0932 53.8369 55.0352 53.7851 54.9872C53.7334 54.9391 53.6722 54.9019 53.6054 54.8778C53.5385 54.8537 53.4673 54.8432 53.3961 54.847C53.3545 54.847 53.313 54.8516 53.2724 54.8607C53.2719 54.6596 53.2104 54.4631 53.0958 54.2964C52.9812 54.1297 52.8186 54.0002 52.6287 53.9243C52.4389 53.8485 52.2303 53.8299 52.0296 53.8707C51.8288 53.9115 51.645 54.01 51.5015 54.1536H51.4922C51.4922 54.0914 51.5015 54.0276 51.5015 53.9639C51.5023 53.6386 51.4187 53.3184 51.2584 53.0336C51.0981 52.7488 50.8665 52.5088 50.5855 52.3362C50.3044 52.1635 49.9832 52.064 49.652 52.0469C49.3209 52.0299 48.9908 52.0959 48.6929 52.2387C48.6711 51.9299 48.5432 51.6376 48.3299 51.4095C48.1167 51.1815 47.8308 51.0312 47.5191 50.9835C47.2075 50.9357 46.8885 50.9932 46.6145 51.1465C46.3405 51.2998 46.1277 51.5399 46.011 51.8275C45.836 51.5531 45.5926 51.327 45.3039 51.1704C45.0152 51.0138 44.6907 50.9318 44.3608 50.9322C44.2357 50.9329 44.111 50.9446 43.988 50.9671C44.0148 50.8204 44.0282 50.6716 44.0282 50.5225C44.0285 50.0267 43.8836 49.5412 43.6108 49.1238C43.338 48.7064 42.9488 48.3747 42.4894 48.168C42.03 47.9614 41.5198 47.8885 41.0194 47.9581C40.519 48.0277 40.0495 48.2368 39.6668 48.5606C39.6229 48.4768 39.5564 48.4065 39.4746 48.3573C39.3928 48.308 39.2987 48.2818 39.2028 48.2814C39.1338 48.2818 39.0656 48.2952 39.0017 48.3208L38.5114 29.1064H35.6347L35.1444 48.3208C35.0806 48.2952 35.0123 48.2818 34.9434 48.2814C34.8474 48.282 34.7535 48.3083 34.6717 48.3575C34.5899 48.4067 34.5234 48.4769 34.4794 48.5606C34.0966 48.2368 33.6271 48.0277 33.1267 47.9581C32.6263 47.8885 32.1161 47.9614 31.6567 48.168C31.1973 48.3747 30.8081 48.7064 30.5353 49.1238C30.2625 49.5412 30.1176 50.0267 30.1179 50.5225C30.1179 50.6716 30.1313 50.8204 30.1581 50.9671C30.0352 50.9446 29.9104 50.9329 29.7854 50.9322C29.4555 50.932 29.131 51.014 28.8423 51.1706C28.5536 51.3272 28.3103 51.5532 28.1351 51.8275C28.023 51.533 27.8107 51.2855 27.5342 51.1268C27.2577 50.968 26.9338 50.9077 26.6172 50.956C26.3006 51.0043 26.0107 51.1583 25.7964 51.392C25.5821 51.6257 25.4566 51.9247 25.4409 52.2387C25.1436 52.0961 24.8142 52.0301 24.4837 52.0468C24.1532 52.0635 23.8324 52.1624 23.5516 52.3342C23.2707 52.5059 23.039 52.7449 22.8782 53.0287C22.7174 53.3124 22.6327 53.6316 22.6322 53.9563C22.6322 54.0201 22.6322 54.0838 22.6415 54.146H22.6322C22.4887 54.0024 22.3049 53.9039 22.1042 53.8631C21.9035 53.8223 21.6949 53.8409 21.505 53.9168C21.3152 53.9926 21.1526 54.1221 21.0379 54.2888C20.9233 54.4556 20.8619 54.652 20.8613 54.8531C20.8208 54.8439 20.7793 54.8393 20.7376 54.8394C20.6682 54.8394 20.5995 54.8529 20.5355 54.8792C20.4715 54.9054 20.4134 54.9438 20.3647 54.9922C20.3159 55.0406 20.2774 55.0981 20.2514 55.1612C20.2254 55.2243 20.2125 55.2918 20.2133 55.3599Z" fill="#14279B"/>
<path d="M42.2728 16.919L47.7618 22.7912C47.7618 22.7912 42.2682 35.1183 42.2728 35.2032L43.0461 24.9337L41.3448 23.2145L42.2728 16.919Z" fill="#14279B"/>
<path opacity="0.1" d="M42.2728 16.919L47.7618 22.7912C47.7618 22.7912 42.2682 35.1183 42.2728 35.2032L43.0461 24.9337L41.3448 23.2145L42.2728 16.919Z" fill="black"/>
<path opacity="0.1" d="M41.3572 23.2129L42.5156 24.3889L44.7103 19.5242L42.2728 16.9174L41.3572 23.2129Z" fill="black"/>
<path d="M31.8207 16.919L26.3317 22.7912C26.3317 22.7912 31.8269 35.1183 31.8207 35.2032L31.0396 24.9337L32.7409 23.2145L31.8207 16.919Z" fill="#14279B"/>
<path opacity="0.1" d="M31.8207 16.919L26.3317 22.7912C26.3317 22.7912 31.8269 35.1183 31.8207 35.2032L31.0396 24.9337L32.7409 23.2145L31.8207 16.919Z" fill="black"/>
<path opacity="0.1" d="M32.7379 23.2129L31.5779 24.3889L29.3832 19.5242L31.8207 16.9174L32.7379 23.2129Z" fill="black"/>
<path d="M33.8715 27.231H40.2374C40.2374 27.231 43.2363 21.9718 42.8806 15.699C42.7012 12.5687 41.8676 9.41708 40.87 6.80873C39.4827 3.20195 37.7752 0.648224 37.0406 0.648224C36.3059 0.648224 34.5969 3.20499 33.2189 6.81025C32.2213 9.4186 31.3923 12.5762 31.2175 15.7035C30.8664 21.9748 33.8715 27.231 33.8715 27.231Z" fill="#EBEBEB"/>
<path opacity="0.2" d="M33.2358 14.8917C33.2362 15.6043 33.4518 16.3007 33.8556 16.8929C34.2594 17.4852 34.8331 17.9466 35.5042 18.219C36.1753 18.4913 36.9137 18.5622 37.6259 18.4228C38.3382 18.2834 38.9922 17.9399 39.5055 17.4358C40.0187 16.9316 40.368 16.2895 40.5092 15.5906C40.6504 14.8916 40.5771 14.1673 40.2987 13.5093C40.0203 12.8512 39.5492 12.2889 38.945 11.8935C38.3408 11.4981 37.6307 11.2874 36.9044 11.288C36.4223 11.288 35.9449 11.3812 35.4995 11.5624C35.0541 11.7436 34.6494 12.0091 34.3087 12.3438C33.968 12.6785 33.6979 13.0758 33.5138 13.513C33.3297 13.9502 33.2352 14.4187 33.2358 14.8917Z" fill="black"/>
<path d="M33.3658 14.5246C33.3661 15.2368 33.5816 15.933 33.9851 16.5251C34.3886 17.1172 34.962 17.5787 35.6327 17.8512C36.3035 18.1237 37.0415 18.195 37.7536 18.0561C38.4657 17.9172 39.1197 17.5743 39.6332 17.0707C40.1467 16.5672 40.4965 15.9256 40.6384 15.2271C40.7802 14.5286 40.7079 13.8045 40.4304 13.1463C40.1529 12.4881 39.6828 11.9254 39.0794 11.5293C38.4761 11.1331 37.7666 10.9214 37.0406 10.9208C36.558 10.9204 36.0801 11.0133 35.6342 11.1943C35.1882 11.3752 34.783 11.6406 34.4417 11.9753C34.1005 12.31 33.8298 12.7075 33.6451 13.1449C33.4605 13.5823 33.3656 14.0511 33.3658 14.5246Z" fill="#14279B"/>
<path opacity="0.1" d="M33.3658 14.5246C33.3661 15.2368 33.5816 15.933 33.9851 16.5251C34.3886 17.1172 34.962 17.5787 35.6327 17.8512C36.3035 18.1237 37.0415 18.195 37.7536 18.0561C38.4657 17.9172 39.1197 17.5743 39.6332 17.0707C40.1467 16.5672 40.4965 15.9256 40.6384 15.2271C40.7802 14.5286 40.7079 13.8045 40.4304 13.1463C40.1529 12.4881 39.6828 11.9254 39.0794 11.5293C38.4761 11.1331 37.7666 10.9214 37.0406 10.9208C36.558 10.9204 36.0801 11.0133 35.6342 11.1943C35.1882 11.3752 34.783 11.6406 34.4417 11.9753C34.1005 12.31 33.8298 12.7075 33.6451 13.1449C33.4605 13.5823 33.3656 14.0511 33.3658 14.5246Z" fill="black"/>
<path d="M34.4917 14.5215C34.4908 15.0155 34.6392 15.4988 34.9183 15.91C35.1973 16.3213 35.5944 16.6421 36.0593 16.8319C36.5242 17.0217 37.0361 17.072 37.5301 16.9764C38.0242 16.8808 38.4782 16.6436 38.8348 16.2948C39.1914 15.946 39.4346 15.5013 39.5336 15.0168C39.6325 14.5324 39.5828 14.0301 39.3907 13.5734C39.1987 13.1167 38.8729 12.7262 38.4545 12.4512C38.0362 12.1762 37.5441 12.0291 37.0405 12.0285C36.3656 12.0277 35.718 12.2898 35.2401 12.7573C34.7621 13.2248 34.4929 13.8594 34.4917 14.5215V14.5215Z" fill="#455A64"/>
<g opacity="0.4">
<path opacity="0.4" d="M34.4902 14.5215C34.4895 14.8329 34.5483 15.1417 34.6634 15.4319L36.1126 16.8507C36.4084 16.9634 36.7232 17.0205 37.0406 17.0191C37.2707 17.0194 37.4997 16.9883 37.7211 16.9265L34.5845 13.8493C34.5218 14.0681 34.4901 14.2943 34.4902 14.5215V14.5215Z" fill="white"/>
<path opacity="0.4" d="M36.6632 12.0512L39.5554 14.8887C39.5732 14.7676 39.5825 14.6454 39.5832 14.523C39.582 13.8618 39.3137 13.228 38.8371 12.7604C38.3605 12.2929 37.7145 12.0297 37.0405 12.0285C36.9144 12.0274 36.7883 12.035 36.6632 12.0512V12.0512Z" fill="white"/>
<path opacity="0.4" d="M34.8088 13.3122L38.2686 16.7065C38.3358 16.6714 38.4009 16.6324 38.4634 16.5897L34.9294 13.121C34.8861 13.1817 34.8474 13.2424 34.8088 13.3122Z" fill="white"/>
</g>
<path d="M33.2126 6.81025H40.8638C39.4826 3.20195 37.7752 0.648224 37.0405 0.648224C36.3059 0.648224 34.5907 3.20499 33.2126 6.81025Z" fill="#14279B"/>
<g opacity="0.1">
<path opacity="0.1" d="M39.5461 6.03029C39.5461 6.072 39.5587 6.11278 39.5823 6.14746C39.606 6.18215 39.6395 6.20918 39.6788 6.22515C39.7181 6.24111 39.7613 6.24528 39.803 6.23715C39.8447 6.22901 39.883 6.20892 39.9131 6.17942C39.9432 6.14993 39.9636 6.11235 39.9719 6.07143C39.9802 6.03052 39.976 5.98811 39.9597 5.94957C39.9434 5.91103 39.9159 5.87809 39.8805 5.85492C39.8452 5.83174 39.8036 5.81937 39.7611 5.81937C39.7328 5.81917 39.7048 5.82449 39.6786 5.83502C39.6524 5.84554 39.6286 5.86107 39.6086 5.8807C39.5886 5.90032 39.5728 5.92365 39.5621 5.94933C39.5513 5.97501 39.5459 6.00253 39.5461 6.03029V6.03029Z" fill="black"/>
<path opacity="0.1" d="M38.1851 6.03036C38.1848 6.0722 38.1972 6.11318 38.2207 6.1481C38.2442 6.18302 38.2777 6.21029 38.3171 6.22644C38.3564 6.24259 38.3998 6.24689 38.4416 6.2388C38.4835 6.23071 38.5219 6.21059 38.5521 6.18101C38.5822 6.15142 38.6027 6.1137 38.611 6.07264C38.6192 6.03159 38.6149 5.98906 38.5984 5.95046C38.5819 5.91186 38.5541 5.87893 38.5185 5.85587C38.483 5.83281 38.4412 5.82066 38.3985 5.82096C38.342 5.82136 38.288 5.84355 38.2481 5.88273C38.2081 5.92191 38.1855 5.97494 38.1851 6.03036V6.03036Z" fill="black"/>
<path opacity="0.1" d="M36.8241 6.03189C36.8238 6.05978 36.8293 6.08742 36.8401 6.1132C36.851 6.13898 36.8669 6.16238 36.8871 6.18203C36.9073 6.20167 36.9312 6.21717 36.9576 6.22761C36.984 6.23804 37.0122 6.24321 37.0406 6.24281C37.0832 6.24311 37.1249 6.23099 37.1604 6.208C37.196 6.18501 37.2238 6.15218 37.2403 6.11366C37.2568 6.07515 37.2613 6.0327 37.2532 5.99168C37.245 5.95067 37.2247 5.91295 37.1947 5.8833C37.1647 5.85365 37.1264 5.83341 37.0846 5.82515C37.0429 5.81689 36.9996 5.82097 36.9602 5.83689C36.9208 5.85281 36.8872 5.87984 36.8635 5.91456C36.8398 5.94928 36.8271 5.99011 36.8271 6.03189H36.8241Z" fill="black"/>
<path opacity="0.1" d="M35.463 6.0334C35.463 6.07518 35.4757 6.11602 35.4994 6.15073C35.523 6.18545 35.5567 6.21248 35.5961 6.2284C35.6355 6.24432 35.6788 6.2484 35.7205 6.24014C35.7623 6.23188 35.8006 6.21164 35.8306 6.18199C35.8606 6.15234 35.8809 6.11462 35.889 6.07361C35.8972 6.0326 35.8927 5.99014 35.8762 5.95163C35.8597 5.91312 35.8319 5.88028 35.7963 5.85729C35.7607 5.8343 35.719 5.82218 35.6764 5.82248C35.6483 5.82248 35.6204 5.82795 35.5944 5.83857C35.5684 5.84919 35.5448 5.86475 35.525 5.88435C35.5051 5.90396 35.4894 5.92722 35.4788 5.9528C35.4682 5.97838 35.4628 6.00577 35.463 6.0334V6.0334Z" fill="black"/>
<path opacity="0.1" d="M34.102 6.03344C34.1017 6.07528 34.1141 6.11627 34.1376 6.15118C34.1611 6.1861 34.1947 6.21337 34.234 6.22952C34.2734 6.24567 34.3167 6.24997 34.3586 6.24188C34.4004 6.23379 34.4389 6.21368 34.469 6.18409C34.4992 6.1545 34.5197 6.11678 34.5279 6.07573C34.5362 6.03467 34.5318 5.99214 34.5153 5.95354C34.4989 5.91494 34.4711 5.88201 34.4355 5.85895C34.3999 5.83589 34.3581 5.82374 34.3155 5.82404C34.2589 5.82404 34.2046 5.8461 34.1645 5.88537C34.1245 5.92464 34.102 5.9779 34.102 6.03344Z" fill="black"/>
</g>
<path d="M39.5554 26.2674C39.5554 26.3092 39.568 26.35 39.5917 26.3847C39.6154 26.4195 39.6491 26.4465 39.6884 26.4624C39.7278 26.4783 39.7711 26.4824 39.8129 26.4742C39.8546 26.4659 39.8929 26.4457 39.9229 26.416C39.9529 26.3864 39.9733 26.3486 39.9814 26.3076C39.9895 26.2666 39.985 26.2241 39.9685 26.1856C39.952 26.1471 39.9242 26.1143 39.8886 26.0913C39.8531 26.0683 39.8114 26.0562 39.7688 26.0565C39.7406 26.0565 39.7128 26.062 39.6868 26.0726C39.6608 26.0832 39.6372 26.0988 39.6173 26.1184C39.5975 26.138 39.5818 26.1612 39.5712 26.1868C39.5605 26.2124 39.5552 26.2398 39.5554 26.2674V26.2674Z" fill="#14279B"/>
<path d="M38.1943 26.2674C38.194 26.3093 38.2064 26.3503 38.2299 26.3852C38.2534 26.4201 38.2869 26.4474 38.3263 26.4635C38.3656 26.4797 38.409 26.484 38.4508 26.4759C38.4927 26.4678 38.5311 26.4477 38.5613 26.4181C38.5914 26.3885 38.6119 26.3508 38.6202 26.3097C38.6284 26.2687 38.624 26.2261 38.6076 26.1875C38.5911 26.1489 38.5633 26.116 38.5277 26.093C38.4921 26.0699 38.4504 26.0577 38.4077 26.058C38.3511 26.058 38.2968 26.0801 38.2568 26.1194C38.2168 26.1586 38.1943 26.2119 38.1943 26.2674Z" fill="#14279B"/>
<path d="M36.8333 26.269C36.8333 26.3107 36.8459 26.3516 36.8696 26.3863C36.8933 26.421 36.927 26.448 36.9664 26.464C37.0057 26.4799 37.049 26.484 37.0908 26.4757C37.1325 26.4674 37.1708 26.4472 37.2008 26.4176C37.2308 26.3879 37.2512 26.3502 37.2593 26.3092C37.2674 26.2682 37.2629 26.2257 37.2464 26.1872C37.2299 26.1487 37.2021 26.1158 37.1666 26.0929C37.131 26.0699 37.0893 26.0577 37.0467 26.058C37.0186 26.058 36.9907 26.0635 36.9647 26.0741C36.9387 26.0848 36.9151 26.1003 36.8952 26.1199C36.8754 26.1395 36.8597 26.1628 36.8491 26.1884C36.8384 26.2139 36.8331 26.2413 36.8333 26.269V26.269Z" fill="#14279B"/>
<path d="M35.4707 26.269C35.4704 26.3108 35.4828 26.3517 35.5062 26.3866C35.5296 26.4215 35.5631 26.4487 35.6023 26.4649C35.6416 26.4811 35.6849 26.4855 35.7267 26.4776C35.7685 26.4696 35.8069 26.4496 35.8371 26.4202C35.8674 26.3908 35.888 26.3532 35.8964 26.3122C35.9048 26.2713 35.9007 26.2288 35.8845 26.1902C35.8682 26.1515 35.8407 26.1185 35.8053 26.0953C35.7699 26.072 35.7283 26.0596 35.6857 26.0596C35.6289 26.0596 35.5745 26.0816 35.5342 26.1208C35.4939 26.1601 35.4711 26.2133 35.4707 26.269Z" fill="#14279B"/>
<path d="M34.1019 26.2705C34.0994 26.2996 34.1031 26.3289 34.1127 26.3565C34.1223 26.3841 34.1377 26.4095 34.1578 26.431C34.178 26.4525 34.2024 26.4697 34.2297 26.4814C34.2569 26.4932 34.2864 26.4993 34.3162 26.4993C34.3459 26.4993 34.3754 26.4932 34.4026 26.4814C34.4299 26.4697 34.4543 26.4525 34.4745 26.431C34.4946 26.4095 34.51 26.3841 34.5196 26.3565C34.5292 26.3289 34.5329 26.2996 34.5304 26.2705C34.5306 26.2429 34.5252 26.2156 34.5145 26.1901C34.5039 26.1646 34.4882 26.1414 34.4683 26.122C34.4484 26.1025 34.4248 26.0871 34.3988 26.0766C34.3729 26.0661 34.345 26.0609 34.3169 26.0611C34.2888 26.0609 34.2608 26.0661 34.2348 26.0766C34.2087 26.087 34.185 26.1024 34.165 26.1219C34.145 26.1413 34.1292 26.1645 34.1183 26.19C34.1075 26.2155 34.1019 26.2428 34.1019 26.2705V26.2705Z" fill="#14279B"/>
<path d="M34.4592 29.1079L39.6358 29.1049L39.877 27.2279L34.2149 27.2324L34.4592 29.1079Z" fill="#14279B"/>
<path opacity="0.1" d="M34.4592 29.1079L39.6358 29.1049L39.877 27.2279L34.2149 27.2324L34.4592 29.1079Z" fill="black"/>
<path opacity="0.1" d="M34.2149 27.2324L34.3355 28.1459L39.7858 27.9456L39.877 27.2279L34.2149 27.2324Z" fill="black"/>
<path d="M28.9501 51.3934L29.592 51.5103L29.7358 52.1734L29.8797 51.5103L30.52 51.3934L29.8812 51.2402L29.7358 50.6135L29.5889 51.2402L28.9501 51.3934Z" fill="#FCFCFC"/>
<path d="M35.1908 46.0736L35.8327 46.1889L35.975 46.8535L36.1188 46.1889L36.7607 46.0736L36.1219 45.9203L35.975 45.2936L35.8296 45.9203L35.1908 46.0736Z" fill="#FCFCFC"/>
<path d="M37.3375 30.2945L37.9794 30.4113L38.1232 31.0744L38.267 30.4113L38.9073 30.2945L38.2686 30.1413L38.1232 29.5146L37.9763 30.1413L37.3375 30.2945Z" fill="#FCFCFC"/>
<path d="M44.5138 52.6575L44.8711 52.7227L44.9515 53.0929L45.032 52.7227L45.3908 52.6575L45.0335 52.571L44.9515 52.2205L44.8696 52.571L44.5138 52.6575Z" fill="#FCFCFC"/>
<path d="M25.2212 53.7637L25.5801 53.8289L25.6589 54.1991L25.7394 53.8289L26.0982 53.7637L25.7409 53.6772L25.6589 53.3267L25.5785 53.6772L25.2212 53.7637Z" fill="#FCFCFC"/>
<path d="M49.4476 55.0625L49.8064 55.1278L49.8868 55.4995L49.9657 55.1278L50.3245 55.0625L49.9688 54.9776L49.8868 54.627L49.8049 54.9776L49.4476 55.0625Z" fill="#FCFCFC"/>
<path d="M33.8514 54.7544L34.2102 54.8197L34.2891 55.1899L34.3695 54.8197L34.7284 54.7544L34.3711 54.6679L34.2891 54.3189L34.2087 54.6679L33.8514 54.7544Z" fill="#FCFCFC"/>
<path d="M36.476 45.0646L36.8348 45.1299L36.9152 45.5001L36.9957 45.1299L37.3529 45.0646L36.9972 44.9797L36.9152 44.6292L36.8333 44.9797L36.476 45.0646Z" fill="#FCFCFC"/>
<path d="M35.5125 35.4627L35.8713 35.5279L35.9517 35.8982L36.0322 35.5279L36.3894 35.4627L36.0337 35.3777L35.9517 35.0272L35.8698 35.3777L35.5125 35.4627Z" fill="#FCFCFC"/>
<path d="M24.3722 54.5648C24.3977 54.5678 24.4211 54.5799 24.4382 54.5988C24.4552 54.6177 24.4646 54.642 24.4646 54.6672C24.4646 54.6924 24.4552 54.7167 24.4382 54.7356C24.4211 54.7545 24.3977 54.7666 24.3722 54.7696C24.3467 54.7666 24.3232 54.7545 24.3062 54.7356C24.2891 54.7167 24.2797 54.6924 24.2797 54.6672C24.2797 54.642 24.2891 54.6177 24.3062 54.5988C24.3232 54.5799 24.3467 54.5678 24.3722 54.5648Z" fill="#FCFCFC"/>
<path d="M37.8634 43.7778C37.8889 43.7809 37.9123 43.793 37.9294 43.8119C37.9464 43.8307 37.9558 43.8551 37.9558 43.8803C37.9558 43.9055 37.9464 43.9298 37.9294 43.9487C37.9123 43.9675 37.8889 43.9796 37.8634 43.9827C37.8379 43.9796 37.8144 43.9675 37.7974 43.9487C37.7803 43.9298 37.7709 43.9055 37.7709 43.8803C37.7709 43.8551 37.7803 43.8307 37.7974 43.8119C37.8144 43.793 37.8379 43.7809 37.8634 43.7778V43.7778Z" fill="#FCFCFC"/>
<path d="M36.1327 30.9728C36.1602 30.9728 36.1865 30.9835 36.2059 31.0026C36.2254 31.0216 36.2363 31.0475 36.2363 31.0744C36.2363 31.1014 36.2254 31.1273 36.2059 31.1463C36.1865 31.1654 36.1602 31.1761 36.1327 31.1761C36.1052 31.1761 36.0788 31.1654 36.0594 31.1463C36.04 31.1273 36.0291 31.1014 36.0291 31.0744C36.0291 31.0475 36.04 31.0216 36.0594 31.0026C36.0788 30.9835 36.1052 30.9728 36.1327 30.9728V30.9728Z" fill="#FCFCFC"/>
<path d="M46.7317 55.0625C46.7572 55.0656 46.7807 55.0777 46.7977 55.0965C46.8147 55.1154 46.8241 55.1397 46.8241 55.1649C46.8241 55.1901 46.8147 55.2145 46.7977 55.2333C46.7807 55.2522 46.7572 55.2643 46.7317 55.2673C46.7062 55.2643 46.6827 55.2522 46.6657 55.2333C46.6486 55.2145 46.6392 55.1901 46.6392 55.1649C46.6392 55.1397 46.6486 55.1154 46.6657 55.0965C46.6827 55.0777 46.7062 55.0656 46.7317 55.0625Z" fill="#FCFCFC"/>
<path d="M40.1446 53.662C40.1721 53.662 40.1985 53.6727 40.2179 53.6917C40.2373 53.7108 40.2483 53.7367 40.2483 53.7636C40.2483 53.7906 40.2373 53.8164 40.2179 53.8355C40.1985 53.8546 40.1721 53.8653 40.1446 53.8653C40.1172 53.8653 40.0908 53.8546 40.0714 53.8355C40.0519 53.8164 40.041 53.7906 40.041 53.7636C40.041 53.7367 40.0519 53.7108 40.0714 53.6917C40.0908 53.6727 40.1172 53.662 40.1446 53.662V53.662Z" fill="#FCFCFC"/>
<path d="M26.9766 52.7318C26.9943 52.7343 27.0104 52.743 27.0221 52.7562C27.0338 52.7695 27.0402 52.7864 27.0402 52.8039C27.0402 52.8214 27.0338 52.8383 27.0221 52.8515C27.0104 52.8648 26.9943 52.8734 26.9766 52.876C26.959 52.8734 26.9429 52.8648 26.9312 52.8515C26.9195 52.8383 26.9131 52.8214 26.9131 52.8039C26.9131 52.7864 26.9195 52.7695 26.9312 52.7562C26.9429 52.743 26.959 52.7343 26.9766 52.7318Z" fill="#FCFCFC"/>
<path d="M36.0615 51.6499C36.0792 51.6525 36.0953 51.6611 36.107 51.6744C36.1187 51.6876 36.1251 51.7045 36.1251 51.722C36.1251 51.7395 36.1187 51.7564 36.107 51.7697C36.0953 51.7829 36.0792 51.7916 36.0615 51.7941C36.0439 51.7916 36.0278 51.7829 36.0161 51.7697C36.0044 51.7564 35.998 51.7395 35.998 51.722C35.998 51.7045 36.0044 51.6876 36.0161 51.6744C36.0278 51.6611 36.0439 51.6525 36.0615 51.6499V51.6499Z" fill="#FCFCFC"/>
<path d="M37.3499 33.352C37.3676 33.3545 37.3837 33.3632 37.3954 33.3764C37.407 33.3896 37.4135 33.4066 37.4135 33.4241C37.4135 33.4416 37.407 33.4585 37.3954 33.4717C37.3837 33.4849 37.3676 33.4936 37.3499 33.4961C37.3322 33.4936 37.3161 33.4849 37.3044 33.4717C37.2928 33.4585 37.2863 33.4416 37.2863 33.4241C37.2863 33.4066 37.2928 33.3896 37.3044 33.3764C37.3161 33.3632 37.3322 33.3545 37.3499 33.352Z" fill="#FCFCFC"/>
<path d="M42.712 50.2403C42.7296 50.2428 42.7458 50.2515 42.7574 50.2648C42.7691 50.278 42.7755 50.2949 42.7755 50.3124C42.7755 50.3299 42.7691 50.3468 42.7574 50.3601C42.7458 50.3733 42.7296 50.382 42.712 50.3845C42.6943 50.382 42.6782 50.3733 42.6665 50.3601C42.6549 50.3468 42.6484 50.3299 42.6484 50.3124C42.6484 50.2949 42.6549 50.278 42.6665 50.2648C42.6782 50.2515 42.6943 50.2428 42.712 50.2403V50.2403Z" fill="#FCFCFC"/>
<path d="M31.3334 50.5346C31.3864 50.5346 31.4371 50.5553 31.4745 50.592C31.5119 50.6287 31.533 50.6785 31.533 50.7304C31.533 50.7823 31.5119 50.8321 31.4745 50.8688C31.4371 50.9055 31.3864 50.9261 31.3334 50.9261C31.2805 50.9261 31.2298 50.9055 31.1924 50.8688C31.1549 50.8321 31.1339 50.7823 31.1339 50.7304C31.1339 50.6785 31.1549 50.6287 31.1924 50.592C31.2298 50.5553 31.2805 50.5346 31.3334 50.5346V50.5346Z" fill="#FCFCFC"/>
<path d="M41.7702 49.5772C41.8231 49.5772 41.8738 49.5979 41.9112 49.6346C41.9486 49.6713 41.9697 49.7211 41.9697 49.773C41.9697 49.8249 41.9486 49.8747 41.9112 49.9114C41.8738 49.9481 41.8231 49.9687 41.7702 49.9687C41.7172 49.9687 41.6665 49.9481 41.6291 49.9114C41.5917 49.8747 41.5706 49.8249 41.5706 49.773C41.5706 49.7211 41.5917 49.6713 41.6291 49.6346C41.6665 49.5979 41.7172 49.5772 41.7702 49.5772V49.5772Z" fill="#FCFCFC"/>
<path d="M36.9153 37.7767C36.9682 37.7767 37.019 37.7973 37.0564 37.834C37.0938 37.8707 37.1148 37.9205 37.1148 37.9724C37.1148 38.0243 37.0938 38.0741 37.0564 38.1108C37.019 38.1475 36.9682 38.1682 36.9153 38.1682C36.8624 38.1682 36.8116 38.1475 36.7742 38.1108C36.7368 38.0741 36.7158 38.0243 36.7158 37.9724C36.7158 37.9205 36.7368 37.8707 36.7742 37.834C36.8116 37.7973 36.8624 37.7767 36.9153 37.7767V37.7767Z" fill="#FCFCFC"/>
<path d="M45.2734 45H30V49.62H45.2734V45Z" fill="#37474F"/>
<path d="M34.32 46.7683C34.2942 46.7423 34.2655 46.7193 34.2345 46.6998C34.1932 46.6734 34.1493 46.6511 34.1036 46.633C34.0506 46.6111 33.9958 46.5939 33.9396 46.5817C33.8824 46.5685 33.8239 46.5616 33.7651 46.5612C33.6572 46.5531 33.5495 46.5796 33.4581 46.6365C33.4262 46.6605 33.4007 46.6918 33.3837 46.7275C33.3667 46.7632 33.3587 46.8025 33.3604 46.8419C33.3587 46.885 33.3696 46.9278 33.3918 46.9651C33.4159 46.9996 33.4483 47.0278 33.486 47.0473C33.5372 47.0748 33.5917 47.0961 33.6482 47.1106C33.7111 47.1294 33.7861 47.1483 33.8733 47.1705C33.9698 47.1919 34.0648 47.2194 34.1577 47.2527C34.2352 47.2795 34.3081 47.3175 34.3741 47.3657C34.4312 47.4085 34.4778 47.4635 34.5101 47.5266C34.5435 47.6003 34.5596 47.6804 34.5573 47.7611C34.5603 47.8535 34.5399 47.9453 34.4979 48.0281C34.4594 48.1014 34.4031 48.1643 34.3339 48.2113C34.2604 48.2591 34.1789 48.2938 34.0932 48.314C33.996 48.3364 33.8964 48.3473 33.7965 48.3465C33.6413 48.3476 33.4869 48.3238 33.3394 48.2763C33.1948 48.2318 33.0595 48.1623 32.9399 48.0709L33.0882 47.7953C33.122 47.8266 33.1588 47.8547 33.1981 47.8792C33.2531 47.913 33.3116 47.9411 33.3726 47.9631C33.4392 47.9909 33.508 48.0132 33.5785 48.0298C33.6537 48.0485 33.7311 48.0577 33.8088 48.0572C33.9132 48.063 34.0172 48.0398 34.1089 47.9904C34.1427 47.9703 34.1704 47.9415 34.1888 47.9071C34.2072 47.8728 34.2158 47.8341 34.2135 47.7953C34.2149 47.7493 34.2008 47.7042 34.1734 47.6669C34.1434 47.629 34.1053 47.598 34.0617 47.5762C34.0061 47.5471 33.9477 47.5236 33.8873 47.506L33.6482 47.4393C33.5565 47.4166 33.4662 47.3886 33.3778 47.3554C33.3082 47.3302 33.2433 47.2937 33.1859 47.2476C33.1373 47.2066 33.0976 47.1566 33.069 47.1003C33.0414 47.0353 33.0284 46.9653 33.0306 46.8949C33.0289 46.8028 33.0485 46.7115 33.0882 46.6279C33.1266 46.5522 33.1814 46.4856 33.2487 46.4328C33.3197 46.3784 33.4009 46.3382 33.4877 46.3147C33.5845 46.2864 33.6851 46.2726 33.7861 46.2736C33.9188 46.2723 34.0507 46.2949 34.1752 46.3403C34.2864 46.3802 34.3915 46.435 34.4875 46.503L34.32 46.7683Z" fill="white"/>
<path d="M36.5096 46.5731H35.8117V48.3311H35.4802V46.5731H34.7823V46.289H36.4974L36.5096 46.5731Z" fill="white"/>
<path d="M37.3105 46.289H37.5984L38.4167 48.3311H38.0677L37.8479 47.7765H37.0453L36.8342 48.3311H36.4852L37.3105 46.289ZM37.7885 47.5351L37.4605 46.6587L37.1116 47.5351H37.7885Z" fill="white"/>
<path d="M38.7917 48.3311V46.289H39.6973C39.7866 46.2882 39.875 46.3075 39.9555 46.3455C40.0322 46.3832 40.1014 46.4343 40.1596 46.4961C40.2159 46.5589 40.2607 46.6307 40.2922 46.7084C40.3237 46.7857 40.3402 46.8682 40.3411 46.9514C40.341 47.0187 40.331 47.0856 40.3114 47.15C40.2923 47.2105 40.2647 47.2681 40.2294 47.3212C40.1945 47.3746 40.1508 47.422 40.1003 47.4615C40.0483 47.5011 39.9891 47.5308 39.9258 47.5488L40.4266 48.3311H40.0549L39.6031 47.6207H39.1232V48.3311H38.7917ZM39.1198 47.3366H39.6938C39.738 47.3369 39.7816 47.3269 39.8211 47.3075C39.8595 47.2868 39.8928 47.2581 39.9188 47.2236C39.9472 47.1869 39.969 47.1458 39.9834 47.1021C39.999 47.0545 40.0067 47.0048 40.0061 46.9549C40.0053 46.857 39.9695 46.7625 39.9049 46.6878C39.8757 46.6541 39.8402 46.6262 39.8002 46.6057C39.7616 46.587 39.7193 46.5771 39.6763 46.5766H39.1198V47.3366Z" fill="white"/>
<path d="M42.3458 46.5731H41.6479V48.3311H41.3164V46.5731H40.6185V46.289H42.3458V46.5731Z" fill="white"/>
<path d="M44.6279 50H30.6456L30 49.62H45.2717L44.6279 50Z" fill="#263238"/>
<path d="M8.83636 62.3519C8.81007 62.6887 9.79217 62.7858 10.202 62.5673C10.5333 62.3346 10.8489 62.0812 11.147 61.8087C12.1322 60.9544 13.4932 59.7041 13.4932 59.7041L14.5016 60.1502L19.4276 61.7586L21.5048 56.4873C21.5048 56.4873 19.1214 55.4979 16.8556 54.6118C16.5061 54.4752 16.1627 54.3432 15.8287 54.2158L15.7668 54.1915C14.2465 53.6179 12.9829 53.1839 12.8576 53.2811C12.508 53.5056 8.86265 62.012 8.83636 62.3519Z" fill="#D3766A"/>
<path d="M8.83632 62.3519C8.81003 62.6903 9.79213 62.7859 10.202 62.5689C10.5334 62.3364 10.8491 62.083 11.147 61.8102C12.1322 60.9575 13.4932 59.7072 13.4932 59.7072L14.5016 60.1518L14.6655 60.2049L16.9344 54.6361L16.8618 54.6073L15.8348 54.2128L15.7729 54.1885C14.2526 53.615 12.989 53.1795 12.8622 53.269C12.508 53.5072 8.86262 62.0136 8.83632 62.3519Z" fill="#EBEBEB"/>
<path d="M8.74976 62.4763C8.76987 62.1303 12.3735 53.4237 12.7246 53.1779C12.8561 53.0823 14.18 53.5238 15.7637 54.102L15.8132 54.1202L13.5536 59.7617L13.4577 59.7223C13.4577 59.7223 10.5593 62.4535 10.1433 62.6796C9.72723 62.9057 8.72656 62.8207 8.74976 62.4763Z" fill="#14279B"/>
<path d="M9.13323 62.5142C9.77818 61.0621 12.2358 55.1414 12.7601 53.6574C12.7601 53.6452 12.7601 53.6422 12.7508 53.6574C12.0796 55.0837 9.67146 61.0242 9.11004 62.5097C9.09766 62.5355 9.12086 62.5446 9.13323 62.5142Z" fill="#263238"/>
<path d="M13.2783 60.3809C13.6278 59.8467 13.8288 59.1047 13.5876 58.4963C13.5783 58.4735 13.5443 58.4857 13.5427 58.5069C13.4963 59.1312 13.3817 59.7487 13.2009 60.349C13.1966 60.3591 13.1966 60.3704 13.2008 60.3805C13.205 60.3906 13.2131 60.3986 13.2233 60.4029C13.2336 60.4071 13.2451 60.4071 13.2554 60.403C13.2657 60.3989 13.2739 60.3909 13.2783 60.3809V60.3809Z" fill="#263238"/>
<path d="M12.8498 60.6965C13.1994 60.1623 13.4004 59.4204 13.1591 58.8119C13.1499 58.7876 13.1158 58.8013 13.1143 58.8225C13.067 59.4467 12.9524 60.0641 12.7725 60.6646C12.7682 60.6747 12.7681 60.686 12.7723 60.6961C12.7765 60.7062 12.7847 60.7142 12.7949 60.7185C12.8052 60.7227 12.8167 60.7227 12.827 60.7186C12.8373 60.7145 12.8455 60.7065 12.8498 60.6965Z" fill="#263238"/>
<path d="M12.4214 61.0106C12.7694 60.4764 12.972 59.7344 12.7308 59.126C12.7215 59.1032 12.6874 59.1154 12.6859 59.1366C12.6389 59.7609 12.5238 60.3785 12.3426 60.9787C12.3382 60.9889 12.3383 61.0005 12.3426 61.0107C12.347 61.021 12.3553 61.0291 12.3658 61.0333C12.3762 61.0375 12.388 61.0375 12.3984 61.0332C12.4088 61.029 12.4171 61.0208 12.4214 61.0106V61.0106Z" fill="#263238"/>
<path d="M13.5195 61.0515C13.3648 60.5129 13.453 59.9287 13.47 59.3824C13.4716 59.3704 13.4761 59.3588 13.483 59.3487C13.4899 59.3386 13.4991 59.3302 13.5099 59.3242C13.5207 59.3182 13.5328 59.3147 13.5452 59.314C13.5576 59.3133 13.5699 59.3154 13.5814 59.3202C13.5814 59.3126 13.5984 59.3066 13.6076 59.3202C14.0567 59.7028 14.3949 60.1948 14.5882 60.7465C14.6949 61.0697 14.664 61.5492 14.251 61.657C13.8613 61.7389 13.6107 61.3641 13.5195 61.0515ZM13.9324 61.3869C14.5372 61.745 14.4784 60.9317 14.3964 60.695C14.3374 60.5434 14.2671 60.3964 14.1861 60.2549C14.0166 59.9639 13.8318 59.6818 13.6324 59.4097C13.6417 59.6798 13.6324 59.9469 13.6231 60.217C13.6154 60.5387 13.5999 61.1911 13.9324 61.3869V61.3869Z" fill="#263238"/>
<path d="M15.3027 57.7437C15.6121 58.0289 15.4002 58.4629 15.1481 58.692C14.7035 59.0798 14.1626 59.3457 13.5798 59.4628C13.5773 59.4633 13.5748 59.4632 13.5723 59.4625C13.5699 59.4619 13.5676 59.4608 13.5657 59.4592C13.5638 59.4576 13.5623 59.4556 13.5612 59.4533C13.5602 59.4511 13.5597 59.4486 13.5597 59.4461C13.5473 59.4449 13.5354 59.4408 13.5249 59.4343C13.5144 59.4278 13.5055 59.419 13.4991 59.4085C13.4926 59.3981 13.4888 59.3863 13.4877 59.3741C13.4867 59.362 13.4886 59.3497 13.4932 59.3384C13.753 58.8528 13.9695 58.3005 14.3732 57.9075C14.6052 57.6769 15.0104 57.4736 15.3027 57.7437ZM14.0376 58.6799C13.9046 58.9166 13.7824 59.1578 13.6401 59.3885C13.9501 59.2473 14.2526 59.0908 14.5464 58.9196C14.687 58.834 14.8218 58.7398 14.9501 58.6374C15.145 58.475 15.6028 57.7922 14.8975 57.8135C14.5078 57.8256 14.1969 58.3992 14.0376 58.6799Z" fill="#263238"/>
<path opacity="0.1" d="M8.74976 62.4763C8.72657 62.8223 9.72878 62.9087 10.1417 62.6796C10.5547 62.4505 13.4561 59.7223 13.4561 59.7223L13.552 59.7632L15.3399 55.3037L11.8214 54.9926C10.6428 57.6283 8.76368 62.2274 8.74976 62.4763Z" fill="black"/>
<path d="M15.3971 61.1213C15.3971 61.1213 26.1059 63.5339 30.0452 62.8375C31.929 62.5036 33.2931 60.1244 32.3837 58.302C31.5392 56.6011 26.3704 54.8743 24.9104 53.8729C24.4464 53.5603 24.499 52.316 24.499 52.316L20.6633 52.266C20.6633 52.266 19.2961 54.3979 19.8746 55.4357C19.8838 55.4524 19.8947 55.4691 19.907 55.4873L18.1717 54.8409L15.3971 61.1213Z" fill="#37474F"/>
<path d="M17.7681 58.2808C18.1949 57.3704 18.6636 56.4812 19.0982 55.5754C19.1059 55.5587 19.1337 55.5678 19.126 55.586C18.7162 56.4964 18.3388 57.425 17.9119 58.3309C17.485 59.2368 17.0226 60.132 16.5741 61.0318C16.5632 61.0561 16.5246 61.0424 16.5354 61.0182C16.9484 60.1077 17.3427 59.1882 17.7681 58.2808Z" fill="#263238"/>
<path d="M19.8823 55.5298C20.1468 55.6816 20.3989 55.8561 20.6556 56.02C20.9124 56.1838 21.1645 56.3386 21.4289 56.4903C21.9532 56.7938 22.4884 57.0806 23.0312 57.3522C24.1238 57.9019 25.2528 58.3789 26.4106 58.78C27.0571 59.0031 27.7098 59.2201 28.3733 59.387C28.3887 59.387 28.381 59.4113 28.3733 59.4082C27.8892 59.2944 27.4051 59.1837 26.9272 59.0501C27.1808 59.2019 27.4298 59.3703 27.6819 59.5296C27.6837 59.5316 27.6847 59.534 27.6849 59.5366C27.6851 59.5392 27.6845 59.5417 27.6831 59.5439C27.6817 59.5461 27.6797 59.5478 27.6772 59.5488C27.6748 59.5498 27.6721 59.55 27.6696 59.5493C27.3943 59.3855 27.1143 59.2292 26.8406 59.0623C26.8373 59.0604 26.8346 59.0579 26.8324 59.055C26.8302 59.052 26.8287 59.0486 26.828 59.045C26.8272 59.0414 26.8273 59.0377 26.8281 59.0342C26.829 59.0306 26.8306 59.0272 26.8328 59.0243L26.5885 58.9545C25.9961 58.774 25.4115 58.5722 24.8377 58.3476C23.7013 57.8985 22.606 57.3554 21.5635 56.724C21.2696 56.545 20.9794 56.3609 20.6927 56.1717C20.4044 55.9871 20.1285 55.7843 19.8668 55.5647C19.8344 55.5465 19.8607 55.5177 19.8823 55.5298Z" fill="#263238"/>
<path d="M4.72697 63.6432C4.70068 63.9801 5.68278 64.0757 6.09264 63.8587C6.42388 63.6259 6.73953 63.3725 7.03763 63.1C8.02128 62.2457 9.38386 60.9954 9.38386 60.9954L10.3907 61.44L15.1698 63.0439L17.3985 57.7725C17.3985 57.7725 15.0151 56.7832 12.7478 55.8971L11.7224 55.5026L11.6605 55.4783C10.1386 54.9047 8.87656 54.4708 8.74974 54.5588C8.39866 54.797 4.75327 63.3033 4.72697 63.6432Z" fill="#D3766A"/>
<path d="M4.72695 63.6432C4.70066 63.9801 5.68277 64.0772 6.09262 63.8587C6.42386 63.6259 6.73951 63.3725 7.03761 63.1C8.02127 62.2457 9.38384 60.9954 9.38384 60.9954L10.3907 61.4415L10.5252 61.487L12.8746 55.9517L12.7447 55.9016C12.3967 55.765 12.0533 55.633 11.7192 55.5056L11.6574 55.4813C10.1355 54.9077 8.87345 54.4738 8.74663 54.5633C8.39864 54.797 4.75325 63.3033 4.72695 63.6432Z" fill="#EBEBEB"/>
<path d="M4.63726 63.7191C4.66355 63.3731 8.38782 54.7165 8.74355 54.4753C8.87656 54.3812 10.1943 54.841 11.7687 55.4403L11.8182 55.4585L9.47974 61.0728L9.38385 61.0318C9.38385 61.0318 6.44526 63.7191 6.02767 63.9436C5.61009 64.1682 4.60942 64.0635 4.63726 63.7191Z" fill="#14279B"/>
<path d="M5.02544 63.7615C5.69048 62.3185 8.23159 56.4311 8.776 54.9608C8.776 54.9487 8.776 54.9456 8.76672 54.9608C8.07538 56.378 5.58377 62.2851 5.00224 63.7615C4.98522 63.7828 5.00688 63.7919 5.02544 63.7615Z" fill="#263238"/>
<path d="M9.20135 61.6857C9.55862 61.1562 9.77051 60.4172 9.5416 59.8057C9.53387 59.7814 9.4983 59.7936 9.49675 59.8148C9.43907 60.4367 9.31359 61.0507 9.12247 61.6463C9.11713 61.6565 9.11618 61.6685 9.1198 61.6794C9.12343 61.6904 9.13134 61.6995 9.1418 61.7047C9.15226 61.7099 9.16441 61.7109 9.17557 61.7073C9.18674 61.7037 9.19601 61.696 9.20135 61.6857V61.6857Z" fill="#263238"/>
<path d="M8.76208 61.9938C9.11935 61.4658 9.33123 60.7253 9.10233 60.1138C9.0946 60.091 9.05903 60.1032 9.05749 60.1244C9.00225 60.7481 8.87885 61.3642 8.68939 61.962C8.68673 61.9711 8.68751 61.9809 8.6916 61.9895C8.69569 61.9981 8.70281 62.0049 8.71165 62.0088C8.72048 62.0127 8.73045 62.0133 8.73972 62.0106C8.74898 62.0078 8.75692 62.0019 8.76208 61.9938V61.9938Z" fill="#263238"/>
<path d="M8.32903 62.3034C8.6863 61.7738 8.89819 61.0349 8.66929 60.4234C8.66156 60.3991 8.62753 60.4128 8.62444 60.434C8.5692 61.0572 8.4458 61.6727 8.25634 62.27C8.25261 62.2793 8.25264 62.2897 8.25642 62.299C8.26021 62.3083 8.26747 62.3159 8.27673 62.3201C8.28599 62.3244 8.29655 62.325 8.30626 62.3219C8.31598 62.3188 8.32412 62.3122 8.32903 62.3034V62.3034Z" fill="#263238"/>
<path d="M9.42719 62.358C9.28026 61.8178 9.37615 61.2351 9.40245 60.6889C9.40398 60.6768 9.4084 60.6653 9.41535 60.6552C9.42229 60.6451 9.43156 60.6367 9.44242 60.6308C9.45327 60.6249 9.46539 60.6216 9.4778 60.6211C9.4902 60.6207 9.50254 60.6231 9.5138 60.6282C9.5138 60.6282 9.53082 60.6145 9.5401 60.6282C9.98358 61.0171 10.3148 61.5138 10.5006 62.0682C10.6026 62.3929 10.564 62.8724 10.151 62.9665C9.73807 63.0605 9.51071 62.6736 9.42719 62.358ZM9.8355 62.6994C10.434 63.0666 10.3877 62.2442 10.2995 62.0136C10.241 61.8618 10.1728 61.7138 10.0953 61.5705C9.94067 61.267 9.73961 61 9.55247 60.7177C9.55247 60.9878 9.53855 61.2564 9.53237 61.5265C9.53082 61.8482 9.51071 62.4961 9.8355 62.6994V62.6994Z" fill="#263238"/>
<path d="M11.2568 59.0744C11.5661 59.3642 11.3434 59.7952 11.0851 60.0213C10.6355 60.4027 10.0914 60.6613 9.50758 60.7708C9.49366 60.7708 9.48748 60.7633 9.48593 60.7526C9.47368 60.7513 9.46193 60.7471 9.45161 60.7405C9.4413 60.7338 9.43272 60.7249 9.42655 60.7144C9.42039 60.704 9.41681 60.6922 9.41611 60.6801C9.41541 60.6681 9.4176 60.656 9.42252 60.6449C9.68854 60.1624 9.91125 59.6146 10.3211 59.2262C10.5608 59.0001 10.9691 58.8013 11.2568 59.0744ZM9.97775 59.9955C9.84165 60.2291 9.71793 60.4689 9.571 60.698C9.88279 60.5614 10.1873 60.4095 10.4835 60.2428C10.6261 60.1604 10.7626 60.0681 10.8918 59.9666C11.0882 59.8073 11.5553 59.1306 10.8501 59.1427C10.4603 59.1473 10.1417 59.7163 9.97466 59.9955H9.97775Z" fill="#263238"/>
<path d="M23.1797 52.2917L16.5834 52.1946C16.5834 52.1946 15.1914 55.6846 15.7637 56.727C16.3359 57.7694 22.4142 59.2504 22.4142 59.2504L14.0624 56.1322L11.2785 62.411C11.2785 62.411 21.4429 64.5824 26.8329 64.0437C28.8543 63.8419 30.1225 61.2518 28.9378 59.261C27.6928 57.167 23.1736 54.3022 23.1736 54.3022L23.1797 52.2917Z" fill="#37474F"/>
<path d="M14.2851 56.1171C16.8401 57.2627 19.4199 58.3582 22.0569 59.3126C22.424 59.4462 22.791 59.5777 23.1581 59.7072C23.5386 59.8407 23.9175 59.9955 24.3072 60.1032C24.3258 60.1032 24.3165 60.1381 24.298 60.132C23.9623 60.0076 23.6128 59.9196 23.271 59.8103C22.9292 59.7011 22.6044 59.5934 22.2734 59.4811L21.8435 59.3293L21.9301 59.3885C22.0615 59.4735 22.193 59.56 22.3229 59.6495C22.5889 59.8346 22.8379 60.0531 23.1179 60.217C23.1349 60.2261 23.1179 60.2534 23.1009 60.2413C22.8348 60.0562 22.5348 59.9181 22.2611 59.7436C22.1296 59.6586 21.9997 59.5691 21.8698 59.4796C21.7483 59.4018 21.6335 59.3145 21.5264 59.2186C21.1057 59.0668 20.6866 58.9151 20.2705 58.7634C18.9559 58.2738 17.6583 57.7447 16.3777 57.1762C15.6616 56.8576 14.9532 56.5268 14.2526 56.1778C14.2171 56.1626 14.2464 56.0989 14.2851 56.1171Z" fill="#263238"/>
<path d="M13.5103 59.522C13.9371 58.6116 14.4058 57.7224 14.8404 56.8166C14.8481 56.7999 14.8775 56.809 14.8697 56.8272C14.4599 57.7376 14.081 58.6662 13.6541 59.5721C13.2272 60.478 12.7648 61.3747 12.3178 62.2745C12.3054 62.2973 12.2668 62.2852 12.2792 62.2609C12.6921 61.3429 13.0849 60.4234 13.5103 59.522Z" fill="#263238"/>
<path d="M23.288 54.3706C24.0137 54.7752 24.7099 55.229 25.3713 55.7287C26.0332 56.2097 26.6735 56.718 27.2844 57.2612C27.5938 57.5343 27.8907 57.8196 28.1784 58.114C28.4576 58.3908 28.7112 58.6914 28.9362 59.0122C29.336 59.5923 29.5285 60.286 29.4837 60.9848C29.4571 61.3562 29.3682 61.7207 29.2208 62.0637C29.0623 62.3987 28.8567 62.7103 28.6099 62.9893C28.6006 63.0014 28.5836 62.9893 28.5944 62.9726C28.826 62.7154 29.0013 62.4143 29.1095 62.0879C29.2843 61.6242 29.352 61.1281 29.3076 60.6356C29.2632 60.143 29.1078 59.6663 28.8527 59.2398C28.4475 58.5798 27.8521 58.0335 27.286 57.5085C26.7013 56.9677 26.0891 56.4562 25.4517 55.976C25.0949 55.7059 24.7341 55.4424 24.3691 55.1854C24.0025 54.9275 23.6282 54.6802 23.2694 54.4101C23.2657 54.4068 23.2632 54.4025 23.2622 54.3977C23.2612 54.393 23.2618 54.3881 23.2639 54.3836C23.266 54.3792 23.2694 54.3756 23.2738 54.3733C23.2781 54.3709 23.2831 54.37 23.288 54.3706V54.3706Z" fill="#263238"/>
<path d="M21.3702 54.6315C21.9185 54.4652 22.4839 54.3589 23.056 54.3144C23.6174 54.2537 24.1804 54.2233 24.7465 54.2158C24.7619 54.2158 24.7604 54.237 24.7465 54.2385C24.1727 54.2886 23.6004 54.3599 23.0328 54.4434C22.4652 54.5268 21.9316 54.6406 21.3764 54.6846C21.3439 54.6861 21.3439 54.6406 21.3702 54.6315Z" fill="#263238"/>
<path d="M16.885 54.7075C17.2367 54.6994 17.5876 54.6685 17.9352 54.6149C18.2273 54.6011 18.511 54.5144 18.7595 54.363C19.2235 54.0186 19.4184 53.4131 19.5174 52.873C19.5174 52.8608 19.5421 52.8639 19.5405 52.873C19.4601 53.4602 19.4338 54.1354 18.9064 54.5299C18.643 54.7079 18.3308 54.8037 18.0109 54.8046C17.6342 54.8198 17.2569 54.7969 16.885 54.7363C16.8831 54.7363 16.8812 54.7359 16.8794 54.7352C16.8776 54.7345 16.876 54.7334 16.8746 54.7321C16.8732 54.7307 16.8722 54.7291 16.8714 54.7274C16.8707 54.7256 16.8703 54.7238 16.8703 54.7219C16.8703 54.72 16.8707 54.7181 16.8714 54.7164C16.8722 54.7146 16.8732 54.713 16.8746 54.7117C16.876 54.7103 16.8776 54.7093 16.8794 54.7086C16.8812 54.7078 16.8831 54.7075 16.885 54.7075V54.7075Z" fill="#263238"/>
<path d="M16.1611 55.6406C16.1974 55.2997 16.2594 54.9619 16.3467 54.63C16.4287 54.2886 16.5277 53.9518 16.6375 53.618C16.7628 53.2401 16.9081 52.8669 17.0597 52.4981C17.0597 52.4845 17.0876 52.4981 17.0829 52.4981C16.8648 53.1233 16.6653 53.756 16.4998 54.3964C16.4174 54.714 16.3441 55.0326 16.2802 55.3523C16.2037 55.6614 16.2037 55.984 16.2802 56.2931C16.3708 56.607 16.5543 56.8874 16.8076 57.0988C16.8076 57.0988 16.8076 57.1064 16.8076 57.0988C16.5862 56.9264 16.4114 56.7032 16.2987 56.4489C16.1859 56.1946 16.1387 55.917 16.1611 55.6406V55.6406Z" fill="#263238"/>
<path d="M15.0306 57.5601C15.476 57.6739 15.9122 57.8242 16.3499 57.9637C16.7876 58.1033 17.2253 58.2414 17.663 58.3841C18.5368 58.6708 19.4076 58.9667 20.2783 59.2611C20.7732 59.4295 21.2635 59.6086 21.7553 59.7846C21.7693 59.7846 21.7631 59.8104 21.7553 59.8058C19.9953 59.2697 18.2466 58.7012 16.5092 58.1003C16.0158 57.9304 15.5147 57.7726 15.0322 57.5753C15.0167 57.5708 15.0213 57.5571 15.0306 57.5601Z" fill="#263238"/>
<path d="M27.7918 47.4058L26.6782 47.6395C26.2279 47.0824 25.9662 46.4013 25.9296 45.6912C25.9188 45.5289 25.7131 46.5106 26.1121 47.7594C24.9367 48.0082 23.3359 48.3436 21.9362 48.6258C21.8048 48.0917 21.6594 47.6046 21.6594 47.6046C21.6829 47.9653 21.6736 48.3274 21.6315 48.6865C21.4413 48.7275 21.2526 48.7624 21.0732 48.7988C20.9333 48.0309 20.7505 47.271 20.5257 46.5227C20.5792 47.3399 20.4951 48.1602 20.2767 48.9505C19.3858 49.1205 18.7966 49.2145 18.826 49.166C19.8808 47.3983 18.7239 46.7094 18.8492 45.3028C19.0038 43.6155 20.3571 43.0996 20.0865 41.9054C19.8653 40.9328 19.3982 39.1817 20.5845 38.5672C20.8624 38.1772 21.251 37.876 21.7019 37.7009C22.1529 37.5259 22.6463 37.4846 23.1209 37.5824C25.2568 37.9587 25.0527 41.1224 25.3079 41.7112C25.6698 42.5518 26.1554 42.7809 26.6658 43.7217C27.1762 44.6624 26.8468 45.4317 26.9256 46.1267C27.0045 46.8217 28.0145 47.3618 27.7918 47.4058Z" fill="#263238"/>
<path d="M18.744 48.9611C18.8781 48.6626 18.9682 48.3468 19.0116 48.0234C19.0337 47.7072 18.9714 47.3907 18.8306 47.1054C18.6972 46.7997 18.5805 46.4871 18.4811 46.1692C18.3789 45.8371 18.3458 45.4883 18.3837 45.1434C18.4302 44.7976 18.556 44.4666 18.7518 44.1754C18.9442 43.899 19.1588 43.6382 19.3936 43.3954C19.6217 43.1627 19.8181 42.9021 19.9782 42.6201C20.1272 42.3292 20.1919 42.0038 20.1654 41.6793C20.2429 42.009 20.2165 42.354 20.0896 42.6686C19.9533 42.978 19.7703 43.2654 19.5467 43.5214C19.3346 43.7688 19.1388 44.0293 18.9606 44.3013C18.7946 44.5669 18.6891 44.8645 18.6512 45.1738C18.62 45.4856 18.6478 45.8005 18.7332 46.1024C18.8121 46.4059 18.9327 46.7094 19.0425 47.0326C19.0976 47.1936 19.1405 47.3584 19.1709 47.5257C19.1962 47.6978 19.1905 47.873 19.1539 48.0431C19.0745 48.3708 18.9357 48.6817 18.744 48.9611V48.9611Z" fill="#263238"/>
<path d="M24.4603 38.4974C24.6715 38.8485 24.8383 39.2235 24.9568 39.6142C25.0836 40.0011 25.1919 40.3941 25.2955 40.7856L25.4502 41.3698C25.4983 41.559 25.5656 41.743 25.6512 41.9191C25.8386 42.2641 26.0886 42.5726 26.389 42.8295C26.5421 42.9711 26.6847 43.1232 26.8158 43.2847C26.9476 43.4529 27.0597 43.6351 27.1499 43.8279C27.2339 44.0202 27.3027 44.2186 27.3556 44.4212C27.4102 44.6253 27.4388 44.8353 27.4407 45.0464C27.4407 45.2573 27.4237 45.4606 27.4113 45.6533C27.3976 45.8506 27.4033 46.0488 27.4283 46.2451C27.46 46.4405 27.5387 46.6257 27.6578 46.7853C27.777 46.9449 27.9332 47.0744 28.1135 47.1631C27.9133 47.0914 27.7345 46.9721 27.593 46.8159C27.4516 46.6596 27.3519 46.4713 27.303 46.2678C27.2594 46.0648 27.2371 45.8578 27.2365 45.6503C27.2365 45.4439 27.2474 45.2436 27.2365 45.0433C27.2033 44.6543 27.0985 44.2744 26.9272 43.922C26.842 43.7488 26.7383 43.5851 26.6179 43.4334C26.4921 43.2797 26.3557 43.1347 26.2096 42.9994C26.0579 42.8551 25.9138 42.7031 25.7781 42.5442C25.6387 42.3808 25.5217 42.2002 25.4301 42.0071C25.3439 41.8146 25.2771 41.6144 25.2306 41.4092C25.1811 41.212 25.1393 41.0132 25.0975 40.8144C25.0109 40.4184 24.9321 40.0224 24.8362 39.6309C24.7502 39.2416 24.6243 38.8618 24.4603 38.4974Z" fill="#263238"/>
<path d="M21.7507 44.2892C22.9091 46.0933 25.1718 48.5378 26.7385 49.3921C27.4144 49.7608 30.3684 49.8973 32.1672 49.7441C32.8384 49.6864 32.1301 46.195 31.3939 46.1783C30.8928 46.1677 28.282 46.5895 27.9093 46.4651C27.2226 46.2375 24.6784 44.3529 22.9323 43.403C21.9579 42.8735 21.0299 43.1663 21.7507 44.2892Z" fill="#D3766A"/>
<path d="M30.2556 46.4499C31.4681 46.0053 32.9513 45.3802 34.3897 45.629C34.5501 45.6527 34.6977 45.7286 34.8088 45.8445C35.4553 45.9446 35.6007 46.2739 35.6007 46.2739C36.1745 46.5485 36.2766 46.9066 36.2766 46.9066C36.2766 46.9066 37.0344 47.0326 37.0329 47.4939C37.0329 48.0128 35.9688 47.7351 35.2883 47.9324C33.7277 48.3876 31.4109 49.5286 30.9732 49.7031L30.2556 46.4499Z" fill="#D3766A"/>
<path d="M33.3148 47.2829C33.7709 47.1454 34.236 47.038 34.7067 46.9613C35.2253 46.9123 35.747 46.9011 36.2673 46.9279C36.27 46.9269 36.2724 46.9252 36.274 46.9229C36.2757 46.9206 36.2766 46.9178 36.2766 46.915C36.2766 46.9121 36.2757 46.9094 36.274 46.9071C36.2724 46.9048 36.27 46.903 36.2673 46.9021C35.2647 46.7566 34.2407 46.8841 33.307 47.2708C33.2869 47.2723 33.2916 47.289 33.3148 47.2829Z" fill="#263238"/>
<path d="M32.8987 46.3998C33.355 46.3027 34.1577 46.1373 35.6022 46.2921C35.6022 46.2921 35.6099 46.2845 35.6022 46.283C34.707 46.0665 33.768 46.0996 32.891 46.3786C32.8647 46.3862 32.8647 46.4059 32.8987 46.3998Z" fill="#263238"/>
<path d="M32.6837 45.9204C33.3855 45.8019 34.1004 45.7779 34.8088 45.8491C34.8088 45.8491 34.8088 45.8415 34.8088 45.8415C33.8715 45.6897 33.5127 45.7307 32.676 45.8946C32.6466 45.9006 32.6528 45.9264 32.6837 45.9204Z" fill="#263238"/>
<path d="M33.4431 48.597C33.2637 48.7351 33.3364 48.8276 33.7417 48.8276C34.1469 48.8276 35.7523 48.4923 35.8234 49.0507C35.8946 49.6091 33.6257 49.9444 32.9513 50.0005C32.2766 50.0583 31.5977 49.9541 30.9732 49.6971C31.3985 49.5302 32.6157 48.946 33.4431 48.597Z" fill="#D3766A"/>
<path d="M25.9235 44.9401L24.0258 47.7594C24.0258 47.7594 22.142 45.7413 21.5867 44.3332C21.0315 42.9251 21.7785 42.8689 22.824 43.3044C23.8695 43.7399 25.9235 44.9401 25.9235 44.9401Z" fill="#14279B"/>
<path d="M25.2986 44.8446C25.311 44.8248 25.328 44.8279 25.3172 44.8446C24.8332 45.6636 24.2976 46.4521 23.7133 47.2056C23.7133 47.2056 23.7009 47.2056 23.704 47.2056C23.9159 46.7762 25.1656 45.0494 25.2986 44.8446Z" fill="#263238"/>
<path opacity="0.1" d="M21.5852 44.3332C22.1404 45.7413 24.0257 47.7594 24.0257 47.7594L25.311 45.8491L21.729 43.0784C21.3795 43.1542 21.265 43.5169 21.5852 44.3332Z" fill="black"/>
<path d="M24.5701 49.8867L24.7789 53.3873C24.7789 53.3873 17.8624 52.9973 15.9554 52.8577C15.9554 52.8577 17.915 45.9643 19.9766 43.7748C21.0051 42.6792 22.213 42.7612 22.9817 43.5259C23.1766 43.7201 25.0836 46.6623 25.3279 47.814C25.5352 48.8291 24.5701 49.8867 24.5701 49.8867Z" fill="#14279B"/>
<path d="M21.9579 49.3374C22.3286 49.3048 22.7013 49.2987 23.073 49.3192C23.257 49.3329 23.4395 49.3541 23.622 49.3784C23.7133 49.3905 23.8045 49.4012 23.8958 49.4087C23.9918 49.4209 24.089 49.4209 24.185 49.4087C24.1927 49.4087 24.1943 49.4194 24.185 49.4209C24.0964 49.4412 24.0065 49.4554 23.9159 49.4634C23.8279 49.4702 23.7394 49.4702 23.6514 49.4634C23.4643 49.4527 23.2771 49.433 23.09 49.4194C22.7126 49.3936 22.3368 49.3663 21.9579 49.3663C21.9424 49.3678 21.9409 49.3389 21.9579 49.3374Z" fill="#263238"/>
<path d="M21.1103 49.8109C21.4047 49.7261 21.7037 49.6578 22.0058 49.606C22.1605 49.5818 22.3152 49.5651 22.4621 49.5529L22.6817 49.5378C22.7621 49.5378 22.8441 49.5378 22.923 49.5378C22.9323 49.5378 22.9338 49.5499 22.923 49.5514C22.8472 49.5514 22.7683 49.5772 22.6972 49.5893L22.4714 49.6242L22.0167 49.694C21.7151 49.738 21.4135 49.7836 21.1119 49.8382C21.1082 49.8384 21.1046 49.8371 21.1018 49.8347C21.0991 49.8323 21.0974 49.8289 21.0972 49.8253C21.097 49.8217 21.0983 49.8181 21.1007 49.8154C21.1032 49.8127 21.1067 49.8111 21.1103 49.8109V49.8109Z" fill="#263238"/>
<path opacity="0.3" d="M20.6773 43.2134L22.7621 43.3393L22.6879 43.2847L20.7623 43.1694C20.7345 43.183 20.7051 43.1967 20.6773 43.2134ZM20.2999 43.4698L23.0637 43.6367C23.0745 43.6534 23.0885 43.6701 23.1008 43.6898L20.2427 43.5168C20.2606 43.4999 20.2798 43.4842 20.2999 43.4698ZM19.9674 43.7733L23.3003 43.9736C23.3096 43.9903 23.322 44.0085 23.3344 44.0267L19.9318 43.8203C19.943 43.8056 19.9549 43.7915 19.9674 43.7778V43.7733ZM19.7013 44.0859L23.5231 44.3165C23.5339 44.3332 23.5447 44.3514 23.5571 44.3681L19.6627 44.1344C19.6747 44.1191 19.6876 44.1044 19.7013 44.0904V44.0859ZM19.4663 44.3984L23.7396 44.6609C23.7489 44.6792 23.7597 44.6958 23.7705 44.7141L19.44 44.4515L19.4663 44.3984ZM19.2559 44.7156L23.9468 44.9978C23.9561 45.016 23.9669 45.0327 23.9778 45.0509L19.225 44.7641C19.234 44.749 19.2438 44.7343 19.2544 44.7201L19.2559 44.7156ZM19.061 45.0312L24.1479 45.3347C24.1586 45.3519 24.1684 45.3696 24.1773 45.3878L19.0317 45.0843L19.061 45.0312ZM18.877 45.3483L24.3459 45.6791C24.3547 45.6968 24.3645 45.714 24.3752 45.7307L18.8507 45.3969C18.8584 45.3847 18.8677 45.3696 18.877 45.3529V45.3483ZM18.7053 45.6654L24.533 46.0175C24.5435 46.034 24.5528 46.0513 24.5608 46.0691L18.6837 45.714L18.7053 45.6654ZM18.5398 45.9856L24.7155 46.3574L24.7418 46.4089L18.5151 46.0342L18.5398 45.9856ZM18.3852 46.3027L24.8887 46.6957L24.9135 46.7473L18.362 46.3513L18.3852 46.3027ZM18.2305 46.6229L25.0449 47.0341C25.0527 47.0523 25.0604 47.069 25.0666 47.0857L18.2088 46.6715C18.2166 46.6593 18.2243 46.6441 18.2305 46.6244V46.6229ZM18.0867 46.9415L25.1841 47.3694C25.1919 47.3877 25.198 47.4043 25.2042 47.421L18.065 46.9901C18.0714 46.9751 18.0787 46.9604 18.0867 46.9461V46.9415ZM17.9459 47.2617L25.297 47.7063C25.297 47.723 25.3063 47.7397 25.3094 47.7564L17.9243 47.3103C17.9307 47.2952 17.9379 47.2806 17.9459 47.2663V47.2617ZM17.8083 47.5819L25.3512 48.0371C25.3512 48.0538 25.3512 48.0705 25.3512 48.0872L17.7851 47.6319L17.8083 47.5819ZM17.6737 47.902L25.3326 48.3694C25.3326 48.3861 25.3326 48.4028 25.3249 48.4195L17.6536 47.9551C17.6613 47.9385 17.6675 47.9233 17.6737 47.9066V47.902ZM17.5454 48.2222L25.2599 48.688C25.2599 48.7032 25.2491 48.7199 25.2429 48.7366L17.5252 48.2708C17.5312 48.2558 17.5379 48.2411 17.5454 48.2268V48.2222ZM17.4185 48.5424L25.1315 49.0143L25.1083 49.0628L17.3984 48.597L17.4185 48.5424ZM17.2948 48.8625L24.9691 49.3268L24.9398 49.3754L17.2762 48.9202C17.2809 48.9005 17.2886 48.8853 17.2948 48.8671V48.8625ZM17.1726 49.1842L24.7604 49.6394L24.7263 49.688L17.1556 49.2328C17.1602 49.2221 17.1664 49.2039 17.1726 49.1888V49.1842ZM17.0535 49.5044L24.5748 49.9596V50.0097L17.0334 49.5544C17.0409 49.5391 17.0476 49.5234 17.0535 49.5074V49.5044ZM16.9391 49.8276L24.5949 50.2828V50.3344L16.919 49.8701C16.9267 49.8655 16.9344 49.8488 16.9344 49.8321L16.9391 49.8276ZM16.8262 50.1477L24.6134 50.6181V50.6697L16.8045 50.1978L16.8262 50.1477ZM16.7133 50.4694L24.6335 50.9474V50.999L16.6932 50.5195C16.7024 50.5074 16.7086 50.4907 16.7133 50.474V50.4694ZM16.605 50.7911L24.6474 51.2767V51.3283L16.5772 50.8412L16.605 50.7911ZM16.4983 51.1128L24.6676 51.612V51.6621L16.4704 51.1674C16.4859 51.1507 16.4921 51.134 16.4983 51.1173V51.1128ZM16.3931 51.4345L24.6923 51.9352V51.9868L16.373 51.4861C16.3807 51.48 16.3869 51.4557 16.3931 51.439V51.4345ZM16.2895 51.7577L24.7124 52.266V52.3161L16.2709 51.8062C16.2787 51.7941 16.2833 51.7835 16.2895 51.7622V51.7577ZM16.189 52.0793L24.7325 52.5937V52.6468L16.1704 52.1294C16.1781 52.1173 16.1828 52.1006 16.189 52.0869V52.0793ZM16.0884 52.401L24.7495 52.9245V52.9746L16.0699 52.4511C16.0791 52.4405 16.0838 52.4223 16.0884 52.4056V52.401ZM15.9925 52.7227L24.7712 53.2538V53.3054L15.9755 52.7743C15.9833 52.7637 15.9879 52.747 15.9925 52.7273V52.7227Z" fill="#37474F"/>
<path d="M19.157 44.9311C18.1842 47.0554 16.6252 51.2069 17.0613 52.2478C17.9383 54.3433 21.4584 56.2203 22.4822 56.6482C22.9632 56.8454 25.2136 53.8881 24.8316 53.4936C24.414 53.0611 20.7346 50.914 20.6711 50.4285C20.6186 50.0249 20.8691 47.4575 21.0238 45.4864C21.2171 42.9934 19.9798 43.1345 19.157 44.9311Z" fill="#D3766A"/>
<path d="M23.7644 52.7955C23.7644 52.7955 25.3512 53.061 26.3812 53.2826C26.955 53.4055 27.9201 53.7044 28.3006 53.9836C28.8682 54.4039 30.9701 56.5115 30.4659 57.0183C30.0019 57.4811 28.4321 55.4448 28.4321 55.4448C28.4321 55.4448 30.203 57.3613 29.5425 57.8195C28.8821 58.2777 27.4175 55.7422 27.4175 55.7422C27.4175 55.7422 29.193 57.7527 28.4367 58.1184C27.8645 58.3946 26.406 56.1747 26.406 56.1747C26.406 56.1747 27.9201 57.9121 27.3432 58.2216C26.7076 58.5615 25.2306 56.595 25.2306 56.595C23.6329 57.1382 22.6446 56.7558 21.9749 56.4008C21.8079 56.3203 23.7644 52.7955 23.7644 52.7955Z" fill="#D3766A"/>
<path d="M27.9387 54.841C29.3538 56.155 29.64 57.2248 29.623 57.199C29.3059 56.5617 28.6192 55.7074 28.4228 55.4707C28.2264 55.234 28.1243 55.0837 27.9294 54.847C27.9248 54.8425 27.934 54.8364 27.9387 54.841Z" fill="#263238"/>
<path d="M26.9767 55.4251C27.5728 55.932 28.0724 56.5387 28.4522 57.2171C28.4661 57.2444 28.4522 57.2429 28.4321 57.2171C28.1923 56.9136 27.2242 55.724 26.969 55.4297C26.9643 55.4251 26.9721 55.4251 26.9767 55.4251Z" fill="#263238"/>
<path d="M26.1137 55.8803C26.5668 56.2832 26.9401 56.7647 27.2149 57.3006C27.2288 57.3264 27.2056 57.3249 27.187 57.3006C26.8313 56.8211 26.5545 56.4433 26.1044 55.8955C26.0905 55.8803 26.1044 55.8667 26.1137 55.8803Z" fill="#263238"/>
<path d="M21.2047 48.028L17.7805 47.6714C17.7805 47.6714 18.7394 45.101 19.7586 43.969C20.7778 42.8371 21.1722 43.4637 21.2557 44.576C21.3392 45.6882 21.2047 48.028 21.2047 48.028Z" fill="#14279B"/>
<path d="M21.0036 47.4392C21.0268 47.4392 21.0315 47.4574 21.0036 47.4559C20.04 47.4113 19.0803 47.3074 18.13 47.1448C18.13 47.1448 18.13 47.1327 18.13 47.1327C18.6141 47.1266 20.7562 47.418 21.0036 47.4392Z" fill="#263238"/>
<path d="M21.3006 45.4318C21.3006 46.3027 21.2619 47.2162 21.2295 48.0659C21.2295 48.0811 21.0856 48.0416 21.0268 48.031C21.0036 48.031 21.016 48.0037 21.0377 48.0067C21.0799 48.0105 21.1223 48.0105 21.1645 48.0067C21.197 47.1479 21.231 46.2891 21.2898 45.4272C21.2898 45.4257 21.3006 45.4257 21.3006 45.4318Z" fill="#263238"/>
<path d="M21.265 43.5153C21.3021 43.6671 22.0383 44.6336 22.7435 44.5957C22.9709 44.582 22.9539 43.3575 22.9539 43.3575L22.974 43.268L23.2508 41.998L21.7243 41.0587L21.5047 40.9343C21.5047 40.9343 21.4521 41.2863 21.3918 41.7248L21.3825 41.7871C21.3825 41.8129 21.3825 41.8356 21.3717 41.8584C21.3624 41.9251 21.3516 41.9919 21.3438 42.0587C21.3361 42.1254 21.3299 42.1588 21.3253 42.2104C21.3206 42.262 21.3144 42.3166 21.3083 42.3697C21.2669 42.7502 21.2524 43.1329 21.265 43.5153V43.5153Z" fill="#D3766A"/>
<path d="M21.3934 41.7248C21.5269 42.0794 21.7377 42.4012 22.0109 42.6677C22.2842 42.9342 22.6134 43.1391 22.9756 43.268L23.2524 41.998L21.7259 41.0587L21.5063 40.9343C21.5063 40.9343 21.4537 41.2863 21.3934 41.7248Z" fill="#263238"/>
<path d="M24.7588 39.0451C25.9961 40.9707 24.9661 41.9175 24.5423 42.1785C24.1587 42.4167 22.8194 43.1799 21.381 41.391C19.9426 39.602 20.4639 38.4291 21.313 37.8388C22.1621 37.2486 23.5169 37.1211 24.7588 39.0451Z" fill="#D3766A"/>
<path d="M24.2515 38.9511C24.2009 38.9688 24.1493 38.9835 24.0969 38.9951C24.0452 39.0187 23.9869 39.0246 23.9314 39.0118C23.9149 39.0045 23.9014 38.992 23.8927 38.9764C23.8841 38.9608 23.8808 38.9429 23.8834 38.9253C23.8945 38.8911 23.9147 38.8605 23.9419 38.8365C23.9691 38.8124 24.0023 38.796 24.0381 38.7888C24.1077 38.7622 24.185 38.7622 24.2546 38.7888C24.2715 38.7952 24.2859 38.8065 24.2959 38.8212C24.306 38.8359 24.3112 38.8533 24.3109 38.871C24.3105 38.8887 24.3047 38.9059 24.2941 38.9202C24.2834 38.9346 24.2686 38.9453 24.2515 38.9511V38.9511Z" fill="#263238"/>
<path d="M22.9447 39.6901C22.9875 39.6586 23.0283 39.6247 23.0669 39.5884C23.1155 39.5594 23.1526 39.5149 23.172 39.4624C23.175 39.4446 23.172 39.4264 23.1633 39.4105C23.1546 39.3945 23.1408 39.3819 23.1241 39.3744C23.089 39.3649 23.052 39.3648 23.0169 39.3742C22.9818 39.3835 22.9499 39.4019 22.9246 39.4276C22.8645 39.4709 22.8231 39.5348 22.8086 39.6066C22.8056 39.6233 22.8078 39.6404 22.8148 39.6558C22.8218 39.6713 22.8334 39.6843 22.848 39.6933C22.8626 39.7022 22.8796 39.7067 22.8968 39.7061C22.9141 39.7056 22.9307 39.7 22.9447 39.6901Z" fill="#263238"/>
<path d="M23.4952 40.0526C23.4952 40.0526 23.4875 40.0648 23.4952 40.0693C23.5772 40.2029 23.6499 40.3728 23.5509 40.4821C23.5509 40.4821 23.5509 40.4912 23.5509 40.4821C23.6932 40.3834 23.5958 40.1649 23.4952 40.0526Z" fill="#263238"/>
<path d="M23.2911 39.9799C23.0606 40.0876 23.2911 40.5307 23.5091 40.4351C23.7272 40.3395 23.4844 39.8903 23.2911 39.9799Z" fill="#263238"/>
<path d="M23.2137 40.0482C23.1874 40.0937 23.1735 40.1589 23.1271 40.1878C23.0807 40.2166 23.0096 40.1954 22.9493 40.1696C22.9493 40.1696 22.9415 40.1696 22.9493 40.1787C22.9639 40.2228 22.995 40.2598 23.0363 40.2823C23.0776 40.3048 23.1261 40.3112 23.172 40.3001C23.2632 40.2682 23.2833 40.162 23.2601 40.0649C23.2509 40.0467 23.2246 40.03 23.2137 40.0482Z" fill="#263238"/>
<path d="M24.2562 39.5929C24.2562 39.5929 24.2701 39.5929 24.2732 39.5929C24.3412 39.7325 24.4418 39.8827 24.5933 39.8645C24.5933 39.8645 24.6011 39.8721 24.5933 39.8736C24.4294 39.9373 24.2964 39.737 24.2562 39.5929Z" fill="#263238"/>
<path d="M24.3072 39.3866C24.5253 39.2561 24.7712 39.69 24.5717 39.8129C24.3722 39.9359 24.1247 39.4928 24.3072 39.3866Z" fill="#263238"/>
<path d="M24.417 39.3638C24.4649 39.3638 24.5237 39.3911 24.5716 39.3638C24.6196 39.3365 24.6319 39.2743 24.6366 39.2121C24.6366 39.2045 24.6366 39.2121 24.6459 39.2121C24.6759 39.2462 24.6924 39.2899 24.6924 39.335C24.6924 39.3801 24.6759 39.4237 24.6459 39.4579C24.5809 39.514 24.4912 39.4716 24.417 39.4002C24.3984 39.3927 24.3969 39.3623 24.417 39.3638Z" fill="#263238"/>
<path d="M24.0381 41.1239C24.0849 41.1502 24.1394 41.1604 24.1928 41.1527C24.2456 41.127 24.2925 41.0908 24.3304 41.0465C24.3304 41.0465 24.3413 41.0465 24.3397 41.0465C24.3326 41.0836 24.3153 41.118 24.2897 41.1461C24.2641 41.1742 24.2311 41.1948 24.1943 41.2058C24.1616 41.2115 24.1279 41.2076 24.0974 41.1946C24.0669 41.1817 24.0409 41.1603 24.0227 41.133C24.0227 41.133 24.0304 41.1224 24.0381 41.1239Z" fill="#263238"/>
<path d="M24.3583 40.3243C24.3583 40.3243 24.4975 40.5139 24.55 40.6095C24.55 40.6186 24.5346 40.6353 24.5021 40.6551C24.4261 40.7143 24.3349 40.7518 24.2385 40.7633C24.1422 40.7748 24.0444 40.7599 23.9561 40.7203C23.9438 40.7203 23.9561 40.6991 23.9639 40.7006C24.135 40.7182 24.3074 40.6815 24.4557 40.5959C24.448 40.5655 24.2036 40.2803 24.2191 40.2712C24.2989 40.2371 24.3833 40.2141 24.4696 40.2029C24.1897 39.8008 23.851 39.4442 23.5726 39.0406C23.5633 39.0269 23.5834 39.0102 23.5958 39.0209C23.9757 39.3913 24.3171 39.798 24.615 40.2347C24.6413 40.2863 24.4 40.3197 24.3583 40.3243Z" fill="#263238"/>
<path d="M24.4619 40.6262C24.4485 40.7363 24.4058 40.8409 24.3382 40.9297C24.2984 40.977 24.2442 41.0105 24.1835 41.0253C24.0567 41.0602 23.9948 40.9616 23.9654 40.8644C23.9501 40.8125 23.9408 40.7591 23.9376 40.7051C24.1165 40.7356 24.3006 40.7079 24.4619 40.6262V40.6262Z" fill="#263238"/>
<path d="M24.3382 40.9252C24.2984 40.9725 24.2441 41.006 24.1835 41.0208C24.0567 41.0557 23.9948 40.9571 23.9654 40.86C24.0257 40.8272 24.0957 40.8158 24.1636 40.8276C24.2315 40.8395 24.2931 40.874 24.3382 40.9252V40.9252Z" fill="#FF99BA"/>
<path d="M21.6176 41.388C22.1141 41.1118 21.4506 39.5125 21.3671 39.3168C21.4258 39.4367 21.7413 40.0755 21.8032 40.0755C21.8202 40.0755 21.8697 40.0345 21.947 39.9647C21.9069 39.8895 21.8728 39.8114 21.845 39.731C21.8311 39.6946 21.8991 39.8008 21.9904 39.9253L22.0708 39.8524C21.9798 39.6947 21.9107 39.5258 21.8651 39.3502C21.8481 39.2834 22.0058 39.5429 22.1883 39.7462C22.5534 39.4002 22.9565 39.0948 23.39 38.8358C23.5138 38.766 23.6236 38.7129 23.7226 38.6674C23.6251 38.4822 23.4983 38.2956 23.5339 38.3305C23.6314 38.423 23.7195 38.5247 23.7968 38.634L23.9515 38.5702C23.8262 38.3017 23.4767 37.9496 23.554 37.9906C23.7848 38.1234 23.9883 38.2974 24.1541 38.5035C24.3551 38.4458 24.4232 38.4549 24.4031 38.4064C24.0754 37.9193 23.5821 37.5623 23.0111 37.3988C22.0692 37.1379 20.7299 37.6355 20.4963 38.8995C20.4963 38.8995 20.1097 39.5732 20.3417 40.2242C20.5736 40.8751 21.3299 41.5473 21.6176 41.388Z" fill="#263238"/>
<path d="M21.8945 41.2302C21.8945 41.2302 21.1119 40.8281 20.9031 41.1331C20.6943 41.4381 21.5217 42.1831 21.9239 42.133C21.9767 42.1304 22.0284 42.1173 22.0759 42.0945C22.1234 42.0717 22.1657 42.0397 22.2003 42.0004C22.2348 41.9611 22.2609 41.9154 22.2769 41.8659C22.293 41.8165 22.2986 41.7643 22.2935 41.7127L21.8945 41.2302Z" fill="#D3766A"/>
<path d="M21.1443 41.3409C21.1443 41.3409 21.1443 41.3516 21.1443 41.35C21.2825 41.3475 21.4197 41.3732 21.5472 41.4254C21.6748 41.4777 21.7898 41.5553 21.8852 41.6535C21.8589 41.638 21.8296 41.6282 21.7991 41.6246C21.7687 41.6211 21.7378 41.6239 21.7086 41.633C21.6793 41.642 21.6524 41.657 21.6295 41.6771C21.6066 41.6971 21.5883 41.7216 21.5758 41.7491C21.5758 41.7491 21.5758 41.7628 21.5882 41.7582C21.6236 41.7235 21.669 41.7004 21.7183 41.6919C21.7676 41.6835 21.8183 41.6902 21.8635 41.7112C21.9382 41.748 22.0092 41.7917 22.0754 41.8417C22.0971 41.8568 22.1311 41.8265 22.1094 41.8052C21.9486 41.5033 21.4892 41.2044 21.1443 41.3409Z" fill="#263238"/>
<defs>
<filter id="filter0_d" x="0.513489" y="59.5433" width="72.4355" height="14.6885" filterUnits="userSpaceOnUse" color-interpolation-filters="sRGB">
<feFlood flood-opacity="0" result="BackgroundImageFix"/>
<feColorMatrix in="SourceAlpha" type="matrix" values="0 0 0 0 0 0 0 0 0 0 0 0 0 0 0 0 0 0 127 0" result="hardAlpha"/>
<feOffset dy="4"/>
<feGaussianBlur stdDeviation="2"/>
<feComposite in2="hardAlpha" operator="out"/>
<feColorMatrix type="matrix" values="0 0 0 0 0 0 0 0 0 0 0 0 0 0 0 0 0 0 0.25 0"/>
<feBlend mode="normal" in2="BackgroundImageFix" result="effect1_dropShadow"/>
<feBlend mode="normal" in="SourceGraphic" in2="effect1_dropShadow" result="shape"/>
</filter>
</defs>
</svg>
