<svg width="35" height="35" viewBox="0 0 35 35" fill="none" xmlns="http://www.w3.org/2000/svg">
<g filter="url(#filter0_d)">
<path d="M26.229 23.755L30.0543 17.5641L28.169 16.3864C27.8959 16.2141 27.6763 15.9679 27.5352 15.6761C27.3941 15.3842 27.3373 15.0583 27.3712 14.7355C27.4044 14.3696 27.4153 14.0021 27.404 13.6349C27.3953 13.315 27.475 12.999 27.6342 12.7221C27.7934 12.4452 28.0259 12.2182 28.3056 12.0665L30.2566 11.0099L26.8247 4.61537L24.8519 5.67196C24.5709 5.82181 24.2541 5.89033 23.9368 5.86993C23.6194 5.84953 23.3138 5.74101 23.054 5.5564C22.7567 5.35564 22.4483 5.17191 22.1305 5.00609C21.8503 4.85346 21.6176 4.62552 21.4584 4.34765C21.2992 4.06978 21.2197 3.75288 21.2288 3.43221L21.2944 1.20347L14.0645 0.977844L13.9989 3.21759C13.9845 3.53826 13.8825 3.8487 13.7041 4.11474C13.5257 4.38078 13.2779 4.59209 12.9879 4.72543C12.8295 4.79697 12.671 4.87952 12.5125 4.96206L12.048 5.23171C11.7787 5.39928 11.4684 5.48804 11.1518 5.48804C10.8352 5.48804 10.5249 5.39928 10.2556 5.23171L8.38115 4.06506L4.55583 10.256L6.44118 11.4337C6.71342 11.607 6.9323 11.8532 7.07324 12.1449C7.21417 12.4365 7.27158 12.7619 7.23902 13.0846C7.2065 13.4505 7.19374 13.8179 7.20078 14.1852C7.21121 14.5047 7.13283 14.8208 6.97449 15.0979C6.81615 15.375 6.58413 15.6021 6.30456 15.7536L4.35364 16.8102L7.77457 23.2322L9.72549 22.1811C10.0052 22.0299 10.3213 21.9606 10.6381 21.981C10.9549 22.0014 11.2597 22.1108 11.5179 22.2967C11.8185 22.5003 12.1245 22.6929 12.436 22.847C12.7174 22.9991 12.9516 23.2266 13.1126 23.5044C13.2737 23.7821 13.3554 24.0993 13.3486 24.4209L13.2776 26.6551L20.5074 26.8808L20.5785 24.6465C20.5922 24.3271 20.6934 24.0177 20.8708 23.7525C21.0483 23.4874 21.2951 23.2768 21.584 23.1442C21.7425 23.0671 21.9064 22.9846 22.0649 22.8965C22.2234 22.8085 22.3764 22.7259 22.5294 22.6324C22.8008 22.4651 23.1128 22.3765 23.4311 22.3765C23.7493 22.3765 24.0613 22.4651 24.3328 22.6324L26.229 23.755ZM20.103 19.1545C19.0702 19.7109 17.8967 19.9465 16.7309 19.8315C15.565 19.7164 14.4593 19.2559 13.5533 18.5081C12.6474 17.7603 11.9819 16.7589 11.6411 15.6303C11.3003 14.5017 11.2994 13.2967 11.6385 12.1676C11.9776 11.0385 12.6415 10.036 13.5463 9.28686C14.4511 8.53768 15.5562 8.07545 16.7218 7.95861C17.8875 7.84177 19.0613 8.07556 20.0951 8.63043C21.1288 9.1853 21.9759 10.0363 22.5294 11.076C22.8979 11.7666 23.1275 12.5237 23.2049 13.3038C23.2824 14.0839 23.2063 14.8718 22.9809 15.6222C22.7555 16.3727 22.3853 17.071 21.8914 17.6771C21.3976 18.2832 20.7899 18.7852 20.103 19.1545Z" fill="#EBEBEB"/>
</g>
<defs>
<filter id="filter0_d" x="0.353638" y="0.977844" width="33.9029" height="33.9029" filterUnits="userSpaceOnUse" color-interpolation-filters="sRGB">
<feFlood flood-opacity="0" result="BackgroundImageFix"/>
<feColorMatrix in="SourceAlpha" type="matrix" values="0 0 0 0 0 0 0 0 0 0 0 0 0 0 0 0 0 0 127 0" result="hardAlpha"/>
<feOffset dy="4"/>
<feGaussianBlur stdDeviation="2"/>
<feComposite in2="hardAlpha" operator="out"/>
<feColorMatrix type="matrix" values="0 0 0 0 0 0 0 0 0 0 0 0 0 0 0 0 0 0 0.1 0"/>
<feBlend mode="normal" in2="BackgroundImageFix" result="effect1_dropShadow"/>
<feBlend mode="normal" in="SourceGraphic" in2="effect1_dropShadow" result="shape"/>
</filter>
</defs>
</svg>
